<svg width="22" height="22" viewBox="0 0 22 22" fill="none" xmlns="http://www.w3.org/2000/svg">
<mask id="mask0_1_65" style="mask-type:luminance" maskUnits="userSpaceOnUse" x="0" y="0" width="22" height="22">
<path d="M21.4008 0.351074H0.726562V21.0364H21.4008V0.351074Z" fill="white"/>
</mask>
<g mask="url(#mask0_1_65)">
<path d="M1.87219 11.0385L4.93892 13.2794L3.77601 16.8881C3.5865 17.4484 3.57788 18.0534 3.76739 18.6145C3.94829 19.1756 4.31004 19.6625 4.79244 20.0021C5.26622 20.3529 5.8434 20.5408 6.42917 20.5374C7.02355 20.5348 7.59211 20.3409 8.0659 19.9858L11.0636 17.7776L14.0614 19.9832C14.5352 20.3322 15.1123 20.521 15.6981 20.5244C16.2839 20.527 16.8611 20.3434 17.3348 19.9995C17.8086 19.6556 18.1704 19.1687 18.3513 18.6102C18.5322 18.0508 18.5322 17.4484 18.3599 16.8881L17.1884 13.2794L20.2551 11.0385C20.7289 10.6929 21.082 10.2059 21.2629 9.64824C21.4438 9.08973 21.4438 8.48902 21.2629 7.93224C21.082 7.3746 20.7289 6.88847 20.2551 6.54372C19.7813 6.19896 19.2041 6.01279 18.6184 6.01193H14.8539L13.7082 2.44716C13.5273 1.88607 13.1742 1.39651 12.7004 1.04917C12.2266 0.701827 11.6494 0.514801 11.0636 0.514801C10.4779 0.514801 9.90069 0.701827 9.42691 1.04917C8.95313 1.39651 8.60001 1.88607 8.41911 2.44716L7.27335 6.01193H3.50892C2.92315 6.01279 2.3546 6.19896 1.88081 6.54372C1.40703 6.88847 1.05391 7.3746 0.873012 7.93224C0.692112 8.48902 0.692104 9.08973 0.864389 9.64824C1.04529 10.2059 1.39841 10.6929 1.87219 11.0385Z" fill="#FFB402"/>
</g>
</svg>
