<svg width="21" height="22" viewBox="0 0 21 22" fill="none" xmlns="http://www.w3.org/2000/svg">
<mask id="mask0_1_113" style="mask-type:luminance" maskUnits="userSpaceOnUse" x="0" y="0" width="21" height="22">
<path d="M0.769531 20.8978V1.2124H20.4437V20.8978H0.769531Z" fill="white" stroke="white"/>
</mask>
<g mask="url(#mask0_1_113)">
<path d="M1.71015 10.9961L1.70983 10.9959C1.32203 10.713 1.03277 10.3146 0.884074 9.85872C0.742458 9.39716 0.743624 8.90326 0.891511 8.44809L0.891581 8.44787C1.03987 7.99077 1.3294 7.5921 1.71797 7.30935C2.10676 7.02645 2.57256 6.87404 3.05232 6.87327C3.05242 6.87327 3.05252 6.87327 3.05262 6.87327L6.81632 6.87327H7.1808L7.29233 6.52627L8.43796 2.96193C8.58664 2.50077 8.8768 2.09872 9.26551 1.81376C9.6528 1.52982 10.1262 1.37614 10.6066 1.37614C11.087 1.37614 11.5604 1.52982 11.9477 1.81375C12.3364 2.09872 12.6266 2.50077 12.7753 2.96193L13.9209 6.52627L14.0324 6.87327H14.3969L18.1606 6.87327C18.1607 6.87327 18.1608 6.87327 18.1609 6.87327C18.6423 6.87404 19.1164 7.0274 19.5039 7.30935C19.8924 7.5921 20.182 7.99077 20.3303 8.44787L20.3303 8.44809C20.4786 8.90429 20.4787 9.397 20.3302 9.85551C20.1818 10.3128 19.8921 10.7123 19.5034 10.9959L19.5031 10.9961L16.4363 13.237L16.1439 13.4507L16.2558 13.7951L17.4261 17.4001C17.5678 17.8635 17.5667 18.3595 17.4185 18.8177C17.2713 19.2718 16.9753 19.6723 16.5841 19.9562C16.1975 20.2368 15.7244 20.3878 15.2436 20.3858C14.7624 20.3829 14.2884 20.2275 13.9009 19.942L13.9007 19.9418L10.9029 17.7362L10.6064 17.5181L10.3101 17.7364L7.31233 19.9445L7.31232 19.9445L7.30899 19.947C6.91987 20.2387 6.45538 20.3966 5.96996 20.3987L5.96919 20.3987C5.49156 20.4015 5.01981 20.2481 4.63293 19.9616L4.63301 19.9615L4.62322 19.9546C4.22826 19.6766 3.93334 19.2787 3.78624 18.8224L3.78628 18.8224L3.78407 18.8158C3.63123 18.3633 3.6366 17.8709 3.79262 17.4097L3.79267 17.4097L3.79488 17.4028L4.95779 13.7941L5.0686 13.4502L4.77688 13.237L1.71015 10.9961ZM4.3354 20.3635C4.80919 20.7143 5.38636 20.9022 5.97213 20.8987C6.56652 20.8961 7.13508 20.7022 7.60886 20.3471L4.3354 20.3635Z" stroke="black"/>
</g>
</svg>
