<svg width="22" height="22" viewBox="0 0 22 22" fill="none" xmlns="http://www.w3.org/2000/svg">
<mask id="mask0_1_60" style="mask-type:luminance" maskUnits="userSpaceOnUse" x="0" y="0" width="22" height="22">
<path d="M21.6088 0.351074H0.93457V21.0364H21.6088V0.351074Z" fill="white"/>
</mask>
<g mask="url(#mask0_1_60)">
<path d="M2.0777 11.0385L5.14437 13.2794L3.97968 16.8881C3.79189 17.4484 3.78931 18.0534 3.97279 18.6145C4.15714 19.1756 4.51723 19.6625 4.99962 20.0021C5.47427 20.3529 6.04972 20.5408 6.63893 20.5374C7.22901 20.5348 7.80183 20.3409 8.27303 19.9858L11.2717 17.7776L14.2711 19.9832C14.7449 20.3322 15.3169 20.521 15.9053 20.5244C16.4928 20.527 17.0665 20.3434 17.5437 19.9995C18.0209 19.6556 18.3767 19.1687 18.5593 18.6102C18.7428 18.0508 18.7446 17.4484 18.5637 16.8881L17.399 13.2794L20.4656 11.0385C20.9386 10.6929 21.2909 10.2059 21.471 9.64824C21.651 9.08973 21.6501 8.48902 21.4683 7.93224C21.2866 7.3746 20.9334 6.88847 20.4596 6.54372C19.9859 6.19896 19.4147 6.01279 18.829 6.01193H15.062L13.9188 2.44716C13.7397 1.88607 13.3856 1.39651 12.9101 1.04917C12.4346 0.701827 11.8609 0.514801 11.2717 0.514801C10.6833 0.514801 10.1096 0.701827 9.63326 1.04917C9.15775 1.39651 8.80455 1.88607 8.62451 2.44716L7.48138 6.01193H3.71784C3.13207 6.01279 2.56094 6.19896 2.08716 6.54372C1.61338 6.88847 1.26021 7.3746 1.07931 7.93224C0.897546 8.48902 0.89664 9.08973 1.07668 9.64824C1.25672 10.2059 1.60819 10.6929 2.08111 11.0385H2.0777Z" fill="#FFB402"/>
</g>
</svg>
