<svg width="22" height="22" viewBox="0 0 22 22" fill="none" xmlns="http://www.w3.org/2000/svg">
<mask id="mask0_1_103" style="mask-type:luminance" maskUnits="userSpaceOnUse" x="0" y="0" width="22" height="22">
<path d="M21.6371 0.712402H0.962891V21.3978H21.6371V0.712402Z" fill="white"/>
</mask>
<g mask="url(#mask0_1_103)">
<path d="M2.106 11.3998L5.17267 13.6407L4.00803 17.2495C3.82024 17.8097 3.81766 18.4147 4.00114 18.9758C4.18549 19.5369 4.54555 20.0239 5.02795 20.3635C5.5026 20.7143 6.07804 20.9022 6.66726 20.8987C7.25733 20.8961 7.83018 20.7022 8.30138 20.3471L11.3 18.1389L14.2995 20.3445C14.7733 20.6936 15.3453 20.8823 15.9336 20.8858C16.5211 20.8884 17.0948 20.7048 17.572 20.3609C18.0493 20.017 18.405 19.53 18.5877 18.9715C18.7711 18.4122 18.7729 17.8097 18.592 17.2495L17.4273 13.6407L20.494 11.3998C20.9669 11.0542 21.3192 10.5672 21.4993 10.0096C21.6793 9.45107 21.6785 8.85037 21.4967 8.29358C21.3149 7.73594 20.9617 7.24982 20.488 6.90506C20.0142 6.5603 19.4431 6.37413 18.8573 6.37327H15.0903L13.9472 2.80851C13.768 2.24742 13.4139 1.75785 12.9384 1.41051C12.4629 1.06317 11.8892 0.876144 11.3 0.876144C10.7116 0.876144 10.1379 1.06317 9.66156 1.41051C9.18605 1.75785 8.83288 2.24742 8.65284 2.80851L7.50973 6.37327H3.74614C3.16038 6.37413 2.58927 6.5603 2.11549 6.90506C1.6417 7.24982 1.28851 7.73594 1.10761 8.29358C0.925847 8.85037 0.924994 9.45107 1.10503 10.0096C1.28507 10.5672 1.63652 11.0542 2.10944 11.3998H2.106Z" fill="#FFB402"/>
</g>
</svg>
