<svg width="22" height="22" viewBox="0 0 22 22" fill="none" xmlns="http://www.w3.org/2000/svg">
<mask id="mask0_1_108" style="mask-type:luminance" maskUnits="userSpaceOnUse" x="0" y="0" width="22" height="22">
<path d="M21.1518 0.712402H0.477539V21.3978H21.1518V0.712402Z" fill="white"/>
</mask>
<g mask="url(#mask0_1_108)">
<path d="M1.62066 11.3998L4.68734 13.6407L3.52265 17.2495C3.33486 17.8097 3.33228 18.4147 3.51576 18.9758C3.7001 19.5369 4.06019 20.0239 4.54259 20.3635C5.01724 20.7143 5.59268 20.9022 6.1819 20.8987C6.77198 20.8961 7.3448 20.7022 7.816 20.3471L10.8146 18.1389L13.8141 20.3445C14.2879 20.6936 14.8599 20.8823 15.4483 20.8858C16.0358 20.8884 16.6095 20.7048 17.0867 20.3609C17.5639 20.017 17.9197 19.53 18.1023 18.9715C18.2858 18.4122 18.2875 17.8097 18.1066 17.2495L16.9419 13.6407L20.0086 11.3998C20.4815 11.0542 20.8339 10.5672 21.0139 10.0096C21.194 9.45107 21.1931 8.85037 21.0113 8.29358C20.8296 7.73594 20.4764 7.24982 20.0026 6.90506C19.5288 6.5603 18.9577 6.37413 18.3719 6.37327H14.6049L13.4618 2.80851C13.2826 2.24742 12.9286 1.75785 12.4531 1.41051C11.9775 1.06317 11.4039 0.876144 10.8146 0.876144C10.2263 0.876144 9.65259 1.06317 9.17623 1.41051C8.70072 1.75785 8.34752 2.24742 8.16748 2.80851L7.02434 6.37327H3.26081C2.67504 6.37413 2.10391 6.5603 1.63013 6.90506C1.15634 7.24982 0.803174 7.73594 0.622275 8.29358C0.440514 8.85037 0.439608 9.45107 0.619646 10.0096C0.799684 10.5672 1.15116 11.0542 1.62408 11.3998H1.62066Z" fill="#FFB402"/>
</g>
</svg>
