<svg width="22" height="22" viewBox="0 0 22 22" fill="none" xmlns="http://www.w3.org/2000/svg">
<mask id="mask0_1_55" style="mask-type:luminance" maskUnits="userSpaceOnUse" x="0" y="0" width="22" height="22">
<path d="M21.0941 0.351074H0.419922V21.0364H21.0941V0.351074Z" fill="white"/>
</mask>
<g mask="url(#mask0_1_55)">
<path d="M1.56303 11.0385L4.6297 13.2794L3.46506 16.8881C3.27727 17.4484 3.27469 18.0534 3.45818 18.6145C3.64252 19.1756 4.00258 19.6625 4.48498 20.0021C4.95963 20.3529 5.53507 20.5408 6.12429 20.5374C6.71437 20.5348 7.28722 20.3409 7.75842 19.9858L10.757 17.7776L13.7565 19.9832C14.2303 20.3322 14.8023 20.521 15.3906 20.5244C15.9781 20.527 16.5518 20.3434 17.0291 19.9995C17.5063 19.6556 17.8621 19.1687 18.0447 18.6102C18.2282 18.0508 18.2299 17.4484 18.049 16.8881L16.8844 13.2794L19.951 11.0385C20.424 10.6929 20.7763 10.2059 20.9563 9.64824C21.1363 9.08973 21.1355 8.48902 20.9537 7.93224C20.772 7.3746 20.4188 6.88847 19.945 6.54372C19.4712 6.19896 18.9001 6.01279 18.3143 6.01193H14.5473L13.4042 2.44716C13.225 1.88607 12.871 1.39651 12.3955 1.04917C11.92 0.701827 11.3462 0.514801 10.757 0.514801C10.1687 0.514801 9.59496 0.701827 9.11859 1.04917C8.64308 1.39651 8.28991 1.88607 8.10987 2.44716L6.96676 6.01193H3.20318C2.61741 6.01279 2.0463 6.19896 1.57252 6.54372C1.09873 6.88847 0.745538 7.3746 0.564639 7.93224C0.382878 8.48902 0.382025 9.08973 0.562063 9.64824C0.742101 10.2059 1.09355 10.6929 1.56647 11.0385H1.56303Z" fill="#FFB402"/>
</g>
</svg>
