<svg width="2517" height="124" viewBox="0 0 2517 124" fill="none" xmlns="http://www.w3.org/2000/svg">
<g clip-path="url(#clip0_1_238)">
<path d="M39.5 114C25.1 129.2 7.5 117.667 0.5 110V0.5H246V112.5C232.4 126.9 217 119.167 211 113.5C194.6 97.1001 179.5 108 174 115.5C164 124.7 152.5 121 148 118C145.333 115.333 139.5 109.8 137.5 109C135 108 124 98.5001 107 114C93.4 126.4 79.6667 119.167 74.5 114C68.8333 107.667 53.9 98.8 39.5 114Z" fill="#469EC5"/>
<path d="M247 114.5C232.6 129.7 215 118.167 208 110.5V1H453.5V113C439.9 127.4 424.5 119.667 418.5 114C402.1 97.6001 387 108.5 381.5 116C371.5 125.2 360 121.5 355.5 118.5C352.833 115.833 347 110.3 345 109.5C342.5 108.5 331.5 99.0001 314.5 114.5C300.9 126.9 287.167 119.667 282 114.5C276.333 108.167 261.4 99.3 247 114.5Z" fill="#469EC5"/>
<path d="M452 114.5C437.6 129.7 420 118.167 413 110.5V1H658.5V113C644.9 127.4 629.5 119.667 623.5 114C607.1 97.6001 592 108.5 586.5 116C576.5 125.2 565 121.5 560.5 118.5C557.833 115.833 552 110.3 550 109.5C547.5 108.5 536.5 99.0001 519.5 114.5C505.9 126.9 492.167 119.667 487 114.5C481.333 108.167 466.4 99.3 452 114.5Z" fill="#469EC5"/>
<path d="M659.5 115C645.1 130.2 627.5 118.667 620.5 111V1.5H866V113.5C852.4 127.9 837 120.167 831 114.5C814.6 98.1001 799.5 109 794 116.5C784 125.7 772.5 122 768 119C765.333 116.333 759.5 110.8 757.5 110C755 109 744 99.5001 727 115C713.4 127.4 699.667 120.167 694.5 115C688.833 108.667 673.9 99.8 659.5 115Z" fill="#469EC5"/>
<path d="M864 114.5C849.6 129.7 832 118.167 825 110.5V1H1070.5V113C1056.9 127.4 1041.5 119.667 1035.5 114C1019.1 97.6001 1004 108.5 998.5 116C988.5 125.2 977 121.5 972.5 118.5C969.833 115.833 964 110.3 962 109.5C959.5 108.5 948.5 99.0001 931.5 114.5C917.9 126.9 904.167 119.667 899 114.5C893.333 108.167 878.4 99.3 864 114.5Z" fill="#469EC5"/>
<path d="M1071.5 115C1057.1 130.2 1039.5 118.667 1032.5 111V1.5H1278V113.5C1264.4 127.9 1249 120.167 1243 114.5C1226.6 98.1001 1211.5 109 1206 116.5C1196 125.7 1184.5 122 1180 119C1177.33 116.333 1171.5 110.8 1169.5 110C1167 109 1156 99.5001 1139 115C1125.4 127.4 1111.67 120.167 1106.5 115C1100.83 108.667 1085.9 99.8 1071.5 115Z" fill="#469EC5"/>
<path d="M1276.5 115C1262.1 130.2 1244.5 118.667 1237.5 111V1.5H1483V113.5C1469.4 127.9 1454 120.167 1448 114.5C1431.6 98.1001 1416.5 109 1411 116.5C1401 125.7 1389.5 122 1385 119C1382.33 116.333 1376.5 110.8 1374.5 110C1372 109 1361 99.5001 1344 115C1330.4 127.4 1316.67 120.167 1311.5 115C1305.83 108.667 1290.9 99.8 1276.5 115Z" fill="#469EC5"/>
<path d="M1484 115.5C1469.6 130.7 1452 119.167 1445 111.5V2H1690.5V114C1676.9 128.4 1661.5 120.667 1655.5 115C1639.1 98.6001 1624 109.5 1618.5 117C1608.5 126.2 1597 122.5 1592.5 119.5C1589.83 116.833 1584 111.3 1582 110.5C1579.5 109.5 1568.5 100 1551.5 115.5C1537.9 127.9 1524.17 120.667 1519 115.5C1513.33 109.167 1498.4 100.3 1484 115.5Z" fill="#469EC5"/>
<path d="M1690 115.5C1675.6 130.7 1658 119.167 1651 111.5V2H1896.5V114C1882.9 128.4 1867.5 120.667 1861.5 115C1845.1 98.6001 1830 109.5 1824.5 117C1814.5 126.2 1803 122.5 1798.5 119.5C1795.83 116.833 1790 111.3 1788 110.5C1785.5 109.5 1774.5 100 1757.5 115.5C1743.9 127.9 1730.17 120.667 1725 115.5C1719.33 109.167 1704.4 100.3 1690 115.5Z" fill="#469EC5"/>
<path d="M1897.5 116C1883.1 131.2 1865.5 119.667 1858.5 112V2.5H2104V114.5C2090.4 128.9 2075 121.167 2069 115.5C2052.6 99.1001 2037.5 110 2032 117.5C2022 126.7 2010.5 123 2006 120C2003.33 117.333 1997.5 111.8 1995.5 111C1993 110 1982 100.5 1965 116C1951.4 128.4 1937.67 121.167 1932.5 116C1926.83 109.667 1911.9 100.8 1897.5 116Z" fill="#469EC5"/>
<path d="M2102.5 116C2088.1 131.2 2070.5 119.667 2063.5 112V2.5H2309V114.5C2295.4 128.9 2280 121.167 2274 115.5C2257.6 99.1001 2242.5 110 2237 117.5C2227 126.7 2215.5 123 2211 120C2208.33 117.333 2202.5 111.8 2200.5 111C2198 110 2187 100.5 2170 116C2156.4 128.4 2142.67 121.167 2137.5 116C2131.83 109.667 2116.9 100.8 2102.5 116Z" fill="#469EC5"/>
<path d="M2310 116.5C2295.6 131.7 2278 120.167 2271 112.5V3H2516.5V115C2502.9 129.4 2487.5 121.667 2481.5 116C2465.1 99.6001 2450 110.5 2444.5 118C2434.5 127.2 2423 123.5 2418.5 120.5C2415.83 117.833 2410 112.3 2408 111.5C2405.5 110.5 2394.5 101 2377.5 116.5C2363.9 128.9 2350.17 121.667 2345 116.5C2339.33 110.167 2324.4 101.3 2310 116.5Z" fill="#469EC5"/>
</g>
<defs>
<clipPath id="clip0_1_238">
<rect width="2517" height="124" fill="white"/>
</clipPath>
</defs>
</svg>
