<svg width="207" height="206" viewBox="0 0 207 206" fill="none" xmlns="http://www.w3.org/2000/svg">
<path d="M205.079 102.999C205.079 110.504 194.481 116.705 192.912 123.73C191.29 130.984 198.15 141.228 195.045 147.772C191.885 154.426 179.692 155.342 175.202 161.057C170.69 166.8 172.506 179.073 166.854 183.657C161.228 188.218 149.86 183.708 143.31 186.918C136.869 190.073 133.276 201.948 126.136 203.596C119.221 205.195 110.927 196.114 103.539 196.114C96.1513 196.114 87.8572 205.19 80.9425 203.596C73.8023 201.948 70.2097 190.073 63.7683 186.918C57.2187 183.708 45.8504 188.218 40.2249 183.657C34.5723 179.073 36.3889 166.796 31.8767 161.057C27.3871 155.342 15.1939 154.426 12.034 147.772C8.92826 141.228 15.7889 130.984 14.1661 123.73C12.593 116.705 2 110.509 2 102.999C2 95.4927 12.5975 89.2921 14.1661 82.2671C15.7889 75.0132 8.92826 64.7688 12.034 58.2247C15.1939 51.5707 27.3871 50.6548 31.8767 44.9396C36.3889 39.1969 34.5723 26.9238 40.2249 22.3397C45.8504 17.7786 57.2187 22.2894 63.7683 19.0791C70.2097 15.9239 73.8023 4.04921 80.9425 2.40059C87.8572 0.802341 96.1513 9.88349 103.539 9.88349C110.927 9.88349 119.221 0.806921 126.136 2.40059C133.276 4.04921 136.869 15.9239 143.31 19.0791C149.86 22.2894 161.228 17.7786 166.854 22.3397C172.506 26.9238 170.69 39.2015 175.202 44.9396C179.692 50.6548 191.885 51.5707 195.045 58.2247C198.15 64.7688 191.29 75.0132 192.912 82.2671C194.481 89.2921 205.079 95.4927 205.079 102.999Z" fill="white"/>
<path d="M205.079 102.999C205.079 110.504 194.481 116.705 192.912 123.73C191.29 130.984 198.15 141.228 195.045 147.772C191.885 154.426 179.692 155.342 175.202 161.057C170.69 166.8 172.506 179.073 166.854 183.657C161.228 188.218 149.86 183.708 143.31 186.918C136.869 190.073 133.276 201.948 126.136 203.596C119.221 205.195 110.927 196.114 103.539 196.114C96.1513 196.114 87.8572 205.19 80.9425 203.596C73.8023 201.948 70.2097 190.073 63.7683 186.918C57.2187 183.708 45.8504 188.218 40.2249 183.657C34.5723 179.073 36.3889 166.796 31.8767 161.057C27.3871 155.342 15.1939 154.426 12.034 147.772C8.92826 141.228 15.7889 130.984 14.1661 123.73C12.593 116.705 2 110.509 2 102.999C2 95.4927 12.5975 89.2921 14.1661 82.2671C15.7889 75.0132 8.92826 64.7688 12.034 58.2247C15.1939 51.5707 27.3871 50.6548 31.8767 44.9396C36.3889 39.1969 34.5723 26.9238 40.2249 22.3397C45.8504 17.7786 57.2187 22.2894 63.7683 19.0791C70.2097 15.9239 73.8023 4.04921 80.9425 2.40059C87.8572 0.802341 96.1513 9.88349 103.539 9.88349C110.927 9.88349 119.221 0.806921 126.136 2.40059C133.276 4.04921 136.869 15.9239 143.31 19.0791C149.86 22.2894 161.228 17.7786 166.854 22.3397C172.506 26.9238 170.69 39.2015 175.202 44.9396C179.692 50.6548 191.885 51.5707 195.045 58.2247C198.15 64.7688 191.29 75.0132 192.912 82.2671C194.481 89.2921 205.079 95.4927 205.079 102.999Z" stroke="#5FCAC7" stroke-width="2.7422" stroke-miterlimit="10"/>
</svg>
