<svg width="191" height="190" viewBox="0 0 191 190" fill="none" xmlns="http://www.w3.org/2000/svg">
<path d="M190.101 94.9985C190.101 101.991 180.234 107.762 178.769 114.306C177.259 121.06 183.646 130.6 180.752 136.695C177.809 142.891 166.454 143.743 162.275 149.064C158.074 154.413 159.765 165.843 154.5 170.111C149.262 174.361 138.673 170.157 132.574 173.148C126.575 176.088 123.23 187.147 116.581 188.681C110.14 190.17 102.418 181.716 95.5396 181.716C88.6564 181.716 80.9348 190.17 74.4979 188.681C67.8491 187.147 64.4999 176.088 58.5048 173.148C52.4059 170.157 41.8174 174.361 36.5796 170.111C31.3146 165.843 33.005 154.408 28.8039 149.064C24.6208 143.743 13.266 142.886 10.327 136.695C7.43309 130.6 13.8204 121.06 12.3104 114.306C10.8409 107.762 0.973633 101.991 0.973633 94.9985C0.973633 88.0056 10.8409 82.2354 12.3059 75.6913C13.8159 68.9366 7.42859 59.3975 10.3225 53.3022C13.266 47.1061 24.6208 46.2543 28.7993 40.9329C33.0005 35.5841 31.3101 24.1536 36.575 19.8855C41.8129 15.6357 52.4014 19.8397 58.5003 16.8493C64.4999 13.9093 67.8446 2.84978 74.4934 1.31564C80.9348 -0.172693 88.6564 8.28107 95.5351 8.28107C102.414 8.28107 110.14 -0.172693 116.577 1.31564C123.226 2.84978 126.575 13.9093 132.57 16.8493C138.669 19.8397 149.257 15.6357 154.495 19.8855C159.76 24.1536 158.07 35.5886 162.271 40.9329C166.454 46.2543 177.809 47.1107 180.748 53.3022C183.642 59.3975 177.254 68.9366 178.764 75.6913C180.234 82.2354 190.101 88.0056 190.101 94.9985Z" stroke="#1D1D1B" stroke-width="1.5" stroke-miterlimit="10" stroke-dasharray="13.71 13.71"/>
</svg>
