<svg width="96" height="14" viewBox="0 0 96 14" fill="none" xmlns="http://www.w3.org/2000/svg">
<path d="M2.47591 13.435H0.0527344L4.46412 0.898842H7.26633L11.6829 13.435H9.26054L5.91389 3.46983H5.81567L2.47591 13.435ZM2.5552 8.51965H9.16232V10.3434H2.5552V8.51965ZM16.4371 13.6005C15.6988 13.6005 15.0381 13.4109 14.4549 13.0308C13.8717 12.6516 13.4109 12.1008 13.0723 11.3786C12.7338 10.6563 12.5641 9.77888 12.5641 8.74633C12.5641 7.70172 12.7355 6.82003 13.0784 6.10122C13.4247 5.37895 13.8915 4.83419 14.479 4.46703C15.0665 4.09555 15.7212 3.91025 16.4431 3.91025C16.9936 3.91025 17.4466 4.00422 17.8016 4.19211C18.1565 4.37569 18.4373 4.59805 18.6457 4.8592C18.8533 5.11604 19.0145 5.35912 19.129 5.58752H19.2204V0.898842H21.4419V13.435H19.2634V11.9534H19.129C19.0145 12.1818 18.8499 12.4249 18.6337 12.6817C18.4175 12.9351 18.1315 13.1515 17.7766 13.3308C17.4217 13.5109 16.9755 13.6005 16.4371 13.6005ZM17.0547 11.7819C17.5242 11.7819 17.9239 11.6561 18.2538 11.4027C18.5846 11.1459 18.8353 10.7881 19.0067 10.3313C19.1781 9.87454 19.2634 9.34189 19.2634 8.73339C19.2634 8.12576 19.1781 7.59743 19.0067 7.14839C18.8396 6.69934 18.5906 6.3503 18.2598 6.10122C17.9342 5.85299 17.5319 5.72798 17.0547 5.72798C16.5611 5.72798 16.1494 5.8564 15.8194 6.11411C15.4887 6.37095 15.2397 6.72609 15.0726 7.17858C14.9055 7.63194 14.8219 8.14989 14.8219 8.73339C14.8219 9.3212 14.9055 9.84608 15.0726 10.3072C15.244 10.764 15.4947 11.1251 15.8254 11.3906C16.1597 11.6518 16.5697 11.7819 17.0547 11.7819ZM27.2893 13.6005C26.551 13.6005 25.8904 13.4109 25.3063 13.0308C24.7231 12.6516 24.2622 12.1008 23.9237 11.3786C23.5852 10.6563 23.4163 9.77888 23.4163 8.74633C23.4163 7.70172 23.5878 6.82003 23.9297 6.10122C24.2769 5.37895 24.7438 4.83419 25.3313 4.46703C25.9188 4.09555 26.5735 3.91025 27.2953 3.91025C27.8458 3.91025 28.298 4.00422 28.6529 4.19211C29.0078 4.37569 29.2895 4.59805 29.498 4.8592C29.7056 5.11604 29.8667 5.35912 29.9812 5.58752H30.0726V0.898842H32.2933V13.435H30.1156V11.9534H29.9812C29.8667 12.1818 29.7013 12.4249 29.4851 12.6817C29.2688 12.9351 28.9837 13.1515 28.6288 13.3308C28.2739 13.5109 27.8277 13.6005 27.2893 13.6005ZM27.907 11.7819C28.3756 11.7819 28.7752 11.6561 29.106 11.4027C29.436 11.1459 29.6875 10.7881 29.8589 10.3313C30.0295 9.87454 30.1156 9.34189 30.1156 8.73339C30.1156 8.12576 30.0295 7.59743 29.8589 7.14839C29.691 6.69934 29.4429 6.3503 29.1121 6.10122C28.7856 5.85299 28.3842 5.72798 27.907 5.72798C27.4134 5.72798 27.0016 5.8564 26.6708 6.11411C26.3409 6.37095 26.0919 6.72609 25.9248 7.17858C25.7577 7.63194 25.6741 8.14989 25.6741 8.73339C25.6741 9.3212 25.7577 9.84608 25.9248 10.3072C26.0962 10.764 26.3469 11.1251 26.6768 11.3906C27.0119 11.6518 27.4211 11.7819 27.907 11.7819ZM43.6194 4.03266V5.74697H38.2174V4.03266H43.6194ZM39.5508 1.77967H41.7656V10.6072C41.7656 10.9045 41.8104 11.1337 41.9008 11.2923C41.9947 11.4475 42.117 11.5535 42.2677 11.6112C42.4185 11.6681 42.5856 11.6966 42.7691 11.6966C42.9078 11.6966 43.0344 11.6863 43.1482 11.6656C43.267 11.6458 43.3566 11.6267 43.4178 11.6112L43.7908 13.3428C43.6727 13.3842 43.503 13.429 43.2834 13.4781C43.0672 13.5272 42.8018 13.5557 42.4874 13.5634C41.9327 13.5798 41.433 13.4962 40.9885 13.3126C40.544 13.1247 40.1918 12.8351 39.9307 12.443C39.6732 12.0517 39.5474 11.5621 39.5508 10.9743V1.77967ZM49.4701 13.6186C48.5527 13.6186 47.7568 13.4169 47.084 13.0127C46.4112 12.6085 45.8892 12.0431 45.5179 11.3174C45.151 10.5908 44.9675 9.74183 44.9675 8.77048C44.9675 7.79913 45.151 6.94841 45.5179 6.21753C45.8892 5.48751 46.4112 4.92039 47.084 4.51616C47.7568 4.11193 48.5527 3.91025 49.4701 3.91025C50.3876 3.91025 51.1835 4.11193 51.8563 4.51616C52.5291 4.92039 53.0494 5.48751 53.4163 6.21753C53.7876 6.94841 53.9728 7.79913 53.9728 8.77048C53.9728 9.74183 53.7876 10.5908 53.4163 11.3174C53.0494 12.0431 52.5291 12.6085 51.8563 13.0127C51.1835 13.4169 50.3876 13.6186 49.4701 13.6186ZM49.4822 11.8431C49.9801 11.8431 50.3962 11.7069 50.7304 11.4337C51.0647 11.1562 51.3136 10.7847 51.4764 10.3193C51.6444 9.85387 51.728 9.33586 51.728 8.76443C51.728 8.18869 51.6444 7.66899 51.4764 7.20357C51.3136 6.73384 51.0647 6.3606 50.7304 6.08307C50.3962 5.80554 49.9801 5.6668 49.4822 5.6668C48.9722 5.6668 48.5484 5.80554 48.2099 6.08307C47.8756 6.3606 47.6241 6.73384 47.457 7.20357C47.2942 7.66899 47.2124 8.18869 47.2124 8.76443C47.2124 9.33586 47.2942 9.85387 47.457 10.3193C47.6241 10.7847 47.8756 11.1562 48.2099 11.4337C48.5484 11.7069 48.9722 11.8431 49.4822 11.8431ZM70.949 5.12812H68.661C68.5955 4.7532 68.4758 4.42052 68.3001 4.13093C68.1243 3.83702 67.9064 3.58793 67.6454 3.38367C67.3844 3.1794 67.0863 3.02683 66.7521 2.92426C66.4222 2.81825 66.0647 2.76566 65.6814 2.76566C65 2.76566 64.3969 2.93718 63.8706 3.27935C63.3443 3.61807 62.9325 4.11627 62.6344 4.77303C62.3372 5.42635 62.1882 6.22444 62.1882 7.16648C62.1882 8.12576 62.3372 8.93335 62.6344 9.59097C62.9368 10.2434 63.3486 10.7373 63.8706 11.0726C64.3969 11.4027 64.9982 11.5681 65.6753 11.5681C66.0509 11.5681 66.4015 11.5191 66.728 11.4208C67.0579 11.3191 67.3533 11.17 67.6143 10.9743C67.8797 10.7787 68.1019 10.5373 68.282 10.2521C68.4655 9.96591 68.5912 9.6401 68.661 9.27207L70.949 9.28501C70.8637 9.88058 70.6776 10.4399 70.3925 10.9622C70.1108 11.4845 69.7421 11.9457 69.2847 12.3456C68.8281 12.7412 68.2941 13.0515 67.6824 13.2756C67.07 13.4962 66.3911 13.6065 65.6451 13.6065C64.5434 13.6065 63.5605 13.3514 62.6956 12.8412C61.8308 12.3309 61.1502 11.5949 60.6523 10.6313C60.1544 9.66856 59.9063 8.51362 59.9063 7.16648C59.9063 5.8159 60.157 4.66095 60.6583 3.70167C61.1605 2.73894 61.8437 2.00205 62.7077 1.49181C63.5726 0.982435 64.552 0.727295 65.6451 0.727295C66.342 0.727295 66.9907 0.824691 67.5903 1.0212C68.1898 1.21685 68.7239 1.50475 69.1934 1.88399C69.662 2.25977 70.0479 2.72086 70.3494 3.2673C70.6552 3.81029 70.8551 4.43085 70.949 5.12812ZM75.6342 13.6246C75.0381 13.6246 74.5023 13.5186 74.0251 13.3066C73.5522 13.0903 73.1766 12.7722 72.8992 12.3516C72.6261 11.931 72.4892 11.413 72.4892 10.7968C72.4892 10.2659 72.5874 9.82713 72.7829 9.48065C72.9784 9.13331 73.2463 8.85664 73.584 8.64807C73.9226 8.44035 74.3042 8.28263 74.7289 8.17661C75.157 8.06629 75.5998 7.98702 76.0563 7.93789C76.6068 7.88101 77.053 7.83015 77.3959 7.78533C77.7387 7.73621 77.9877 7.66296 78.1427 7.56471C78.3012 7.463 78.3813 7.30528 78.3813 7.09325V7.05617C78.3813 6.59506 78.2444 6.23823 77.9713 5.9857C77.6982 5.7323 77.3046 5.60562 76.7903 5.60562C76.2476 5.60562 75.8177 5.72455 75.4998 5.96071C75.1854 6.19773 74.9735 6.477 74.8633 6.79935L72.795 6.50544C72.9587 5.93401 73.2274 5.45648 73.603 5.07294C73.9777 4.68509 74.4368 4.3955 74.9795 4.20416C75.5222 4.00764 76.1218 3.91025 76.7782 3.91025C77.2304 3.91025 77.6819 3.96282 78.1298 4.0697C78.5786 4.17571 78.9886 4.35071 79.3599 4.59549C79.7312 4.83682 80.0292 5.16518 80.2532 5.58148C80.4815 5.99777 80.596 6.51747 80.596 7.14234V13.435H78.4666V12.143H78.3934C78.259 12.4042 78.0686 12.6498 77.824 12.8782C77.5836 13.1023 77.2796 13.2842 76.9126 13.423C76.5499 13.5574 76.1235 13.6246 75.6342 13.6246ZM76.2088 11.9965C76.6533 11.9965 77.0392 11.9086 77.3657 11.7336C77.6913 11.5535 77.9428 11.3174 78.1177 11.0235C78.2977 10.7296 78.3874 10.4089 78.3874 10.0624V8.95407C78.3176 9.01096 78.1995 9.06439 78.0324 9.11352C77.8688 9.16265 77.6853 9.20487 77.482 9.24193C77.2778 9.27899 77.0763 9.31089 76.8764 9.3402C76.6766 9.36864 76.5025 9.39274 76.3561 9.41342C76.0253 9.45824 75.7299 9.53151 75.4689 9.63321C75.2079 9.73577 75.0019 9.87884 74.8512 10.0624C74.6996 10.2417 74.6246 10.4744 74.6246 10.7597C74.6246 11.1682 74.7737 11.4759 75.0709 11.6845C75.3689 11.8922 75.7479 11.9965 76.2088 11.9965ZM82.8228 13.435V4.03266H84.9704V5.59957H85.0677C85.2392 5.05658 85.5329 4.63857 85.9489 4.34467C86.3693 4.04645 86.8483 3.8982 87.3867 3.8982C87.509 3.8982 87.646 3.90423 87.7967 3.9163C87.9518 3.92406 88.0801 3.9387 88.1826 3.95938V5.99774C88.0887 5.96499 87.9397 5.93657 87.7356 5.91158C87.5357 5.88313 87.3419 5.86933 87.1541 5.86933C86.751 5.86933 86.3874 5.95638 86.0652 6.1322C85.7474 6.30372 85.4967 6.54246 85.3132 6.84843C85.1289 7.1544 85.0376 7.50778 85.0376 7.90769V13.435H82.8228ZM94.8509 4.03266V5.74697H89.449V4.03266H94.8509ZM90.7824 1.77967H92.9971V10.6072C92.9971 10.9045 93.0419 11.1337 93.1315 11.2923C93.2254 11.4475 93.3478 11.5535 93.4985 11.6112C93.6501 11.6681 93.8172 11.6966 94.0007 11.6966C94.1394 11.6966 94.266 11.6863 94.3797 11.6656C94.4978 11.6458 94.5882 11.6267 94.6494 11.6112L95.0223 13.3428C94.9043 13.3842 94.7346 13.429 94.5141 13.4781C94.2979 13.5272 94.0334 13.5557 93.719 13.5634C93.1643 13.5798 92.6646 13.4962 92.2201 13.3126C91.7756 13.1247 91.4225 12.8351 91.1614 12.443C90.9047 12.0517 90.7781 11.5621 90.7824 10.9743V1.77967Z" fill="black"/>
</svg>
