<svg width="31" height="17" viewBox="0 0 31 17" fill="none" xmlns="http://www.w3.org/2000/svg">
<path d="M0.624023 13.1583V10.9915L7.00375 0.905648H8.81017V3.99123H7.70839L3.41333 10.801V10.9182H12.3188V13.1583H0.624023ZM7.79627 15.95V12.4972L7.8264 11.5276V0.905648H10.396V15.95H7.79627ZM15.9074 16.112C15.4621 16.112 15.0805 15.9551 14.7618 15.6414C14.4439 15.3277 14.2871 14.9459 14.2923 14.4951C14.2871 14.0547 14.4439 13.678 14.7618 13.3643C15.0805 13.0506 15.4621 12.8946 15.9074 12.8946C16.3382 12.8946 16.7129 13.0506 17.0308 13.3643C17.3538 13.678 17.5174 14.0547 17.5226 14.4951C17.5174 14.7942 17.439 15.0656 17.2874 15.3113C17.141 15.556 16.9455 15.7517 16.7 15.8982C16.4605 16.0405 16.196 16.112 15.9074 16.112ZM25.235 0.700539C25.9543 0.704848 26.6546 0.832402 27.3351 1.08235C28.0199 1.32713 28.6367 1.72878 29.1846 2.28728C29.7333 2.84061 30.1683 3.58268 30.4914 4.51266C30.8144 5.4435 30.9764 6.59416 30.9764 7.96542C30.9815 9.25826 30.8437 10.414 30.5655 11.4328C30.2907 12.4463 29.897 13.3031 29.3827 14.003C28.8693 14.7037 28.2499 15.2372 27.5255 15.6043C26.801 15.9724 25.9861 16.156 25.0808 16.156C24.1315 16.156 23.2899 15.9698 22.5551 15.5974C21.8263 15.2251 21.2362 14.7157 20.7857 14.0693C20.336 13.4229 20.0595 12.6834 19.9562 11.8508H22.636C22.773 12.4481 23.0521 12.9239 23.4733 13.2764C23.8989 13.6237 24.4347 13.7978 25.0808 13.7978C26.1231 13.7978 26.9259 13.3445 27.4893 12.4386C28.0518 11.5328 28.3335 10.2744 28.3335 8.66266H28.2301C27.9907 9.0936 27.6797 9.46596 27.2981 9.77969C26.9165 10.0882 26.4832 10.3253 25.9982 10.4925C25.5192 10.6588 25.0101 10.7415 24.4718 10.7415C23.5905 10.7415 22.798 10.5312 22.0925 10.1098C21.393 9.68918 20.8374 9.11087 20.4265 8.37654C20.0199 7.64221 19.814 6.80183 19.8097 5.8572C19.8097 4.87723 20.0345 3.99897 20.4851 3.21982C20.9399 2.43636 21.5739 1.81924 22.3862 1.36847C23.1985 0.913394 24.1487 0.690196 25.235 0.700539ZM25.2427 2.9044C24.7138 2.9044 24.2366 3.03367 23.811 3.2931C23.3898 3.54822 23.0573 3.89556 22.8126 4.33685C22.5723 4.7721 22.4525 5.25992 22.4525 5.7986C22.4577 6.33211 22.5775 6.8165 22.8126 7.25262C23.0521 7.68873 23.3777 8.03351 23.7886 8.28863C24.2047 8.54289 24.6793 8.67044 25.2134 8.67044C25.6097 8.67044 25.9792 8.59456 26.3212 8.44287C26.6641 8.29118 26.963 8.08004 27.2171 7.81113C27.4764 7.53705 27.6771 7.2259 27.8192 6.8777C27.9665 6.53036 28.0372 6.16318 28.032 5.77619C28.032 5.26164 27.9097 4.78678 27.6651 4.35152C27.4256 3.91541 27.0948 3.56543 26.6744 3.30083C26.2583 3.03623 25.7811 2.9044 25.2427 2.9044Z" fill="#454545"/>
</svg>
