<svg width="208" height="19" viewBox="0 0 208 19" fill="none" xmlns="http://www.w3.org/2000/svg">
<path d="M5.30834 14.6843H0.637695V0.894033H5.40225C6.77105 0.894033 7.94689 1.16984 8.92892 1.72231C9.91611 2.26961 10.6742 3.05738 11.2039 4.08561C11.7329 5.11385 11.9982 6.34377 11.9982 7.77537C11.9982 9.21214 11.7311 10.4464 11.197 11.4789C10.6673 12.5115 9.90232 13.3035 8.90221 13.856C7.9064 14.4085 6.70816 14.6843 5.30834 14.6843ZM3.13496 12.5227H5.18689C6.14738 12.5227 6.94851 12.3477 7.58941 11.9978C8.23117 11.6427 8.71356 11.1152 9.0366 10.4153C9.35963 9.7103 9.52157 8.83032 9.52157 7.77537C9.52157 6.72042 9.35963 5.8456 9.0366 5.14919C8.71356 4.44934 8.23547 3.92617 7.60318 3.58055C6.9752 3.23062 6.19476 3.05565 5.26097 3.05565H3.13496V12.5227ZM18.8387 14.886C17.8024 14.886 16.9075 14.6705 16.1537 14.2395C15.4043 13.8043 14.8279 13.1897 14.4239 12.3951C14.0199 11.5961 13.8184 10.6558 13.8184 9.57327C13.8184 8.5097 14.0199 7.57627 14.4239 6.77213C14.8322 5.96454 15.4016 5.33621 16.133 4.88717C16.8644 4.43381 17.7241 4.20713 18.7113 4.20713C19.3479 4.20713 19.9491 4.31057 20.5142 4.51656C21.0845 4.71824 21.5867 5.03283 22.0217 5.45946C22.4619 5.8861 22.8073 6.4291 23.058 7.08845C23.3095 7.74434 23.4354 8.52521 23.4354 9.43192V10.1792H14.9623V8.53642H21.1C21.0957 8.07013 20.9949 7.6547 20.7968 7.29098C20.5995 6.92295 20.3239 6.63336 19.9698 6.4222C19.6192 6.21103 19.2109 6.10588 18.7449 6.10588C18.247 6.10588 17.8093 6.22654 17.432 6.46959C17.0556 6.70748 16.7619 7.02122 16.5508 7.41165C16.3441 7.79778 16.239 8.22268 16.2347 8.68466V10.1188C16.2347 10.7204 16.344 11.2367 16.5637 11.6677C16.7842 12.0943 17.0909 12.4218 17.4863 12.6511C17.8809 12.8752 18.3434 12.9872 18.8723 12.9872C19.2272 12.9872 19.5477 12.9381 19.8345 12.839C20.1223 12.7364 20.3712 12.5856 20.5814 12.3882C20.7925 12.1908 20.9518 11.9461 21.0595 11.6539L23.3346 11.9099C23.1907 12.5115 22.9168 13.0372 22.5136 13.4854C22.1139 13.9301 21.6022 14.2757 20.9785 14.5222C20.3548 14.7653 19.6416 14.886 18.8387 14.886ZM33.6665 7.07551L31.4457 7.3177C31.3828 7.09361 31.2726 6.88244 31.1158 6.68507C30.9633 6.48769 30.7566 6.32825 30.4964 6.20672C30.2363 6.0852 29.9175 6.02487 29.5411 6.02487C29.0337 6.02487 28.6082 6.13518 28.2619 6.35497C27.9216 6.57475 27.7528 6.86004 27.7579 7.20997C27.7528 7.51076 27.863 7.75553 28.087 7.94429C28.3162 8.13218 28.6926 8.28732 29.2181 8.40885L30.9814 8.7855C31.9591 8.99667 32.6862 9.33108 33.1617 9.78874C33.6415 10.2473 33.8844 10.8463 33.8887 11.5866C33.8844 12.2374 33.6932 12.8123 33.3167 13.3104C32.9437 13.8043 32.426 14.1904 31.7619 14.4688C31.0977 14.7472 30.3353 14.886 29.4739 14.886C28.2085 14.886 27.1903 14.6214 26.4184 14.0913C25.6466 13.5578 25.1866 12.8148 25.0384 11.8633L27.4142 11.634C27.5219 12.1012 27.7511 12.4528 28.1008 12.6907C28.4505 12.9295 28.9062 13.0484 29.467 13.0484C30.0459 13.0484 30.5102 12.9295 30.8599 12.6907C31.2148 12.4528 31.3914 12.1589 31.3914 11.809C31.3914 11.5125 31.2769 11.2678 31.0486 11.0747C30.8238 10.8825 30.474 10.7342 29.9985 10.6308L28.2352 10.2602C27.2437 10.0542 26.5106 9.706 26.0351 9.21645C25.5587 8.72258 25.3236 8.09858 25.3279 7.34443C25.3236 6.70749 25.4967 6.15502 25.8464 5.68787C26.2005 5.21728 26.6924 4.85355 27.3203 4.59757C27.9526 4.33728 28.6814 4.20713 29.5075 4.20713C30.7187 4.20713 31.6723 4.46485 32.3674 4.98112C33.0678 5.49739 33.5002 6.19552 33.6665 7.07551ZM40.4063 14.886C39.3743 14.886 38.4888 14.6593 37.7479 14.2059C37.0123 13.7526 36.4446 13.1268 36.0457 12.3279C35.6503 11.5237 35.4531 10.5989 35.4531 9.55344C35.4531 8.5028 35.6555 7.57627 36.0587 6.77213C36.4627 5.96454 37.0321 5.33621 37.7686 4.88717C38.5086 4.43381 39.3838 4.20713 40.3934 4.20713C41.2315 4.20713 41.9741 4.36141 42.6202 4.67169C43.2714 4.9768 43.7891 5.41033 44.175 5.97142C44.5609 6.52734 44.7806 7.17894 44.8349 7.92361H42.5064C42.4117 7.42544 42.1877 7.01 41.8328 6.67818C41.4831 6.34118 41.0144 6.17311 40.4269 6.17311C39.9282 6.17311 39.4915 6.30756 39.1141 6.57733C38.7377 6.84193 38.4431 7.22375 38.2329 7.72192C38.0262 8.2201 37.9228 8.81739 37.9228 9.51293C37.9228 10.218 38.0262 10.8239 38.2329 11.3307C38.4388 11.834 38.7282 12.2219 39.1012 12.4959C39.4777 12.7648 39.9196 12.9002 40.4269 12.9002C40.7853 12.9002 41.1066 12.8329 41.3892 12.6976C41.676 12.5589 41.9164 12.3589 42.1093 12.0986C42.3023 11.8383 42.4341 11.522 42.5064 11.1488H44.8349C44.7763 11.8806 44.5609 12.5296 44.1888 13.095C43.8158 13.656 43.3093 14.0965 42.6675 14.4145C42.0258 14.7291 41.272 14.886 40.4063 14.886ZM46.8351 14.6843V4.34159H49.1971V6.06537H49.3048C49.4934 5.46808 49.8165 5.00784 50.2739 4.68463C50.7365 4.35712 51.2637 4.19335 51.8555 4.19335C51.9898 4.19335 52.1406 4.20023 52.3069 4.21402C52.4774 4.22264 52.6187 4.23817 52.7307 4.26058V6.50321C52.6273 6.46701 52.4636 6.43599 52.2388 6.40841C52.0191 6.37739 51.8064 6.36186 51.5996 6.36186C51.156 6.36186 50.7563 6.45839 50.4023 6.65145C50.0517 6.83934 49.776 7.10222 49.5744 7.43922C49.372 7.77536 49.2712 8.16408 49.2712 8.60365V14.6843H46.8351ZM54.3493 14.6843V4.34159H56.7854V14.6843H54.3493ZM55.5742 2.87379C55.1883 2.87379 54.8558 2.74536 54.5776 2.49024C54.2994 2.22909 54.1607 1.91709 54.1607 1.55423C54.1607 1.18621 54.2994 0.874203 54.5776 0.618222C54.8558 0.357931 55.1883 0.227783 55.5742 0.227783C55.9645 0.227783 56.2961 0.357931 56.5701 0.618222C56.8483 0.874203 56.987 1.18621 56.987 1.55423C56.987 1.91709 56.8483 2.22909 56.5701 2.49024C56.2961 2.74536 55.9645 2.87379 55.5742 2.87379ZM59.2905 18.5628V4.34159H61.6861V6.05159H61.8274C61.9531 5.80078 62.1306 5.53358 62.3597 5.25088C62.588 4.96301 62.8981 4.71824 63.2883 4.51656C63.6786 4.31057 64.1765 4.20713 64.7821 4.20713C65.5806 4.20713 66.3007 4.4114 66.9425 4.81994C67.5886 5.2233 68.1003 5.82317 68.4767 6.61784C68.8583 7.40733 69.0487 8.37695 69.0487 9.52672C69.0487 10.6618 68.8626 11.6271 68.4905 12.4218C68.1175 13.2165 67.611 13.8224 66.9692 14.2395C66.3274 14.6576 65.6013 14.8661 64.7889 14.8661C64.1963 14.8661 63.7053 14.767 63.315 14.5696C62.9248 14.3723 62.6104 14.1344 62.3726 13.856C62.1392 13.5733 61.9574 13.3061 61.8274 13.0544H61.7266V18.5628H59.2905ZM61.6792 9.51293C61.6792 10.1818 61.7739 10.7678 61.9626 11.2703C62.1556 11.7728 62.4312 12.1658 62.7904 12.4485C63.1531 12.7269 63.5933 12.8665 64.1093 12.8665C64.6477 12.8665 65.0982 12.7226 65.4617 12.4356C65.8252 12.1434 66.0992 11.7461 66.2827 11.2436C66.4713 10.736 66.5652 10.1594 66.5652 9.51293C66.5652 8.87082 66.4739 8.30111 66.2895 7.80294C66.1052 7.3039 65.8321 6.91348 65.4686 6.63078C65.1051 6.34808 64.652 6.20672 64.1093 6.20672C63.589 6.20672 63.1471 6.34376 62.7835 6.61784C62.42 6.89106 62.1444 7.27546 61.9557 7.76932C61.7714 8.26232 61.6792 8.84411 61.6792 9.51293ZM76.2967 4.34159V6.22656H70.3546V4.34159H76.2967ZM71.8216 1.86366H74.2577V11.5737C74.2577 11.9012 74.3068 12.1529 74.4059 12.3279C74.5093 12.4985 74.6436 12.6149 74.8099 12.6778C74.9753 12.7407 75.1596 12.7717 75.3612 12.7717C75.5137 12.7717 75.6532 12.7605 75.779 12.7381C75.9091 12.7157 76.0073 12.6959 76.0745 12.6778L76.4854 14.5834C76.3553 14.6282 76.1692 14.6774 75.9272 14.7317C75.6885 14.7851 75.3974 14.817 75.052 14.8256C74.4421 14.8437 73.8925 14.7515 73.4032 14.5498C72.9139 14.343 72.5263 14.0241 72.2386 13.5931C71.956 13.1622 71.8173 12.6235 71.8216 11.9771V1.86366ZM78.334 14.6843V4.34159H80.771V14.6843H78.334ZM79.5589 2.87379C79.173 2.87379 78.8414 2.74536 78.5631 2.49024C78.2849 2.22909 78.1462 1.91709 78.1462 1.55423C78.1462 1.18621 78.2849 0.874203 78.5631 0.618222C78.8414 0.357931 79.173 0.227783 79.5589 0.227783C79.9492 0.227783 80.2817 0.357931 80.5556 0.618222C80.833 0.874203 80.9725 1.18621 80.9725 1.55423C80.9725 1.91709 80.833 2.22909 80.5556 2.49024C80.2817 2.74536 79.9492 2.87379 79.5589 2.87379ZM87.7847 14.886C86.7751 14.886 85.9008 14.6644 85.1599 14.2197C84.42 13.775 83.8454 13.1536 83.4371 12.3546C83.0339 11.5556 82.8315 10.6213 82.8315 9.55344C82.8315 8.4847 83.0339 7.54869 83.4371 6.74541C83.8454 5.94212 84.42 5.31812 85.1599 4.87338C85.9008 4.42951 86.7751 4.20713 87.7847 4.20713C88.7943 4.20713 89.6695 4.42951 90.4095 4.87338C91.1494 5.31812 91.7214 5.94212 92.1254 6.74541C92.5337 7.54869 92.7379 8.4847 92.7379 9.55344C92.7379 10.6213 92.5337 11.5556 92.1254 12.3546C91.7214 13.1536 91.1494 13.775 90.4095 14.2197C89.6695 14.6644 88.7943 14.886 87.7847 14.886ZM87.7985 12.9338C88.3455 12.9338 88.8029 12.7829 89.1716 12.4822C89.5394 12.177 89.8125 11.7685 89.9925 11.2565C90.176 10.7454 90.2682 10.1749 90.2682 9.54655C90.2682 8.91392 90.176 8.34162 89.9925 7.82966C89.8125 7.31339 89.5394 6.90227 89.1716 6.59716C88.8029 6.29205 88.3455 6.13949 87.7985 6.13949C87.2377 6.13949 86.7708 6.29205 86.3987 6.59716C86.0308 6.90227 85.7543 7.31339 85.5708 7.82966C85.3908 8.34162 85.3012 8.91392 85.3012 9.54655C85.3012 10.1749 85.3908 10.7454 85.5708 11.2565C85.7543 11.7685 86.0308 12.177 86.3987 12.4822C86.7708 12.7829 87.2377 12.9338 87.7985 12.9338ZM97.2423 8.62432V14.6843H94.8062V4.34159H97.1346V6.09899H97.2552C97.4929 5.5198 97.872 5.05956 98.3932 4.71825C98.9178 4.3778 99.5664 4.20713 100.337 4.20713C101.051 4.20713 101.673 4.35969 102.201 4.6648C102.736 4.96991 103.148 5.41206 103.44 5.99125C103.737 6.57044 103.882 7.27289 103.878 8.09858V14.6843H101.442V8.47608C101.442 7.78484 101.262 7.24358 100.903 6.85314C100.548 6.46271 100.057 6.26706 99.4295 6.26706C99.0031 6.26706 98.624 6.36187 98.2915 6.54977C97.9641 6.73421 97.7066 7.00139 97.518 7.35132C97.3336 7.70124 97.2423 8.12615 97.2423 8.62432ZM115.564 14.886C114.554 14.886 113.68 14.6644 112.939 14.2197C112.199 13.775 111.625 13.1536 111.216 12.3546C110.813 11.5556 110.611 10.6213 110.611 9.55344C110.611 8.4847 110.813 7.54869 111.216 6.74541C111.625 5.94212 112.199 5.31812 112.939 4.87338C113.68 4.42951 114.554 4.20713 115.564 4.20713C116.574 4.20713 117.449 4.42951 118.189 4.87338C118.929 5.31812 119.502 5.94212 119.905 6.74541C120.313 7.54869 120.517 8.4847 120.517 9.55344C120.517 10.6213 120.313 11.5556 119.905 12.3546C119.502 13.1536 118.929 13.775 118.189 14.2197C117.449 14.6644 116.574 14.886 115.564 14.886ZM115.578 12.9338C116.125 12.9338 116.582 12.7829 116.951 12.4822C117.319 12.177 117.592 11.7685 117.772 11.2565C117.955 10.7454 118.047 10.1749 118.047 9.54655C118.047 8.91392 117.955 8.34162 117.772 7.82966C117.592 7.31339 117.319 6.90227 116.951 6.59716C116.582 6.29205 116.125 6.13949 115.578 6.13949C115.017 6.13949 114.55 6.29205 114.178 6.59716C113.81 6.90227 113.534 7.31339 113.35 7.82966C113.171 8.34162 113.08 8.91392 113.08 9.54655C113.08 10.1749 113.171 10.7454 113.35 11.2565C113.534 11.7685 113.81 12.177 114.178 12.4822C114.55 12.7829 115.017 12.9338 115.578 12.9338ZM127.821 4.34159V6.22656H121.71V4.34159H127.821ZM123.238 14.6843V3.36508C123.238 2.66953 123.381 2.09033 123.668 1.62835C123.96 1.16552 124.35 0.819919 124.84 0.590657C125.328 0.362256 125.872 0.247616 126.468 0.247616C126.89 0.247616 127.265 0.281233 127.592 0.34846C127.919 0.415688 128.162 0.476881 128.319 0.530318L127.834 2.41612C127.732 2.38423 127.601 2.35322 127.444 2.32133C127.287 2.28599 127.112 2.26788 126.919 2.26788C126.466 2.26788 126.145 2.37734 125.957 2.59798C125.773 2.81345 125.681 3.12287 125.681 3.5271V14.6843H123.238ZM139.592 4.34159V6.22656H133.649V4.34159H139.592ZM135.116 1.86366H137.553V11.5737C137.553 11.9012 137.602 12.1529 137.7 12.3279C137.803 12.4985 137.938 12.6149 138.104 12.6778C138.27 12.7407 138.454 12.7717 138.656 12.7717C138.809 12.7717 138.947 12.7605 139.073 12.7381C139.203 12.7157 139.302 12.6959 139.369 12.6778L139.78 14.5834C139.649 14.6282 139.463 14.6774 139.221 14.7317C138.984 14.7851 138.692 14.817 138.346 14.8256C137.736 14.8437 137.187 14.7515 136.697 14.5498C136.209 14.343 135.82 14.0241 135.534 13.5931C135.251 13.1622 135.111 12.6235 135.116 11.9771V1.86366ZM144.287 8.62432V14.6843H141.851V0.894033H144.233V6.09899H144.355C144.597 5.51549 144.971 5.05525 145.479 4.71825C145.99 4.3778 146.641 4.20713 147.43 4.20713C148.148 4.20713 148.774 4.35711 149.308 4.65791C149.842 4.95871 150.254 5.39914 150.546 5.97747C150.842 6.55666 150.99 7.26427 150.99 8.09858V14.6843H148.554V8.47608C148.554 7.78053 148.375 7.23927 148.016 6.85314C147.662 6.46271 147.163 6.26706 146.522 6.26706C146.091 6.26706 145.705 6.36187 145.364 6.54977C145.027 6.73421 144.763 7.00139 144.57 7.35132C144.381 7.70124 144.287 8.12615 144.287 8.62432ZM158.049 14.886C157.013 14.886 156.118 14.6705 155.364 14.2395C154.616 13.8043 154.039 13.1897 153.635 12.3951C153.231 11.5961 153.029 10.6558 153.029 9.57327C153.029 8.5097 153.231 7.57627 153.635 6.77213C154.043 5.96454 154.613 5.33621 155.345 4.88717C156.076 4.43381 156.935 4.20713 157.922 4.20713C158.559 4.20713 159.161 4.31057 159.726 4.51656C160.295 4.71824 160.798 5.03283 161.233 5.45946C161.673 5.8861 162.018 6.4291 162.27 7.08845C162.521 7.74434 162.646 8.52521 162.646 9.43192V10.1792H154.174V8.53642H160.312C160.306 8.07013 160.206 7.6547 160.008 7.29098C159.811 6.92295 159.535 6.63336 159.181 6.4222C158.831 6.21103 158.422 6.10588 157.956 6.10588C157.458 6.10588 157.02 6.22654 156.644 6.46959C156.266 6.70748 155.973 7.02122 155.762 7.41165C155.556 7.79778 155.45 8.22268 155.445 8.68466V10.1188C155.445 10.7204 155.556 11.2367 155.775 11.6677C155.995 12.0943 156.302 12.4218 156.697 12.6511C157.092 12.8752 157.554 12.9872 158.084 12.9872C158.438 12.9872 158.758 12.9381 159.046 12.839C159.333 12.7364 159.582 12.5856 159.793 12.3882C160.004 12.1908 160.163 11.9461 160.271 11.6539L162.545 11.9099C162.402 12.5115 162.128 13.0372 161.724 13.4854C161.325 13.9301 160.814 14.2757 160.19 14.5222C159.566 14.7653 158.853 14.886 158.049 14.886ZM169.408 14.6843V4.34159H171.844V14.6843H169.408ZM170.633 2.87379C170.247 2.87379 169.916 2.74536 169.637 2.49024C169.359 2.22909 169.22 1.91709 169.22 1.55423C169.22 1.18621 169.359 0.874203 169.637 0.618222C169.916 0.357931 170.247 0.227783 170.633 0.227783C171.023 0.227783 171.355 0.357931 171.629 0.618222C171.907 0.874203 172.047 1.18621 172.047 1.55423C172.047 1.91709 171.907 2.22909 171.629 2.49024C171.355 2.74536 171.023 2.87379 170.633 2.87379ZM179.512 4.34159V6.22656H173.569V4.34159H179.512ZM175.036 1.86366H177.472V11.5737C177.472 11.9012 177.522 12.1529 177.62 12.3279C177.724 12.4985 177.858 12.6149 178.024 12.6778C178.19 12.7407 178.374 12.7717 178.576 12.7717C178.729 12.7717 178.868 12.7605 178.993 12.7381C179.123 12.7157 179.222 12.6959 179.29 12.6778L179.7 14.5834C179.57 14.6282 179.384 14.6774 179.141 14.7317C178.904 14.7851 178.612 14.817 178.266 14.8256C177.656 14.8437 177.107 14.7515 176.617 14.5498C176.128 14.343 175.741 14.0241 175.454 13.5931C175.171 13.1622 175.032 12.6235 175.036 11.9771V1.86366ZM186.014 14.886C184.978 14.886 184.083 14.6705 183.329 14.2395C182.579 13.8043 182.003 13.1897 181.599 12.3951C181.196 11.5961 180.994 10.6558 180.994 9.57327C180.994 8.5097 181.196 7.57627 181.599 6.77213C182.007 5.96454 182.578 5.33621 183.309 4.88717C184.04 4.43381 184.899 4.20713 185.886 4.20713C186.524 4.20713 187.124 4.31057 187.69 4.51656C188.26 4.71824 188.762 5.03283 189.198 5.45946C189.637 5.8861 189.983 6.4291 190.234 7.08845C190.485 7.74434 190.611 8.52521 190.611 9.43192V10.1792H182.138V8.53642H188.275C188.271 8.07013 188.17 7.6547 187.973 7.29098C187.776 6.92295 187.499 6.63336 187.145 6.4222C186.795 6.21103 186.387 6.10588 185.92 6.10588C185.422 6.10588 184.985 6.22654 184.608 6.46959C184.231 6.70748 183.937 7.02122 183.726 7.41165C183.52 7.79778 183.414 8.22268 183.41 8.68466V10.1188C183.41 10.7204 183.52 11.2367 183.74 11.6677C183.959 12.0943 184.267 12.4218 184.661 12.6511C185.056 12.8752 185.519 12.9872 186.048 12.9872C186.402 12.9872 186.723 12.9381 187.011 12.839C187.297 12.7364 187.546 12.5856 187.757 12.3882C187.969 12.1908 188.128 11.9461 188.236 11.6539L190.51 11.9099C190.366 12.5115 190.093 13.0372 189.689 13.4854C189.289 13.9301 188.778 14.2757 188.155 14.5222C187.531 14.7653 186.818 14.886 186.014 14.886ZM192.672 14.6843V4.34159H195V6.09899H195.122C195.337 5.50687 195.694 5.04403 196.192 4.7122C196.69 4.3752 197.284 4.20713 197.975 4.20713C198.675 4.20713 199.265 4.3778 199.745 4.71825C200.229 5.05525 200.57 5.51549 200.768 6.09899H200.875C201.104 5.52411 201.49 5.06645 202.033 4.72514C202.581 4.37952 203.229 4.20713 203.978 4.20713C204.929 4.20713 205.705 4.50793 206.307 5.10953C206.908 5.71113 207.208 6.58855 207.208 7.74176V14.6843H204.765V8.11925C204.765 7.47714 204.595 7.00828 204.254 6.71179C203.913 6.41099 203.496 6.26101 203.002 6.26101C202.415 6.26101 201.955 6.44461 201.623 6.81263C201.295 7.17635 201.131 7.65038 201.131 8.23388V14.6843H198.742V8.01841C198.742 7.48404 198.58 7.05741 198.257 6.73851C197.939 6.41961 197.522 6.26101 197.006 6.26101C196.656 6.26101 196.337 6.35066 196.05 6.52993C195.763 6.7049 195.534 6.95399 195.364 7.27719C195.193 7.59609 195.108 7.96843 195.108 8.39506V14.6843H192.672Z" fill="#555555"/>
</svg>
