<svg width="71" height="20" viewBox="0 0 71 20" fill="none" xmlns="http://www.w3.org/2000/svg">
<path d="M0.374956 19.1214V16.6607L6.89937 10.2603C7.52391 9.63026 8.04422 9.07005 8.46029 8.5805C8.87549 8.09095 9.18819 7.61604 9.39579 7.15752C9.60426 6.69813 9.70763 6.20856 9.70763 5.68798C9.70763 5.09414 9.57323 4.58648 9.30447 4.16416C9.03484 3.73493 8.66442 3.40483 8.19409 3.17212C7.72289 2.93941 7.18709 2.82308 6.58754 2.82308C5.96989 2.82308 5.42805 2.9515 4.96374 3.20921C4.49857 3.46002 4.13764 3.81768 3.88007 4.2831C3.6294 4.74852 3.50451 5.30269 3.50451 5.9448H0.264648C0.264648 4.75108 0.536857 3.71426 1.08128 2.83255C1.6257 1.95084 2.37518 1.26819 3.32964 0.784667C4.29013 0.301147 5.39186 0.0598145 6.63317 0.0598145C7.8943 0.0598145 9.00123 0.295117 9.95569 0.766571C10.9101 1.23802 11.6501 1.88362 12.1764 2.70414C12.7088 3.5238 12.975 4.46063 12.975 5.51386C12.975 6.21716 12.8406 6.90929 12.571 7.58846C12.3022 8.26849 11.8276 9.0209 11.1488 9.84745C10.476 10.674 9.53016 11.6747 8.31296 12.8503L5.07315 16.1461V16.2746H13.2593V19.1214H0.374956ZM23.3087 19.3782C22.4094 19.3722 21.5316 19.2162 20.6745 18.9102C19.8182 18.5982 19.0472 18.0932 18.3624 17.395C17.6767 16.6909 17.1322 15.7574 16.7282 14.5947C16.3242 13.4252 16.1261 11.978 16.1321 10.2517C16.1321 8.64166 16.3036 7.20575 16.6456 5.9448C16.9884 4.68386 17.4811 3.61859 18.1238 2.7498C18.7655 1.87412 19.5399 1.207 20.4453 0.748474C21.3567 0.289087 22.3757 0.0598145 23.5007 0.0598145C24.6818 0.0598145 25.7284 0.291681 26.6398 0.757101C27.5572 1.22252 28.2981 1.85946 28.8606 2.66705C29.4231 3.46861 29.7719 4.37533 29.9072 5.3846H26.5571C26.3857 4.66234 26.0342 4.08745 25.5018 3.65909C24.9755 3.22383 24.3088 3.00662 23.5007 3.00662C22.1983 3.00662 21.1947 3.57289 20.491 4.70541C19.7932 5.83794 19.4417 7.39278 19.4357 9.36995H19.5641C19.8639 8.83127 20.2523 8.36934 20.7296 7.98321C21.2068 7.59795 21.7452 7.30144 22.3447 7.09287C22.9503 6.87825 23.5895 6.77139 24.2631 6.77139C25.364 6.77139 26.3521 7.03509 27.2273 7.56084C28.1077 8.08746 28.8054 8.81319 29.3197 9.73714C29.8331 10.6559 30.0872 11.7083 30.0812 12.8959C30.0872 14.1328 29.8056 15.2437 29.237 16.2289C28.6676 17.2088 27.8759 17.9794 26.8603 18.543C25.8447 19.1059 24.6603 19.3842 23.3087 19.3782ZM23.2897 16.6236C23.9573 16.6236 24.5534 16.4616 25.0797 16.1376C25.6061 15.8126 26.0222 15.3747 26.328 14.824C26.6338 14.2732 26.7837 13.6553 26.7776 12.9692C26.7837 12.2961 26.6364 11.6867 26.3366 11.142C26.0429 10.5973 25.6362 10.1655 25.1159 9.84745C24.5965 9.52941 24.003 9.36995 23.3362 9.36995C22.84 9.36995 22.3783 9.46477 21.9502 9.65439C21.5221 9.84487 21.1491 10.1077 20.8303 10.4447C20.5125 10.7748 20.2618 11.1601 20.0783 11.6014C19.9009 12.0358 19.8087 12.5012 19.8027 12.9968C19.8087 13.6518 19.9621 14.2551 20.2618 14.8059C20.5616 15.3566 20.9742 15.7971 21.5005 16.128C22.0269 16.459 22.623 16.6236 23.2897 16.6236ZM34.4589 19.3231C33.9016 19.3231 33.4244 19.1274 33.0273 18.7361C32.6293 18.344 32.4337 17.8665 32.4398 17.3037C32.4337 16.7521 32.6293 16.2815 33.0273 15.8893C33.4244 15.4971 33.9016 15.3015 34.4589 15.3015C34.9973 15.3015 35.4651 15.4971 35.8631 15.8893C36.2662 16.2815 36.4713 16.7521 36.4773 17.3037C36.4713 17.6769 36.3739 18.0165 36.1835 18.3224C36 18.6284 35.7554 18.8732 35.4496 19.0567C35.1498 19.2343 34.8199 19.3231 34.4589 19.3231ZM46.0856 19.4791C44.5747 19.4791 43.2783 19.0972 42.1946 18.3319C41.1178 17.5605 40.2891 16.4495 39.7076 14.999C39.1331 13.5415 38.8454 11.7876 38.8454 9.73714C38.8514 7.6867 39.1417 5.94222 39.7171 4.50372C40.2986 3.0592 41.1273 1.95687 42.2041 1.19841C43.2869 0.439085 44.5807 0.0598145 46.0856 0.0598145C47.5914 0.0598145 48.8853 0.439085 49.9681 1.19841C51.0509 1.95687 51.8796 3.0592 52.455 4.50372C53.0364 5.94825 53.3268 7.69274 53.3268 9.73714C53.3268 11.7945 53.0364 13.551 52.455 15.0076C51.8796 16.459 51.0509 17.5665 49.9681 18.3319C48.8913 19.0972 47.5974 19.4791 46.0856 19.4791ZM46.0856 16.6055C47.2606 16.6055 48.1875 16.0272 48.8663 14.8697C49.552 13.707 49.8948 11.9962 49.8948 9.73714C49.8948 8.24348 49.7389 6.98859 49.4262 5.97242C49.1144 4.95625 48.6742 4.19173 48.1048 3.67718C47.5363 3.1566 46.8626 2.89631 46.0856 2.89631C44.9175 2.89631 43.9941 3.4781 43.3144 4.64166C42.6356 5.79831 42.2928 7.49709 42.2868 9.73714C42.2807 11.2368 42.4306 12.4978 42.7364 13.52C43.0482 14.5422 43.4893 15.3135 44.0578 15.8341C44.6272 16.3487 45.3026 16.6055 46.0856 16.6055ZM63.3228 19.4791C61.8118 19.4791 60.5145 19.0972 59.4317 18.3319C58.3549 17.5605 57.5262 16.4495 56.9448 14.999C56.3702 13.5415 56.0824 11.7876 56.0824 9.73714C56.0885 7.6867 56.3788 5.94222 56.9542 4.50372C57.5357 3.0592 58.3644 1.95687 59.4412 1.19841C60.524 0.439085 61.8178 0.0598145 63.3228 0.0598145C64.8277 0.0598145 66.1224 0.439085 67.2052 1.19841C68.288 1.95687 69.1167 3.0592 69.6921 4.50372C70.2727 5.94825 70.5639 7.69274 70.5639 9.73714C70.5639 11.7945 70.2727 13.551 69.6921 15.0076C69.1167 16.459 68.288 17.5665 67.2052 18.3319C66.1284 19.0972 64.8346 19.4791 63.3228 19.4791ZM63.3228 16.6055C64.4977 16.6055 65.4247 16.0272 66.1035 14.8697C66.7892 13.707 67.1311 11.9962 67.1311 9.73714C67.1311 8.24348 66.9752 6.98859 66.6634 5.97242C66.3515 4.95625 65.9113 4.19173 65.3419 3.67718C64.7725 3.1566 64.0998 2.89631 63.3228 2.89631C62.1547 2.89631 61.2304 3.4781 60.5516 4.64166C59.8728 5.79831 59.5299 7.49709 59.5239 9.73714C59.5179 11.2368 59.6677 12.4978 59.9735 13.52C60.2854 14.5422 60.7256 15.3135 61.295 15.8341C61.8635 16.3487 62.5397 16.6055 63.3228 16.6055Z" fill="black"/>
</svg>
