<svg width="31" height="16" viewBox="0 0 31 16" fill="none" xmlns="http://www.w3.org/2000/svg">
<path d="M0.594727 12.7971V10.6303L6.97445 0.544465H8.78085V3.63005H7.67909L3.384 10.4398V10.557H12.2894V12.7971H0.594727ZM7.76695 15.5888V12.1361L7.79707 11.1664V0.544465H10.3667V15.5888H7.76695ZM15.8781 15.7508C15.4328 15.7508 15.0512 15.594 14.7324 15.2802C14.4146 14.9665 14.2578 14.5847 14.263 14.1339C14.2578 13.6935 14.4146 13.3168 14.7324 13.0031C15.0512 12.6894 15.4328 12.5334 15.8781 12.5334C16.3089 12.5334 16.6835 12.6894 17.0014 13.0031C17.3244 13.3168 17.4881 13.6935 17.4933 14.1339C17.4881 14.433 17.4098 14.7044 17.2581 14.9501C17.1117 15.1949 16.9161 15.3905 16.6706 15.5371C16.4312 15.6793 16.1667 15.7508 15.8781 15.7508ZM25.129 15.7948C24.4088 15.7896 23.7068 15.6646 23.0219 15.4199C22.3362 15.1699 21.7194 14.7657 21.1716 14.208C20.6237 13.6444 20.1878 12.8979 19.8648 11.9671C19.5418 11.0319 19.3824 9.8736 19.3876 8.49285C19.3876 7.20519 19.5245 6.05628 19.7985 5.04787C20.0724 4.0386 20.4669 3.18705 20.9803 2.4915C21.4946 1.79079 22.114 1.25725 22.8384 0.890083C23.5672 0.522918 24.3821 0.339355 25.2832 0.339355C26.2273 0.339355 27.0646 0.525533 27.7934 0.897869C28.5282 1.26934 29.1199 1.7787 29.5705 2.42511C30.021 3.06722 30.2992 3.79122 30.4069 4.59967H27.7279C27.5909 4.02221 27.3093 3.5611 26.8837 3.21893C26.4625 2.87073 25.9292 2.69751 25.2832 2.69751C24.24 2.69751 23.438 3.14999 22.8746 4.05583C22.3164 4.96168 22.0356 6.20621 22.0304 7.78778H22.1329C22.3733 7.35684 22.6843 6.9871 23.0659 6.67854C23.4475 6.36998 23.8782 6.13213 24.358 5.96579C24.8421 5.79427 25.3538 5.70891 25.8922 5.70891C26.7735 5.70891 27.5634 5.91924 28.2637 6.34071C28.9684 6.76217 29.5266 7.34219 29.9375 8.08169C30.3484 8.81602 30.5516 9.65809 30.5465 10.6088C30.5516 11.5973 30.3268 12.4868 29.8711 13.2746C29.4163 14.0581 28.7823 14.6752 27.97 15.1259C27.1576 15.5767 26.21 15.7991 25.129 15.7948ZM25.1143 13.5909C25.6476 13.5909 26.1248 13.4607 26.546 13.2013C26.9664 12.9419 27.2998 12.592 27.5444 12.1507C27.7891 11.7103 27.9088 11.2155 27.9036 10.6674C27.9088 10.1287 27.7916 9.64086 27.5513 9.20561C27.3161 8.76949 26.9914 8.4239 26.5753 8.16964C26.1592 7.91539 25.6846 7.78778 25.1505 7.78778C24.7543 7.78778 24.3847 7.86366 24.0419 8.01535C23.6999 8.16704 23.4009 8.37818 23.146 8.64709C22.8918 8.91169 22.6911 9.22028 22.5447 9.57279C22.4025 9.92013 22.3293 10.2925 22.3242 10.6889C22.3293 11.213 22.4517 11.6956 22.6912 12.1361C22.9306 12.5773 23.2614 12.9298 23.6827 13.1944C24.103 13.4582 24.5803 13.5909 25.1143 13.5909Z" fill="#454545"/>
</svg>
