<svg width="97" height="26" viewBox="0 0 97 26" fill="none" xmlns="http://www.w3.org/2000/svg">
<path d="M0.921875 20.3136V1.5089H4.32446V17.4582H12.6028V20.3136H0.921875ZM21.5616 20.5894C20.1833 20.5894 18.9945 20.286 17.9867 19.6801C16.9702 19.0742 16.1949 18.2261 15.635 17.1367C15.0837 16.0473 14.8081 14.7734 14.8081 13.3168C14.8081 11.8602 15.0837 10.5837 15.635 9.48827C16.1949 8.39195 16.9702 7.54128 17.9867 6.93537C18.9945 6.32946 20.1833 6.02603 21.5616 6.02603C22.9399 6.02603 24.1287 6.32946 25.1452 6.93537C26.153 7.54128 26.9283 8.39195 27.4796 9.48827C28.0395 10.5837 28.3152 11.8602 28.3152 13.3168C28.3152 14.7734 28.0395 16.0473 27.4796 17.1367C26.9283 18.2261 26.153 19.0742 25.1452 19.6801C24.1287 20.286 22.9399 20.5894 21.5616 20.5894ZM21.5788 17.9262C22.3283 17.9262 22.9486 17.721 23.4568 17.3108C23.9564 16.8945 24.3268 16.3377 24.5766 15.6396C24.8264 14.9423 24.9471 14.1649 24.9471 13.3073C24.9471 12.4445 24.8264 11.6637 24.5766 10.9664C24.3268 10.2623 23.9564 9.70203 23.4568 9.28574C22.9486 8.86945 22.3283 8.66173 21.5788 8.66173C20.8208 8.66173 20.1834 8.86945 19.6751 9.28574C19.1669 9.70203 18.7964 10.2623 18.5466 10.9664C18.2968 11.6637 18.1763 12.4445 18.1763 13.3073C18.1763 14.1649 18.2968 14.9423 18.5466 15.6396C18.7964 16.3377 19.1669 16.8945 19.6751 17.3108C20.1834 17.721 20.8208 17.9262 21.5788 17.9262ZM34.4571 1.5089V20.3136H31.1407V1.5089H34.4571ZM41.1935 1.5089V20.3136H37.8771V1.5089H41.1935ZM44.6134 20.3136V6.20963H47.9385V20.3136H44.6134ZM46.2846 4.20835C45.7591 4.20835 45.3025 4.0342 44.9235 3.68514C44.5444 3.33004 44.3549 2.9043 44.3549 2.40872C44.3549 1.90623 44.5444 1.48131 44.9235 1.13224C45.3025 0.777142 45.7591 0.599609 46.2846 0.599609C46.8187 0.599609 47.2666 0.777142 47.6456 1.13224C48.0246 1.48131 48.2142 1.90623 48.2142 2.40872C48.2142 2.9043 48.0246 3.33004 47.6456 3.68514C47.2666 4.0342 46.8187 4.20835 46.2846 4.20835ZM51.3497 25.6021V6.20963H54.6231V8.5419H54.8126C54.9849 8.19973 55.2262 7.83517 55.5363 7.44991C55.8464 7.05775 56.2685 6.72421 56.8026 6.4484C57.3366 6.16743 58.0172 6.02603 58.8441 6.02603C59.9295 6.02603 60.9116 6.30445 61.7902 6.86209C62.6689 7.41284 63.3666 8.22991 63.8748 9.3133C64.4003 10.3907 64.6588 11.7128 64.6588 13.2797C64.6588 14.8285 64.4089 16.1446 63.9007 17.228C63.3925 18.3123 62.6947 19.138 61.8246 19.7077C60.946 20.2765 59.9554 20.5619 58.8528 20.5619C58.043 20.5619 57.3711 20.4265 56.8371 20.1576C56.3116 19.8878 55.8808 19.5638 55.5534 19.1845C55.2347 18.7984 54.9849 18.4347 54.8126 18.0917H54.6749V25.6021H51.3497ZM54.6059 13.2616C54.6059 14.1735 54.7352 14.9725 54.9936 15.6585C55.2606 16.3437 55.631 16.8798 56.122 17.2651C56.6216 17.6443 57.216 17.8348 57.9224 17.8348C58.6546 17.8348 59.2748 17.6383 59.7658 17.247C60.2654 16.8488 60.6359 16.3076 60.8857 15.6215C61.1441 14.9303 61.2733 14.1433 61.2733 13.2616C61.2733 12.3868 61.1441 11.6094 60.8943 10.9293C60.6445 10.2502 60.2741 9.71751 59.7744 9.33224C59.2834 8.94611 58.6632 8.75305 57.9224 8.75305C57.216 8.75305 56.613 8.94011 56.1134 9.3133C55.6224 9.6865 55.2434 10.2105 54.985 10.8837C54.7351 11.5568 54.6059 12.3497 54.6059 13.2616ZM73.652 20.5894C72.2737 20.5894 71.085 20.286 70.0772 19.6801C69.0607 19.0742 68.2767 18.2261 67.7254 17.1367C67.1741 16.0473 66.8984 14.7734 66.8984 13.3168C66.8984 11.8602 67.1741 10.5837 67.7254 9.48827C68.2767 8.39195 69.0607 7.54128 70.0772 6.93537C71.085 6.32946 72.2737 6.02603 73.652 6.02603C75.0303 6.02603 76.2191 6.32946 77.2355 6.93537C78.2434 7.54128 79.0187 8.39195 79.57 9.48827C80.1299 10.5837 80.4056 11.8602 80.4056 13.3168C80.4056 14.7734 80.1299 16.0473 79.57 17.1367C79.0187 18.2261 78.2434 19.0742 77.2355 19.6801C76.2191 20.286 75.0303 20.5894 73.652 20.5894ZM73.6692 17.9262C74.4187 17.9262 75.0389 17.721 75.5386 17.3108C76.0468 16.8945 76.4172 16.3377 76.6584 15.6396C76.9168 14.9423 77.0374 14.1649 77.0374 13.3073C77.0374 12.4445 76.9168 11.6637 76.6584 10.9664C76.4172 10.2623 76.0468 9.70203 75.5386 9.28574C75.0389 8.86945 74.4187 8.66173 73.6692 8.66173C72.9026 8.66173 72.2738 8.86945 71.7655 9.28574C71.2573 9.70203 70.8868 10.2623 70.637 10.9664C70.3872 11.6637 70.2666 12.4445 70.2666 13.3073C70.2666 14.1649 70.3872 14.9423 70.637 15.6396C70.8868 16.3377 71.2573 16.8945 71.7655 17.3108C72.2738 17.721 72.9026 17.9262 73.6692 17.9262ZM83.2224 25.6021V6.20963H86.4959V8.5419H86.6854C86.8577 8.19973 87.0989 7.83517 87.409 7.44991C87.7192 7.05775 88.1412 6.72421 88.6753 6.4484C89.2094 6.16743 89.8899 6.02603 90.7169 6.02603C91.8023 6.02603 92.7843 6.30445 93.663 6.86209C94.5417 7.41284 95.2393 8.22991 95.7562 9.3133C96.2731 10.3907 96.5315 11.7128 96.5315 13.2797C96.5315 14.8285 96.2817 16.1446 95.7735 17.228C95.2652 18.3123 94.576 19.138 93.6974 19.7077C92.8187 20.2765 91.8281 20.5619 90.7255 20.5619C89.9158 20.5619 89.2438 20.4265 88.7183 20.1576C88.1842 19.8878 87.7535 19.5638 87.4262 19.1845C87.1075 18.7984 86.8663 18.4347 86.6854 18.0917H86.5476V25.6021H83.2224ZM86.4873 13.2616C86.4873 14.1735 86.6165 14.9725 86.8663 15.6585C87.1334 16.3437 87.5124 16.8798 87.9948 17.2651C88.4944 17.6443 89.0974 17.8348 89.7951 17.8348C90.5273 17.8348 91.1476 17.6383 91.6386 17.247C92.1382 16.8488 92.5087 16.3076 92.7585 15.6215C93.0169 14.9303 93.1461 14.1433 93.1461 13.2616C93.1461 12.3868 93.0255 11.6094 92.7671 10.9293C92.5173 10.2502 92.1468 9.71751 91.6472 9.33224C91.1562 8.94611 90.5359 8.75305 89.7951 8.75305C89.0887 8.75305 88.4858 8.94011 87.9861 9.3133C87.4951 9.6865 87.1161 10.2105 86.8577 10.8837C86.6079 11.5568 86.4873 12.3497 86.4873 13.2616Z" fill="black"/>
</svg>
