<svg width="208" height="20" viewBox="0 0 208 20" fill="none" xmlns="http://www.w3.org/2000/svg">
<path d="M5.55666 15.3229H0.887695V1.5327H5.6514C7.02107 1.5327 8.19258 1.80851 9.17461 2.36098C10.1652 2.90828 10.9233 3.69605 11.4488 4.72429C11.9829 5.75252 12.25 6.98244 12.25 8.41404C12.25 9.85081 11.9829 11.085 11.4488 12.1176C10.9147 13.1501 10.1481 13.9422 9.14884 14.4947C8.1582 15.0471 6.96078 15.3229 5.55666 15.3229ZM3.38585 13.1613H5.43605C6.39223 13.1613 7.19339 12.9864 7.83946 12.6364C8.47691 12.2813 8.95925 11.7539 9.2866 11.054C9.60532 10.349 9.76904 9.469 9.76904 8.41404C9.76904 7.35909 9.60532 6.48427 9.2866 5.78787C8.95925 5.08801 8.48554 4.56484 7.84808 4.21922C7.21924 3.86929 6.44389 3.69432 5.51355 3.69432H3.38585V13.1613ZM19.0896 15.5246C18.0473 15.5246 17.1514 15.3092 16.402 14.8782C15.6525 14.443 15.0754 13.8284 14.6705 13.0338C14.2656 12.2348 14.0676 11.2945 14.0676 10.2119C14.0676 9.14837 14.2656 8.21494 14.6705 7.4108C15.084 6.60321 15.6525 5.97488 16.3847 5.52584C17.1169 5.07248 17.9699 4.8458 18.9605 4.8458C19.5979 4.8458 20.2009 4.94924 20.7608 5.15523C21.3294 5.35691 21.8376 5.6715 22.2683 6.09813C22.7077 6.52477 23.0522 7.06777 23.3106 7.72712C23.5604 8.38302 23.6811 9.16388 23.6811 10.0706V10.8179H15.2132V9.17509H21.3466C21.3466 8.7088 21.2432 8.29337 21.0451 7.92965C20.847 7.56162 20.5713 7.27203 20.2181 7.06087C19.865 6.84971 19.4601 6.74455 18.9949 6.74455C18.4953 6.74455 18.0559 6.86521 17.6769 7.10827C17.3065 7.34615 17.0137 7.65989 16.7983 8.05033C16.5916 8.43645 16.4882 8.86136 16.4796 9.32333V10.7575C16.4796 11.3591 16.5915 11.8754 16.8154 12.3063C17.0308 12.733 17.341 13.0605 17.7372 13.2897C18.1335 13.5138 18.59 13.6259 19.1241 13.6259C19.4773 13.6259 19.796 13.5768 20.0803 13.4776C20.3732 13.3751 20.623 13.2242 20.8297 13.0269C21.0451 12.8295 21.2002 12.5847 21.3122 12.2925L23.5863 12.5485C23.4399 13.1501 23.1642 13.6759 22.7593 14.1241C22.3631 14.5688 21.8548 14.9144 21.2259 15.1609C20.6057 15.404 19.8908 15.5246 19.0896 15.5246ZM33.9148 7.71418L31.6923 7.95637C31.632 7.73228 31.52 7.52111 31.3649 7.32374C31.2099 7.12637 31.0032 6.96692 30.7447 6.8454C30.4863 6.72387 30.1676 6.66354 29.7886 6.66354C29.2803 6.66354 28.8582 6.77386 28.5137 6.99364C28.1691 7.21342 28.0055 7.49871 28.0055 7.84864C28.0055 8.14944 28.1087 8.3942 28.3327 8.58296C28.5653 8.77085 28.9444 8.92599 29.4698 9.04752L31.2272 9.42417C32.2092 9.63534 32.9327 9.96975 33.4065 10.4274C33.8889 10.8859 34.1302 11.485 34.1388 12.2253C34.1302 12.876 33.9406 13.4509 33.5616 13.9491C33.1912 14.443 32.6743 14.8291 32.011 15.1075C31.3477 15.3859 30.5811 15.5246 29.7197 15.5246C28.4534 15.5246 27.4369 15.26 26.6702 14.73C25.8949 14.1965 25.4384 13.4535 25.2833 12.502L27.6609 12.2727C27.7729 12.7399 27.9968 13.0915 28.35 13.3294C28.7031 13.5681 29.1511 13.6871 29.7111 13.6871C30.2968 13.6871 30.762 13.5681 31.1066 13.3294C31.4598 13.0915 31.6407 12.7976 31.6407 12.4477C31.6407 12.1512 31.5287 11.9064 31.2961 11.7134C31.0721 11.5212 30.7189 11.3729 30.2451 11.2695L28.4878 10.8989C27.4886 10.6929 26.7564 10.3447 26.2826 9.85512C25.8088 9.36126 25.5762 8.73725 25.5762 7.9831C25.5762 7.34616 25.7484 6.79369 26.093 6.32655C26.4462 5.85596 26.9373 5.49222 27.5661 5.23624C28.2036 4.97595 28.9271 4.8458 29.7541 4.8458C30.9687 4.8458 31.9163 5.10352 32.6141 5.61979C33.3118 6.13606 33.7512 6.83419 33.9148 7.71418ZM40.6511 15.5246C39.626 15.5246 38.7388 15.298 37.998 14.8446C37.2572 14.3912 36.6972 13.7655 36.2924 12.9665C35.8961 12.1624 35.6979 11.2376 35.6979 10.1921C35.6979 9.14147 35.9046 8.21494 36.3095 7.4108C36.7144 6.60321 37.283 5.97488 38.0152 5.52584C38.7561 5.07248 39.6346 4.8458 40.6425 4.8458C41.4781 4.8458 42.219 5.00008 42.8651 5.31036C43.5197 5.61547 44.0365 6.049 44.4242 6.61009C44.8118 7.16601 45.0272 7.81761 45.0789 8.56228H42.7531C42.6583 8.06411 42.4343 7.64867 42.0811 7.31685C41.7279 6.97985 41.2628 6.81178 40.677 6.81178C40.1774 6.81178 39.738 6.94623 39.359 7.216C38.9886 7.4806 38.6957 7.86242 38.4803 8.36059C38.2736 8.85877 38.1702 9.45606 38.1702 10.1516C38.1702 10.8566 38.2736 11.4625 38.4803 11.9693C38.6871 12.4727 38.98 12.8605 39.3504 13.1346C39.7294 13.4035 40.1688 13.5388 40.677 13.5388C41.0302 13.5388 41.3575 13.4716 41.6332 13.3363C41.9261 13.1975 42.1672 12.9976 42.3567 12.7373C42.5463 12.477 42.6842 12.1607 42.7531 11.7875H45.0789C45.0272 12.5192 44.8118 13.1682 44.4328 13.7336C44.0624 14.2947 43.5541 14.7351 42.9167 15.0532C42.2706 15.3678 41.5212 15.5246 40.6511 15.5246ZM47.086 15.3229V4.98026H49.4463V6.70404H49.5496C49.7391 6.10675 50.0665 5.64651 50.523 5.32331C50.9882 4.99579 51.5138 4.83202 52.1081 4.83202C52.2374 4.83202 52.3924 4.83891 52.5561 4.8527C52.7284 4.86132 52.8662 4.87684 52.9782 4.89925V7.14188C52.8748 7.10568 52.7111 7.07467 52.4871 7.04709C52.2718 7.01606 52.0564 7.00053 51.8497 7.00053C51.4017 7.00053 51.0055 7.09706 50.6523 7.29012C50.2991 7.47802 50.0235 7.74089 49.8253 8.07789C49.6186 8.41403 49.5239 8.80275 49.5239 9.24232V15.3229H47.086ZM54.5977 15.3229V4.98026H57.0355V15.3229H54.5977ZM55.8208 3.51246C55.4332 3.51246 55.1058 3.38404 54.8302 3.12892C54.5459 2.86776 54.4081 2.55576 54.4081 2.1929C54.4081 1.82488 54.5459 1.51288 54.8302 1.25689C55.1058 0.996603 55.4332 0.866455 55.8208 0.866455C56.2085 0.866455 56.5445 0.996603 56.8201 1.25689C57.0958 1.51288 57.2336 1.82488 57.2336 2.1929C57.2336 2.55576 57.0958 2.86776 56.8201 3.12892C56.5445 3.38404 56.2085 3.51246 55.8208 3.51246ZM59.5422 19.2014V4.98026H61.9369V6.69026H62.0748C62.204 6.43945 62.3763 6.17225 62.6089 5.88955C62.8328 5.60168 63.143 5.35691 63.5393 5.15523C63.9269 4.94924 64.4265 4.8458 65.0295 4.8458C65.8307 4.8458 66.5456 5.05007 67.1917 5.45861C67.8378 5.86197 68.3459 6.46185 68.725 7.25651C69.104 8.046 69.2935 9.01563 69.2935 10.1654C69.2935 11.3005 69.1126 12.2658 68.7422 13.0605C68.3632 13.8551 67.8549 14.4611 67.2175 14.8782C66.58 15.2962 65.8479 15.5048 65.0381 15.5048C64.4438 15.5048 63.9527 15.4057 63.565 15.2083C63.1688 15.0109 62.8587 14.7731 62.6175 14.4947C62.3849 14.212 62.204 13.9448 62.0748 13.6931H61.9714V19.2014H59.5422ZM61.9283 10.1516C61.9283 10.8204 62.0231 11.4065 62.2126 11.909C62.4022 12.4115 62.6778 12.8045 63.0396 13.0872C63.4014 13.3656 63.8407 13.5052 64.3576 13.5052C64.8917 13.5052 65.3482 13.3613 65.71 13.0743C66.0718 12.7821 66.3475 12.3848 66.5284 11.8823C66.7179 11.3746 66.8126 10.798 66.8126 10.1516C66.8126 9.5095 66.7179 8.93978 66.537 8.44161C66.3561 7.94257 66.0804 7.55215 65.7186 7.26945C65.3568 6.98675 64.9003 6.8454 64.3576 6.8454C63.8407 6.8454 63.3928 6.98243 63.031 7.25651C62.6692 7.52973 62.3935 7.91413 62.204 8.40799C62.0231 8.90099 61.9283 9.48278 61.9283 10.1516ZM76.5468 4.98026V6.86523H70.6029V4.98026H76.5468ZM72.0673 2.50233H74.5052V12.2124C74.5052 12.5399 74.5568 12.7916 74.6516 12.9665C74.755 13.1372 74.8929 13.2535 75.0565 13.3165C75.2202 13.3794 75.4096 13.4104 75.6077 13.4104C75.7628 13.4104 75.9007 13.3992 76.0299 13.3768C76.1592 13.3544 76.2539 13.3346 76.3228 13.3165L76.7363 15.2221C76.6071 15.2669 76.4175 15.316 76.1763 15.3703C75.9351 15.4238 75.6422 15.4557 75.2977 15.4643C74.686 15.4824 74.1434 15.3902 73.6524 15.1885C73.1614 14.9816 72.7737 14.6627 72.4894 14.2318C72.2051 13.8009 72.0673 13.2622 72.0673 12.6158V2.50233ZM78.5797 15.3229V4.98026H81.0175V15.3229H78.5797ZM79.8115 3.51246C79.4239 3.51246 79.088 3.38404 78.8123 3.12892C78.5367 2.86776 78.3902 2.55576 78.3902 2.1929C78.3902 1.82488 78.5367 1.51288 78.8123 1.25689C79.088 0.996603 79.4239 0.866455 79.8115 0.866455C80.1992 0.866455 80.5265 0.996603 80.8022 1.25689C81.0778 1.51288 81.2243 1.82488 81.2243 2.1929C81.2243 2.55576 81.0778 2.86776 80.8022 3.12892C80.5265 3.38404 80.1992 3.51246 79.8115 3.51246ZM88.0295 15.5246C87.0217 15.5246 86.1516 15.3031 85.4108 14.8584C84.67 14.4136 84.0928 13.7922 83.6879 12.9933C83.2831 12.1943 83.0763 11.26 83.0763 10.1921C83.0763 9.12337 83.2831 8.18736 83.6879 7.38408C84.0928 6.5808 84.67 5.95679 85.4108 5.51205C86.1516 5.06818 87.0217 4.8458 88.0295 4.8458C89.046 4.8458 89.9161 5.06818 90.6569 5.51205C91.3978 5.95679 91.9663 6.5808 92.3712 7.38408C92.7847 8.18736 92.9827 9.12337 92.9827 10.1921C92.9827 11.26 92.7847 12.1943 92.3712 12.9933C91.9663 13.7922 91.3978 14.4136 90.6569 14.8584C89.9161 15.3031 89.046 15.5246 88.0295 15.5246ZM88.0468 13.5724C88.5981 13.5724 89.0546 13.4216 89.4164 13.1208C89.7868 12.8157 90.0626 12.4072 90.2435 11.8952C90.4244 11.3841 90.5191 10.8135 90.5191 10.1852C90.5191 9.55259 90.4244 8.98029 90.2435 8.46833C90.0626 7.95206 89.7868 7.54094 89.4164 7.23583C89.0546 6.93073 88.5981 6.77817 88.0468 6.77817C87.4869 6.77817 87.0217 6.93073 86.6427 7.23583C86.2809 7.54094 86.0052 7.95206 85.8157 8.46833C85.6434 8.98029 85.5486 9.55259 85.5486 10.1852C85.5486 10.8135 85.6434 11.3841 85.8157 11.8952C86.0052 12.4072 86.2809 12.8157 86.6427 13.1208C87.0217 13.4216 87.4869 13.5724 88.0468 13.5724ZM97.488 9.26299V15.3229H95.0502V4.98026H97.3846V6.73766H97.5052C97.7378 6.15847 98.1169 5.69823 98.6424 5.35692C99.1678 5.01647 99.8138 4.8458 100.589 4.8458C101.295 4.8458 101.924 4.99836 102.45 5.30347C102.984 5.60858 103.397 6.05073 103.69 6.62992C103.983 7.20911 104.13 7.91156 104.13 8.73725V15.3229H101.692V9.11475C101.692 8.42351 101.511 7.88225 101.149 7.49181C100.796 7.10138 100.305 6.90573 99.676 6.90573C99.2539 6.90573 98.8749 7.00055 98.5389 7.18844C98.2116 7.37288 97.9532 7.64006 97.7637 7.98999C97.5828 8.33992 97.488 8.76482 97.488 9.26299ZM115.811 15.5246C114.803 15.5246 113.924 15.3031 113.192 14.8584C112.451 14.4136 111.874 13.7922 111.469 12.9933C111.064 12.1943 110.857 11.26 110.857 10.1921C110.857 9.12337 111.064 8.18736 111.469 7.38408C111.874 6.5808 112.451 5.95679 113.192 5.51205C113.924 5.06818 114.803 4.8458 115.811 4.8458C116.818 4.8458 117.697 5.06818 118.438 5.51205C119.179 5.95679 119.747 6.5808 120.152 7.38408C120.566 8.18736 120.764 9.12337 120.764 10.1921C120.764 11.26 120.566 12.1943 120.152 12.9933C119.747 13.7922 119.179 14.4136 118.438 14.8584C117.697 15.3031 116.818 15.5246 115.811 15.5246ZM115.828 13.5724C116.37 13.5724 116.827 13.4216 117.197 13.1208C117.568 12.8157 117.844 12.4072 118.016 11.8952C118.205 11.3841 118.3 10.8135 118.3 10.1852C118.3 9.55259 118.205 8.98029 118.016 8.46833C117.844 7.95206 117.568 7.54094 117.197 7.23583C116.827 6.93073 116.37 6.77817 115.828 6.77817C115.268 6.77817 114.803 6.93073 114.424 7.23583C114.062 7.54094 113.786 7.95206 113.597 8.46833C113.416 8.98029 113.33 9.55259 113.33 10.1852C113.33 10.8135 113.416 11.3841 113.597 11.8952C113.786 12.4072 114.062 12.8157 114.424 13.1208C114.803 13.4216 115.268 13.5724 115.828 13.5724ZM128.069 4.98026V6.86523H121.961V4.98026H128.069ZM123.486 15.3229V4.00375C123.486 3.3082 123.632 2.729 123.917 2.26703C124.209 1.80419 124.597 1.45859 125.088 1.22933C125.579 1.00093 126.122 0.886287 126.716 0.886287C127.138 0.886287 127.509 0.919905 127.845 0.987132C128.172 1.05436 128.413 1.11555 128.568 1.16899L128.086 3.0548C127.982 3.02291 127.853 2.99189 127.69 2.96C127.535 2.92466 127.362 2.90655 127.164 2.90655C126.716 2.90655 126.398 3.01601 126.208 3.23665C126.018 3.45213 125.932 3.76155 125.932 4.16577V15.3229H123.486ZM139.836 4.98026V6.86523H133.9V4.98026H139.836ZM135.365 2.50233H137.803V12.2124C137.803 12.5399 137.846 12.7916 137.949 12.9665C138.052 13.1372 138.19 13.2535 138.354 13.3165C138.518 13.3794 138.699 13.4104 138.905 13.4104C139.06 13.4104 139.198 13.3992 139.319 13.3768C139.448 13.3544 139.551 13.3346 139.62 13.3165L140.025 15.2221C139.896 15.2669 139.715 15.316 139.474 15.3703C139.233 15.4238 138.94 15.4557 138.595 15.4643C137.984 15.4824 137.432 15.3902 136.95 15.1885C136.459 14.9816 136.071 14.6627 135.778 14.2318C135.503 13.8009 135.356 13.2622 135.365 12.6158V2.50233ZM144.539 9.26299V15.3229H142.101V1.5327H144.479V6.73766H144.599C144.849 6.15416 145.22 5.69392 145.728 5.35692C146.236 5.01647 146.891 4.8458 147.675 4.8458C148.398 4.8458 149.019 4.99578 149.553 5.29658C150.087 5.59738 150.5 6.03781 150.793 6.61614C151.095 7.19533 151.241 7.90294 151.241 8.73725V15.3229H148.803V9.11475C148.803 8.4192 148.622 7.87794 148.26 7.49181C147.907 7.10138 147.408 6.90573 146.77 6.90573C146.34 6.90573 145.952 7.00055 145.616 7.18844C145.28 7.37288 145.013 7.64006 144.815 7.98999C144.634 8.33992 144.539 8.76482 144.539 9.26299ZM158.296 15.5246C157.262 15.5246 156.366 15.3092 155.617 14.8782C154.868 14.443 154.29 13.8284 153.885 13.0338C153.481 12.2348 153.274 11.2945 153.274 10.2119C153.274 9.14837 153.481 8.21494 153.885 7.4108C154.29 6.60321 154.859 5.97488 155.591 5.52584C156.323 5.07248 157.185 4.8458 158.167 4.8458C158.804 4.8458 159.407 4.94924 159.976 5.15523C160.544 5.35691 161.044 5.6715 161.483 6.09813C161.923 6.52477 162.267 7.06777 162.517 7.72712C162.767 8.38302 162.896 9.16388 162.896 10.0706V10.8179H154.42V9.17509H160.562C160.553 8.7088 160.458 8.29337 160.26 7.92965C160.062 7.56162 159.786 7.27203 159.425 7.06087C159.08 6.84971 158.666 6.74455 158.201 6.74455C157.71 6.74455 157.271 6.86521 156.892 7.10827C156.513 7.34615 156.22 7.65989 156.013 8.05033C155.807 8.43645 155.695 8.86136 155.695 9.32333V10.7575C155.695 11.3591 155.807 11.8754 156.022 12.3063C156.246 12.733 156.547 13.0605 156.944 13.2897C157.34 13.5138 157.805 13.6259 158.33 13.6259C158.684 13.6259 159.011 13.5768 159.295 13.4776C159.58 13.3751 159.829 13.2242 160.045 13.0269C160.251 12.8295 160.415 12.5847 160.519 12.2925L162.793 12.5485C162.646 13.1501 162.379 13.6759 161.974 14.1241C161.569 14.5688 161.061 14.9144 160.441 15.1609C159.812 15.404 159.097 15.5246 158.296 15.5246ZM169.658 15.3229V4.98026H172.096V15.3229H169.658ZM170.882 3.51246C170.494 3.51246 170.167 3.38404 169.882 3.12892C169.607 2.86776 169.469 2.55576 169.469 2.1929C169.469 1.82488 169.607 1.51288 169.882 1.25689C170.167 0.996603 170.494 0.866455 170.882 0.866455C171.269 0.866455 171.605 0.996603 171.881 1.25689C172.156 1.51288 172.294 1.82488 172.294 2.1929C172.294 2.55576 172.156 2.86776 171.881 3.12892C171.605 3.38404 171.269 3.51246 170.882 3.51246ZM179.763 4.98026V6.86523H173.819V4.98026H179.763ZM175.283 2.50233H177.721V12.2124C177.721 12.5399 177.773 12.7916 177.868 12.9665C177.971 13.1372 178.109 13.2535 178.273 13.3165C178.436 13.3794 178.626 13.4104 178.824 13.4104C178.979 13.4104 179.117 13.3992 179.246 13.3768C179.375 13.3544 179.47 13.3346 179.539 13.3165L179.952 15.2221C179.814 15.2669 179.634 15.316 179.392 15.3703C179.151 15.4238 178.858 15.4557 178.514 15.4643C177.902 15.4824 177.351 15.3902 176.868 15.1885C176.377 14.9816 175.99 14.6627 175.705 14.2318C175.421 13.8009 175.283 13.2622 175.283 12.6158V2.50233ZM186.267 15.5246C185.224 15.5246 184.328 15.3092 183.579 14.8782C182.829 14.443 182.252 13.8284 181.847 13.0338C181.443 12.2348 181.244 11.2945 181.244 10.2119C181.244 9.14837 181.443 8.21494 181.847 7.4108C182.252 6.60321 182.829 5.97488 183.553 5.52584C184.285 5.07248 185.147 4.8458 186.137 4.8458C186.775 4.8458 187.369 4.94924 187.938 5.15523C188.506 5.35691 189.014 5.6715 189.445 6.09813C189.885 6.52477 190.229 7.06777 190.479 7.72712C190.737 8.38302 190.858 9.16388 190.858 10.0706V10.8179H182.39V9.17509H188.523C188.523 8.7088 188.42 8.29337 188.222 7.92965C188.024 7.56162 187.748 7.27203 187.395 7.06087C187.042 6.84971 186.637 6.74455 186.172 6.74455C185.672 6.74455 185.233 6.86521 184.854 7.10827C184.483 7.34615 184.182 7.65989 183.975 8.05033C183.768 8.43645 183.665 8.86136 183.656 9.32333V10.7575C183.656 11.3591 183.768 11.8754 183.984 12.3063C184.208 12.733 184.518 13.0605 184.914 13.2897C185.302 13.5138 185.767 13.6259 186.292 13.6259C186.654 13.6259 186.973 13.5768 187.257 13.4776C187.542 13.3751 187.791 13.2242 188.007 13.0269C188.213 12.8295 188.377 12.5847 188.48 12.2925L190.755 12.5485C190.617 13.1501 190.341 13.6759 189.936 14.1241C189.54 14.5688 189.023 14.9144 188.403 15.1609C187.783 15.404 187.068 15.5246 186.267 15.5246ZM192.917 15.3229V4.98026H195.251V6.73766H195.372C195.587 6.14554 195.94 5.6827 196.44 5.35087C196.94 5.01387 197.534 4.8458 198.223 4.8458C198.921 4.8458 199.515 5.01647 199.989 5.35692C200.48 5.69392 200.816 6.15416 201.014 6.73766H201.126C201.35 6.16278 201.738 5.70512 202.28 5.36381C202.832 5.01819 203.478 4.8458 204.227 4.8458C205.175 4.8458 205.95 5.1466 206.553 5.7482C207.156 6.3498 207.458 7.22722 207.458 8.38043V15.3229H205.011V8.75792C205.011 8.11582 204.847 7.64695 204.503 7.35046C204.158 7.04966 203.745 6.89968 203.254 6.89968C202.659 6.89968 202.203 7.08328 201.867 7.45131C201.54 7.81502 201.376 8.28905 201.376 8.87255V15.3229H198.99V8.65708C198.99 8.12271 198.826 7.69608 198.507 7.37719C198.189 7.05829 197.767 6.89968 197.258 6.89968C196.905 6.89968 196.586 6.98933 196.302 7.1686C196.009 7.34357 195.785 7.59266 195.613 7.91587C195.441 8.23477 195.355 8.6071 195.355 9.03374V15.3229H192.917Z" fill="#555555"/>
</svg>
