<svg width="208" height="20" viewBox="0 0 208 20" fill="none" xmlns="http://www.w3.org/2000/svg">
<path d="M5.11295 15.3229H0.442383V1.5327H5.20718C6.57556 1.5327 7.75106 1.80851 8.73361 2.36098C9.72071 2.90828 10.4789 3.69605 11.0084 4.72429C11.5375 5.75252 11.8028 6.98244 11.8028 8.41404C11.8028 9.85081 11.5357 11.085 11.0016 12.1176C10.4722 13.1501 9.70718 13.9422 8.70673 14.4947C7.71066 15.0471 6.51276 15.3229 5.11295 15.3229ZM2.93922 13.1613H4.99183C5.95197 13.1613 6.75275 12.9864 7.39434 12.6364C8.03593 12.2813 8.51825 11.7539 8.84128 11.054C9.16432 10.349 9.32584 9.469 9.32584 8.41404C9.32584 7.35909 9.16432 6.48427 8.84128 5.78787C8.51825 5.08801 8.04041 4.56484 7.40787 4.21922C6.77972 3.86929 5.999 3.69432 5.06582 3.69432H2.93922V13.1613ZM18.6434 15.5246C17.6071 15.5246 16.712 15.3092 15.9583 14.8782C15.2089 14.443 14.6326 13.8284 14.2286 13.0338C13.8245 12.2348 13.623 11.2945 13.623 10.2119C13.623 9.14837 13.8245 8.21494 14.2286 7.4108C14.6369 6.60321 15.2063 5.97488 15.9376 5.52584C16.669 5.07248 17.5287 4.8458 18.5159 4.8458C19.1525 4.8458 19.7537 4.94924 20.3188 5.15523C20.8891 5.35691 21.3913 5.6715 21.8263 6.09813C22.2665 6.52477 22.6119 7.06777 22.8626 7.72712C23.1142 8.38302 23.2399 9.16388 23.2399 10.0706V10.8179H14.7669V9.17509H20.9046C20.9003 8.7088 20.7995 8.29337 20.6014 7.92965C20.4041 7.56162 20.1285 7.27203 19.7744 7.06087C19.4238 6.84971 19.0155 6.74455 18.5495 6.74455C18.0516 6.74455 17.614 6.86521 17.2366 7.10827C16.8602 7.34615 16.5665 7.65989 16.3554 8.05033C16.1487 8.43645 16.0436 8.86136 16.0393 9.32333V10.7575C16.0393 11.3591 16.1487 11.8754 16.3683 12.3063C16.5889 12.733 16.8955 13.0605 17.2909 13.2897C17.6855 13.5138 18.148 13.6259 18.677 13.6259C19.0319 13.6259 19.3523 13.5768 19.6392 13.4776C19.9269 13.3751 20.1758 13.2242 20.386 13.0269C20.5971 12.8295 20.7564 12.5847 20.8641 12.2925L23.1391 12.5485C22.9953 13.1501 22.7213 13.6759 22.3182 14.1241C21.9185 14.5688 21.4068 14.9144 20.7831 15.1609C20.1595 15.404 19.4462 15.5246 18.6434 15.5246ZM33.4711 7.71418L31.2503 7.95637C31.1874 7.73228 31.0772 7.52111 30.9204 7.32374C30.7679 7.12637 30.5612 6.96692 30.301 6.8454C30.0409 6.72387 29.7222 6.66354 29.3457 6.66354C28.8383 6.66354 28.4128 6.77386 28.0665 6.99364C27.7262 7.21342 27.5574 7.49871 27.5626 7.84864C27.5574 8.14944 27.6677 8.3942 27.8916 8.58296C28.1208 8.77085 28.4972 8.92599 29.0227 9.04752L30.786 9.42417C31.7637 9.63534 32.4908 9.96975 32.9663 10.4274C33.4461 10.8859 33.689 11.485 33.6933 12.2253C33.689 12.876 33.4978 13.4509 33.1213 13.9491C32.7483 14.443 32.2306 14.8291 31.5665 15.1075C30.9023 15.3859 30.1399 15.5246 29.2785 15.5246C28.0131 15.5246 26.9949 15.26 26.223 14.73C25.4512 14.1965 24.9912 13.4535 24.843 12.502L27.2189 12.2727C27.3265 12.7399 27.5557 13.0915 27.9054 13.3294C28.2551 13.5681 28.7108 13.6871 29.2716 13.6871C29.8505 13.6871 30.3148 13.5681 30.6646 13.3294C31.0195 13.0915 31.1961 12.7976 31.1961 12.4477C31.1961 12.1512 31.0815 11.9064 30.8532 11.7134C30.6284 11.5212 30.2786 11.3729 29.8031 11.2695L28.0398 10.8989C27.0483 10.6929 26.3152 10.3447 25.8397 9.85512C25.3633 9.36126 25.1282 8.73725 25.1325 7.9831C25.1282 7.34616 25.3013 6.79369 25.6511 6.32655C26.0051 5.85596 26.497 5.49222 27.125 5.23624C27.7572 4.97595 28.486 4.8458 29.3121 4.8458C30.5233 4.8458 31.4769 5.10352 32.1721 5.61979C32.8724 6.13606 33.3048 6.83419 33.4711 7.71418ZM40.2109 15.5246C39.1789 15.5246 38.2933 15.298 37.5525 14.8446C36.8169 14.3912 36.2492 13.7655 35.8503 12.9665C35.4549 12.1624 35.2577 11.2376 35.2577 10.1921C35.2577 9.14147 35.4601 8.21494 35.8633 7.4108C36.2673 6.60321 36.8367 5.97488 37.5732 5.52584C38.3132 5.07248 39.1884 4.8458 40.198 4.8458C41.0361 4.8458 41.7787 5.00008 42.4247 5.31036C43.076 5.61547 43.5937 6.049 43.9796 6.61009C44.3655 7.16601 44.5852 7.81761 44.6395 8.56228H42.311C42.2163 8.06411 41.9923 7.64867 41.6374 7.31685C41.2877 6.97985 40.819 6.81178 40.2316 6.81178C39.7328 6.81178 39.296 6.94623 38.9187 7.216C38.5423 7.4806 38.2477 7.86242 38.0375 8.36059C37.8307 8.85877 37.7274 9.45606 37.7274 10.1516C37.7274 10.8566 37.8307 11.4625 38.0375 11.9693C38.2434 12.4727 38.5328 12.8605 38.9058 13.1346C39.2823 13.4035 39.7242 13.5388 40.2316 13.5388C40.5899 13.5388 40.9112 13.4716 41.1938 13.3363C41.4806 13.1975 41.7209 12.9976 41.9139 12.7373C42.1069 12.477 42.2387 12.1607 42.311 11.7875H44.6395C44.5809 12.5192 44.3655 13.1682 43.9934 13.7336C43.6204 14.2947 43.1139 14.7351 42.4721 15.0532C41.8304 15.3678 41.0766 15.5246 40.2109 15.5246ZM46.6397 15.3229V4.98026H49.0017V6.70404H49.1094C49.2981 6.10675 49.6211 5.64651 50.0785 5.32331C50.5411 4.99579 51.0683 4.83202 51.6601 4.83202C51.7945 4.83202 51.9452 4.83891 52.1115 4.8527C52.282 4.86132 52.4233 4.87684 52.5353 4.89925V7.14188C52.4319 7.10568 52.2682 7.07467 52.0434 7.04709C51.8237 7.01606 51.611 7.00053 51.4042 7.00053C50.9606 7.00053 50.5609 7.09706 50.2069 7.29012C49.8563 7.47802 49.5806 7.74089 49.379 8.07789C49.1766 8.41403 49.0758 8.80275 49.0758 9.24232V15.3229H46.6397ZM54.1539 15.3229V4.98026H56.59V15.3229H54.1539ZM55.3789 3.51246C54.9929 3.51246 54.6604 3.38404 54.3822 3.12892C54.104 2.86776 53.9653 2.55576 53.9653 2.1929C53.9653 1.82488 54.104 1.51288 54.3822 1.25689C54.6604 0.996603 54.9929 0.866455 55.3789 0.866455C55.7691 0.866455 56.1007 0.996603 56.3747 1.25689C56.6529 1.51288 56.7916 1.82488 56.7916 2.1929C56.7916 2.55576 56.6529 2.86776 56.3747 3.12892C56.1007 3.38404 55.7691 3.51246 55.3789 3.51246ZM59.095 19.2014V4.98026H61.4907V6.69026H61.6319C61.7577 6.43945 61.9352 6.17225 62.1643 5.88955C62.3926 5.60168 62.7027 5.35691 63.0929 5.15523C63.4832 4.94924 63.9811 4.8458 64.5866 4.8458C65.3852 4.8458 66.1053 5.05007 66.7471 5.45861C67.3932 5.86197 67.9048 6.46185 68.2813 7.25651C68.6629 8.046 68.8533 9.01563 68.8533 10.1654C68.8533 11.3005 68.6672 12.2658 68.2951 13.0605C67.9221 13.8551 67.4156 14.4611 66.7738 14.8782C66.132 15.2962 65.4058 15.5048 64.5935 15.5048C64.0009 15.5048 63.5099 15.4057 63.1196 15.2083C62.7294 15.0109 62.415 14.7731 62.1772 14.4947C61.9438 14.212 61.762 13.9448 61.6319 13.6931H61.5312V19.2014H59.095ZM61.4838 10.1516C61.4838 10.8204 61.5785 11.4065 61.7672 11.909C61.9602 12.4115 62.2358 12.8045 62.595 13.0872C62.9577 13.3656 63.3979 13.5052 63.9139 13.5052C64.4522 13.5052 64.9028 13.3613 65.2663 13.0743C65.6298 12.7821 65.9038 12.3848 66.0872 11.8823C66.2759 11.3746 66.3698 10.798 66.3698 10.1516C66.3698 9.5095 66.2785 8.93978 66.0941 8.44161C65.9098 7.94257 65.6367 7.55215 65.2732 7.26945C64.9097 6.98675 64.4566 6.8454 63.9139 6.8454C63.3936 6.8454 62.9516 6.98243 62.5881 7.25651C62.2246 7.52973 61.9489 7.91413 61.7603 8.40799C61.576 8.90099 61.4838 9.48278 61.4838 10.1516ZM76.1013 4.98026V6.86523H70.1592V4.98026H76.1013ZM71.6262 2.50233H74.0623V12.2124C74.0623 12.5399 74.1114 12.7916 74.2105 12.9665C74.3139 13.1372 74.4482 13.2535 74.6145 13.3165C74.7799 13.3794 74.9642 13.4104 75.1658 13.4104C75.3183 13.4104 75.4578 13.3992 75.5836 13.3768C75.7137 13.3544 75.8119 13.3346 75.8791 13.3165L76.29 15.2221C76.1599 15.2669 75.9738 15.316 75.7318 15.3703C75.4931 15.4238 75.202 15.4557 74.8566 15.4643C74.2467 15.4824 73.6971 15.3902 73.2078 15.1885C72.7185 14.9816 72.3309 14.6627 72.0431 14.2318C71.7606 13.8009 71.6219 13.2622 71.6262 12.6158V2.50233ZM78.1386 15.3229V4.98026H80.5756V15.3229H78.1386ZM79.3635 3.51246C78.9776 3.51246 78.646 3.38404 78.3677 3.12892C78.0895 2.86776 77.9508 2.55576 77.9508 2.1929C77.9508 1.82488 78.0895 1.51288 78.3677 1.25689C78.646 0.996603 78.9776 0.866455 79.3635 0.866455C79.7538 0.866455 80.0863 0.996603 80.3602 1.25689C80.6376 1.51288 80.7771 1.82488 80.7771 2.1929C80.7771 2.55576 80.6376 2.86776 80.3602 3.12892C80.0863 3.38404 79.7538 3.51246 79.3635 3.51246ZM87.5893 15.5246C86.5797 15.5246 85.7054 15.3031 84.9645 14.8584C84.2246 14.4136 83.65 13.7922 83.2417 12.9933C82.8385 12.1943 82.6361 11.26 82.6361 10.1921C82.6361 9.12337 82.8385 8.18736 83.2417 7.38408C83.65 6.5808 84.2246 5.95679 84.9645 5.51205C85.7054 5.06818 86.5797 4.8458 87.5893 4.8458C88.5989 4.8458 89.4741 5.06818 90.2141 5.51205C90.954 5.95679 91.526 6.5808 91.93 7.38408C92.3383 8.18736 92.5425 9.12337 92.5425 10.1921C92.5425 11.26 92.3383 12.1943 91.93 12.9933C91.526 13.7922 90.954 14.4136 90.2141 14.8584C89.4741 15.3031 88.5989 15.5246 87.5893 15.5246ZM87.6031 13.5724C88.1501 13.5724 88.6075 13.4216 88.9762 13.1208C89.344 12.8157 89.6171 12.4072 89.7971 11.8952C89.9806 11.3841 90.0728 10.8135 90.0728 10.1852C90.0728 9.55259 89.9806 8.98029 89.7971 8.46833C89.6171 7.95206 89.344 7.54094 88.9762 7.23583C88.6075 6.93073 88.1501 6.77817 87.6031 6.77817C87.0423 6.77817 86.5754 6.93073 86.2032 7.23583C85.8354 7.54094 85.5589 7.95206 85.3754 8.46833C85.1954 8.98029 85.1058 9.55259 85.1058 10.1852C85.1058 10.8135 85.1954 11.3841 85.3754 11.8952C85.5589 12.4072 85.8354 12.8157 86.2032 13.1208C86.5754 13.4216 87.0423 13.5724 87.6031 13.5724ZM97.0469 9.26299V15.3229H94.6108V4.98026H96.9392V6.73766H97.0598C97.2976 6.15847 97.6766 5.69823 98.1977 5.35692C98.7224 5.01647 99.371 4.8458 100.142 4.8458C100.856 4.8458 101.477 4.99836 102.006 5.30347C102.54 5.60858 102.953 6.05073 103.245 6.62992C103.541 7.20911 103.687 7.91156 103.682 8.73725V15.3229H101.246V9.11475C101.246 8.42351 101.066 7.88225 100.708 7.49181C100.353 7.10138 99.862 6.90573 99.234 6.90573C98.8076 6.90573 98.4286 7.00055 98.0961 7.18844C97.7688 7.37288 97.5112 7.64006 97.3225 7.98999C97.1382 8.33992 97.0469 8.76482 97.0469 9.26299ZM115.369 15.5246C114.359 15.5246 113.485 15.3031 112.744 14.8584C112.004 14.4136 111.429 13.7922 111.021 12.9933C110.618 12.1943 110.415 11.26 110.415 10.1921C110.415 9.12337 110.618 8.18736 111.021 7.38408C111.429 6.5808 112.004 5.95679 112.744 5.51205C113.485 5.06818 114.359 4.8458 115.369 4.8458C116.378 4.8458 117.253 5.06818 117.993 5.51205C118.733 5.95679 119.306 6.5808 119.709 7.38408C120.118 8.18736 120.322 9.12337 120.322 10.1921C120.322 11.26 120.118 12.1943 119.709 12.9933C119.306 13.7922 118.733 14.4136 117.993 14.8584C117.253 15.3031 116.378 15.5246 115.369 15.5246ZM115.382 13.5724C115.929 13.5724 116.387 13.4216 116.755 13.1208C117.123 12.8157 117.396 12.4072 117.576 11.8952C117.76 11.3841 117.852 10.8135 117.852 10.1852C117.852 9.55259 117.76 8.98029 117.576 8.46833C117.396 7.95206 117.123 7.54094 116.755 7.23583C116.387 6.93073 115.929 6.77817 115.382 6.77817C114.822 6.77817 114.355 6.93073 113.983 7.23583C113.615 7.54094 113.338 7.95206 113.155 8.46833C112.976 8.98029 112.885 9.55259 112.885 10.1852C112.885 10.8135 112.976 11.3841 113.155 11.8952C113.338 12.4072 113.615 12.8157 113.983 13.1208C114.355 13.4216 114.822 13.5724 115.382 13.5724ZM127.626 4.98026V6.86523H121.515V4.98026H127.626ZM123.042 15.3229V4.00375C123.042 3.3082 123.186 2.729 123.473 2.26703C123.765 1.80419 124.155 1.45859 124.644 1.22933C125.133 1.00093 125.676 0.886287 126.272 0.886287C126.695 0.886287 127.069 0.919905 127.397 0.987132C127.724 1.05436 127.967 1.11555 128.124 1.16899L127.639 3.0548C127.536 3.02291 127.405 2.99189 127.248 2.96C127.092 2.92466 126.917 2.90655 126.724 2.90655C126.271 2.90655 125.949 3.01601 125.762 3.23665C125.577 3.45213 125.485 3.76155 125.485 4.16577V15.3229H123.042ZM139.396 4.98026V6.86523H133.453V4.98026H139.396ZM134.92 2.50233H137.357V12.2124C137.357 12.5399 137.406 12.7916 137.505 12.9665C137.608 13.1372 137.742 13.2535 137.909 13.3165C138.075 13.3794 138.258 13.4104 138.461 13.4104C138.613 13.4104 138.752 13.3992 138.878 13.3768C139.008 13.3544 139.107 13.3346 139.174 13.3165L139.585 15.2221C139.454 15.2669 139.268 15.316 139.026 15.3703C138.788 15.4238 138.496 15.4557 138.151 15.4643C137.541 15.4824 136.991 15.3902 136.502 15.1885C136.013 14.9816 135.625 14.6627 135.338 14.2318C135.056 13.8009 134.916 13.2622 134.92 12.6158V2.50233ZM144.092 9.26299V15.3229H141.656V1.5327H144.038V6.73766H144.159C144.401 6.15416 144.776 5.69392 145.283 5.35692C145.795 5.01647 146.445 4.8458 147.234 4.8458C147.953 4.8458 148.578 4.99578 149.112 5.29658C149.646 5.59738 150.059 6.03781 150.351 6.61614C150.646 7.19533 150.795 7.90294 150.795 8.73725V15.3229H148.359V9.11475C148.359 8.4192 148.179 7.87794 147.82 7.49181C147.466 7.10138 146.967 6.90573 146.326 6.90573C145.896 6.90573 145.51 7.00055 145.169 7.18844C144.832 7.37288 144.567 7.64006 144.374 7.98999C144.186 8.33992 144.092 8.76482 144.092 9.26299ZM157.854 15.5246C156.818 15.5246 155.923 15.3092 155.169 14.8782C154.42 14.443 153.843 13.8284 153.44 13.0338C153.036 12.2348 152.834 11.2945 152.834 10.2119C152.834 9.14837 153.036 8.21494 153.44 7.4108C153.848 6.60321 154.418 5.97488 155.149 5.52584C155.881 5.07248 156.739 4.8458 157.727 4.8458C158.364 4.8458 158.965 4.94924 159.53 5.15523C160.1 5.35691 160.603 5.6715 161.038 6.09813C161.477 6.52477 161.823 7.06777 162.074 7.72712C162.326 8.38302 162.451 9.16388 162.451 10.0706V10.8179H153.979V9.17509H160.116C160.111 8.7088 160.01 8.29337 159.813 7.92965C159.616 7.56162 159.339 7.27203 158.985 7.06087C158.635 6.84971 158.227 6.74455 157.76 6.74455C157.262 6.74455 156.825 6.86521 156.448 7.10827C156.071 7.34615 155.777 7.65989 155.566 8.05033C155.36 8.43645 155.254 8.86136 155.25 9.32333V10.7575C155.25 11.3591 155.36 11.8754 155.58 12.3063C155.8 12.733 156.107 13.0605 156.502 13.2897C156.897 13.5138 157.359 13.6259 157.889 13.6259C158.243 13.6259 158.563 13.5768 158.851 13.4776C159.138 13.3751 159.387 13.2242 159.598 13.0269C159.809 12.8295 159.968 12.5847 160.076 12.2925L162.35 12.5485C162.207 13.1501 161.933 13.6759 161.529 14.1241C161.13 14.5688 160.618 14.9144 159.995 15.1609C159.371 15.404 158.658 15.5246 157.854 15.5246ZM169.213 15.3229V4.98026H171.649V15.3229H169.213ZM170.438 3.51246C170.052 3.51246 169.72 3.38404 169.442 3.12892C169.164 2.86776 169.024 2.55576 169.024 2.1929C169.024 1.82488 169.164 1.51288 169.442 1.25689C169.72 0.996603 170.052 0.866455 170.438 0.866455C170.828 0.866455 171.16 0.996603 171.434 1.25689C171.712 1.51288 171.851 1.82488 171.851 2.1929C171.851 2.55576 171.712 2.86776 171.434 3.12892C171.16 3.38404 170.828 3.51246 170.438 3.51246ZM179.316 4.98026V6.86523H173.374V4.98026H179.316ZM174.841 2.50233H177.277V12.2124C177.277 12.5399 177.327 12.7916 177.425 12.9665C177.528 13.1372 177.663 13.2535 177.829 13.3165C177.995 13.3794 178.179 13.4104 178.381 13.4104C178.533 13.4104 178.672 13.3992 178.798 13.3768C178.928 13.3544 179.027 13.3346 179.094 13.3165L179.504 15.2221C179.374 15.2669 179.188 15.316 178.946 15.3703C178.708 15.4238 178.416 15.4557 178.071 15.4643C177.461 15.4824 176.911 15.3902 176.422 15.1885C175.933 14.9816 175.545 14.6627 175.258 14.2318C174.976 13.8009 174.836 13.2622 174.841 12.6158V2.50233ZM185.819 15.5246C184.782 15.5246 183.887 15.3092 183.133 14.8782C182.384 14.443 181.808 13.8284 181.404 13.0338C181.001 12.2348 180.798 11.2945 180.798 10.2119C180.798 9.14837 181.001 8.21494 181.404 7.4108C181.812 6.60321 182.382 5.97488 183.114 5.52584C183.845 5.07248 184.704 4.8458 185.691 4.8458C186.329 4.8458 186.929 4.94924 187.495 5.15523C188.064 5.35691 188.566 5.6715 189.002 6.09813C189.442 6.52477 189.787 7.06777 190.039 7.72712C190.289 8.38302 190.415 9.16388 190.415 10.0706V10.8179H181.942V9.17509H188.08C188.075 8.7088 187.975 8.29337 187.777 7.92965C187.58 7.56162 187.304 7.27203 186.95 7.06087C186.6 6.84971 186.192 6.74455 185.725 6.74455C185.227 6.74455 184.789 6.86521 184.413 7.10827C184.035 7.34615 183.742 7.65989 183.531 8.05033C183.325 8.43645 183.219 8.86136 183.214 9.32333V10.7575C183.214 11.3591 183.325 11.8754 183.544 12.3063C183.764 12.733 184.072 13.0605 184.466 13.2897C184.861 13.5138 185.323 13.6259 185.852 13.6259C186.207 13.6259 186.527 13.5768 186.815 13.4776C187.102 13.3751 187.351 13.2242 187.562 13.0269C187.773 12.8295 187.932 12.5847 188.04 12.2925L190.314 12.5485C190.17 13.1501 189.897 13.6759 189.493 14.1241C189.094 14.5688 188.583 14.9144 187.959 15.1609C187.336 15.404 186.622 15.5246 185.819 15.5246ZM192.476 15.3229V4.98026H194.805V6.73766H194.926C195.142 6.14554 195.498 5.6827 195.996 5.35087C196.494 5.01387 197.089 4.8458 197.779 4.8458C198.48 4.8458 199.07 5.01647 199.55 5.35692C200.034 5.69392 200.375 6.15416 200.572 6.73766H200.68C200.909 6.16278 201.295 5.70512 201.838 5.36381C202.385 5.01819 203.033 4.8458 203.783 4.8458C204.734 4.8458 205.51 5.1466 206.111 5.7482C206.712 6.3498 207.013 7.22722 207.013 8.38043V15.3229H204.57V8.75792C204.57 8.11582 204.399 7.64695 204.058 7.35046C203.717 7.04966 203.3 6.89968 202.807 6.89968C202.219 6.89968 201.759 7.08328 201.428 7.45131C201.099 7.81502 200.936 8.28905 200.936 8.87255V15.3229H198.547V8.65708C198.547 8.12271 198.385 7.69608 198.062 7.37719C197.743 7.05829 197.326 6.89968 196.81 6.89968C196.461 6.89968 196.142 6.98933 195.855 7.1686C195.567 7.34357 195.339 7.59266 195.168 7.91587C194.998 8.23477 194.913 8.6071 194.913 9.03374V15.3229H192.476Z" fill="#555555"/>
</svg>
