<svg width="13" height="19" viewBox="0 0 13 19" fill="none" xmlns="http://www.w3.org/2000/svg">
<path d="M5.80738 19.002V0.197266H7.01148V19.002H5.80738ZM9.28004 6.21324C9.21147 5.57113 8.92272 5.07209 8.41371 4.7144C7.9096 4.35672 7.25372 4.1783 6.44613 4.1783C5.87836 4.1783 5.3914 4.26366 4.98515 4.43517C4.5789 4.60669 4.2681 4.8394 4.05274 5.1333C3.83738 5.4272 3.72729 5.76245 3.72238 6.13996C3.72238 6.45283 3.79337 6.72436 3.93524 6.95535C4.08212 7.18547 4.28033 7.38109 4.52997 7.54227C4.77961 7.69913 5.05613 7.83186 5.35952 7.9396C5.663 8.04733 5.9689 8.13783 6.27729 8.2111L7.68693 8.56361C8.25461 8.69547 8.8004 8.87476 9.32406 9.09971C9.85272 9.32552 10.325 9.6091 10.741 9.95213C11.1619 10.2952 11.4948 10.7089 11.7391 11.1933C11.9846 11.6785 12.1069 12.2465 12.1069 12.8972C12.1069 13.7789 11.8812 14.5555 11.4311 15.226C10.9808 15.8923 10.3299 16.4137 9.47826 16.7904C8.63148 17.1627 7.60612 17.3488 6.40211 17.3488C5.23229 17.3488 4.21667 17.1678 3.35524 16.8058C2.49873 16.443 1.8282 15.9138 1.34365 15.2192C0.864003 14.5236 0.604625 13.6763 0.56543 12.6774H3.24515C3.28435 13.2014 3.44587 13.6367 3.72971 13.9849C4.01363 14.3323 4.3831 14.5917 4.83828 14.7632C5.29837 14.9347 5.81229 15.02 6.38005 15.02C6.97228 15.02 7.49112 14.9321 7.93648 14.7563C8.38683 14.5744 8.73916 14.3253 8.99371 14.0064C9.24826 13.6832 9.3779 13.3066 9.38281 12.8756C9.3779 12.4835 9.2629 12.1603 9.03773 11.906C8.81264 11.6466 8.49692 11.4311 8.09067 11.2596C7.68934 11.0829 7.21943 10.9261 6.68104 10.789L4.97042 10.3486C3.73212 10.0306 2.75328 9.54791 2.03382 8.90149C1.31918 8.2499 0.961862 7.38629 0.961862 6.30893C0.961862 5.42205 1.20168 4.64632 1.68141 3.98008C2.16596 3.31384 2.82426 2.79759 3.65631 2.43043C4.48837 2.05809 5.4305 1.87191 6.48282 1.87191C7.54987 1.87191 8.48469 2.05809 9.28736 2.43043C10.095 2.79759 10.7288 3.3087 11.1889 3.96546C11.649 4.61618 11.8864 5.366 11.901 6.21324H9.28004Z" fill="#FF6868"/>
</svg>
