<svg width="12" height="20" viewBox="0 0 12 20" fill="none" xmlns="http://www.w3.org/2000/svg">
<path d="M5.25495 19.4165V0.611816H6.45224V19.4165H5.25495ZM8.72641 6.62779C8.6575 5.98568 8.36461 5.48664 7.85636 5.12895C7.35674 4.77127 6.70213 4.59285 5.89239 4.59285C5.32385 4.59285 4.83278 4.67821 4.42791 4.84972C4.02304 5.02124 3.71296 5.25395 3.49761 5.54785C3.28225 5.84176 3.17026 6.177 3.17026 6.55451C3.17026 6.86738 3.23916 7.13891 3.37699 7.3699C3.52344 7.60002 3.72151 7.79565 3.97133 7.95682C4.22114 8.11368 4.49688 8.24641 4.80699 8.35415C5.10849 8.46188 5.40993 8.55239 5.72005 8.62565L7.1328 8.97816C7.70134 9.11003 8.24406 9.28931 8.76953 9.51426C9.295 9.74007 9.76879 10.0236 10.1823 10.3667C10.6044 10.7097 10.9404 11.1234 11.1816 11.6078C11.4314 12.093 11.5519 12.661 11.5519 13.3118C11.5519 14.1935 11.3279 14.9701 10.8714 15.6406C10.4234 16.3068 9.77734 16.8283 8.92452 17.2049C8.07171 17.5773 7.04666 17.7634 5.84928 17.7634C4.67774 17.7634 3.66123 17.5824 2.7998 17.2204C1.94699 16.8575 1.27511 16.3284 0.784093 15.6337C0.310309 14.9382 0.0518603 14.0909 0.00878906 13.092H2.68781C2.73088 13.616 2.88599 14.0513 3.17026 14.3995C3.45453 14.7468 3.82498 15.0062 4.28153 15.1777C4.7467 15.3492 5.25487 15.4346 5.82341 15.4346C6.4178 15.4346 6.9347 15.3467 7.38264 15.1708C7.83058 14.989 8.18375 14.7399 8.44218 14.421C8.69199 14.0978 8.82117 13.7211 8.82978 13.2902C8.82117 12.898 8.70926 12.5748 8.48529 12.3206C8.25271 12.0611 7.94251 11.8457 7.53764 11.6741C7.13277 11.4975 6.66759 11.3406 6.12489 11.2036L4.41066 10.7632C3.17882 10.4451 2.19688 9.96246 1.4819 9.31604C0.766915 8.66445 0.405116 7.80084 0.405116 6.72348C0.405116 5.8366 0.646286 5.06087 1.12868 4.39463C1.61108 3.72839 2.2658 3.21214 3.10138 2.84498C3.92835 2.47264 4.87584 2.28646 5.92678 2.28646C6.99495 2.28646 7.9253 2.47264 8.73504 2.84498C9.53616 3.21214 10.1737 3.72325 10.6302 4.38001C11.0954 5.03073 11.328 5.78055 11.3452 6.62779H8.72641Z" fill="#FF6868"/>
</svg>
