<svg width="12" height="19" viewBox="0 0 12 19" fill="none" xmlns="http://www.w3.org/2000/svg">
<path d="M5.46054 19.002V0.197266H6.66477V19.002H5.46054ZM8.9329 6.21324C8.86485 5.57113 8.57632 5.07209 8.06722 4.7144C7.56242 4.35672 6.90688 4.1783 6.09973 4.1783C5.53205 4.1783 5.04444 4.26366 4.63871 4.43517C4.23212 4.60669 3.92113 4.8394 3.70578 5.1333C3.49042 5.4272 3.38016 5.76245 3.37586 6.13996C3.37586 6.45283 3.4465 6.72436 3.58864 6.95535C3.73508 7.18547 3.93321 7.38109 4.18302 7.54227C4.43284 7.69913 4.70936 7.83186 5.01259 7.9396C5.31667 8.04733 5.62246 8.13783 5.93085 8.2111L7.34013 8.56361C7.90781 8.69547 8.45395 8.87476 8.9777 9.09971C9.50575 9.32552 9.97785 9.6091 10.3939 9.95213C10.8152 10.2952 11.1477 10.7089 11.3923 11.1933C11.6378 11.6785 11.7601 12.2465 11.7601 12.8972C11.7601 13.7789 11.5344 14.5555 11.0848 15.226C10.6343 15.8923 9.983 16.4137 9.13191 16.7904C8.28513 17.1627 7.2592 17.3488 6.05493 17.3488C4.88598 17.3488 3.87035 17.1678 3.00892 16.8058C2.1518 16.443 1.48161 15.9138 0.99663 15.2192C0.517678 14.5236 0.257514 13.6763 0.21875 12.6774H2.89867C2.93743 13.2014 3.09933 13.6367 3.38274 13.9849C3.66701 14.3323 4.03661 14.5917 4.49144 14.7632C4.95144 14.9347 5.46569 15.02 6.03337 15.02C6.62517 15.02 7.14462 14.9321 7.58998 14.7563C8.03964 14.5744 8.39282 14.3253 8.64694 14.0064C8.90106 13.6832 9.03115 13.3066 9.03632 12.8756C9.03115 12.4835 8.91658 12.1603 8.69089 11.906C8.46606 11.6466 8.14992 11.4311 7.74418 11.2596C7.34276 11.0829 6.8724 10.9261 6.33401 10.789L4.62409 10.3486C3.38536 10.0306 2.40675 9.54791 1.6866 8.90149C0.97248 8.2499 0.615025 7.38629 0.615025 6.30893C0.615025 5.42205 0.855329 4.64632 1.33428 3.98008C1.81926 3.31384 2.47742 2.79759 3.30956 2.43043C4.14169 2.05809 5.0841 1.87191 6.1359 1.87191C7.20321 1.87191 8.13784 2.05809 8.94069 2.43043C9.74784 2.79759 10.3818 3.3087 10.8418 3.96546C11.3018 4.61618 11.5396 5.366 11.5542 6.21324H8.9329Z" fill="#FF6868"/>
</svg>
