<svg width="31" height="16" viewBox="0 0 31 16" fill="none" xmlns="http://www.w3.org/2000/svg">
<path d="M0.389648 12.7971V10.6303L6.76422 0.544434H8.57319V3.63001H7.47054L3.17204 10.4398V10.557H12.0793V12.7971H0.389648ZM7.55677 15.5887V12.136L7.59116 11.1664V0.544434H10.1582V15.5887H7.55677ZM15.6713 15.7508C15.2234 15.7508 14.8444 15.5939 14.5257 15.2802C14.2069 14.9665 14.0518 14.5846 14.0518 14.1339C14.0518 13.6935 14.2069 13.3168 14.5257 13.0031C14.8444 12.6893 15.2234 12.5334 15.6713 12.5334C16.102 12.5334 16.4725 12.6893 16.7912 13.0031C17.1186 13.3168 17.2822 13.6935 17.2822 14.1339C17.2822 14.433 17.2046 14.7044 17.0496 14.9501C16.9032 15.1948 16.7051 15.3905 16.4639 15.537C16.2227 15.6792 15.9556 15.7508 15.6713 15.7508ZM25.0436 15.7947C24.0702 15.7947 23.1916 15.6111 22.4164 15.2431C21.6411 14.8716 21.0295 14.3623 20.5729 13.7159C20.125 13.0695 19.8837 12.3299 19.8578 11.4973H22.4939C22.5455 12.1145 22.8125 12.6186 23.2949 13.0108C23.7859 13.3969 24.3631 13.5909 25.0436 13.5909C25.5777 13.5909 26.0515 13.4685 26.465 13.2237C26.8871 12.9789 27.2145 12.6385 27.4557 12.2024C27.6969 11.7662 27.8088 11.2698 27.8088 10.7113C27.8088 10.1433 27.6883 9.63913 27.4471 9.19784C27.1972 8.75742 26.8699 8.41176 26.4392 8.16267C26.0171 7.90755 25.5261 7.78002 24.9748 7.78002C24.5182 7.77571 24.0788 7.85843 23.6395 8.02995C23.2088 8.20146 22.8643 8.42641 22.6059 8.70566L20.1508 8.30144L20.9346 0.544434H29.6523V2.82241H23.1916L22.7522 6.81039H22.8385C23.1227 6.48287 23.519 6.21053 24.0272 5.99506C24.5355 5.77527 25.0953 5.66496 25.6983 5.66496C26.6115 5.66496 27.4212 5.88043 28.1361 6.31137C28.8511 6.73715 29.4111 7.32494 29.8246 8.07392C30.2381 8.82377 30.4448 9.68046 30.4448 10.6449C30.4448 11.6395 30.2122 12.5256 29.747 13.3039C29.2991 14.0778 28.6616 14.688 27.8519 15.1336C27.0422 15.5741 26.1032 15.7947 25.0436 15.7947Z" fill="#454545"/>
</svg>
