<svg width="208" height="19" viewBox="0 0 208 19" fill="none" xmlns="http://www.w3.org/2000/svg">
<path d="M5.65591 14.6843H0.985352V0.894033H5.75015C7.11853 0.894033 8.29403 1.16984 9.27657 1.72231C10.2637 2.26961 11.0219 3.05738 11.5513 4.08561C12.0804 5.11385 12.3457 6.34377 12.3457 7.77537C12.3457 9.21214 12.0787 10.4464 11.5445 11.4789C11.0152 12.5115 10.2502 13.3035 9.24969 13.856C8.25363 14.4085 7.05573 14.6843 5.65591 14.6843ZM3.48219 12.5227H5.5348C6.49494 12.5227 7.29572 12.3477 7.93731 11.9978C8.5789 11.6427 9.06122 11.1152 9.38425 10.4153C9.70729 9.7103 9.8688 8.83032 9.8688 7.77537C9.8688 6.72042 9.70729 5.8456 9.38425 5.14919C9.06122 4.44934 8.58338 3.92617 7.95084 3.58055C7.32269 3.23062 6.54197 3.05565 5.60879 3.05565H3.48219V12.5227ZM19.1863 14.886C18.15 14.886 17.255 14.6705 16.5013 14.2395C15.7518 13.8043 15.1755 13.1897 14.7715 12.3951C14.3675 11.5961 14.1659 10.6558 14.1659 9.57327C14.1659 8.5097 14.3675 7.57627 14.7715 6.77213C15.1798 5.96454 15.7492 5.33621 16.4806 4.88717C17.2119 4.43381 18.0716 4.20713 19.0588 4.20713C19.6954 4.20713 20.2967 4.31057 20.8618 4.51656C21.4321 4.71824 21.9343 5.03283 22.3693 5.45946C22.8095 5.8861 23.1549 6.4291 23.4056 7.08845C23.6571 7.74434 23.7829 8.52521 23.7829 9.43192V10.1792H15.3099V8.53642H21.4476C21.4433 8.07013 21.3425 7.6547 21.1444 7.29098C20.9471 6.92295 20.6714 6.63336 20.3174 6.4222C19.9668 6.21103 19.5585 6.10588 19.0924 6.10588C18.5945 6.10588 18.1569 6.22654 17.7796 6.46959C17.4032 6.70748 17.1094 7.02122 16.8984 7.41165C16.6916 7.79778 16.5865 8.22268 16.5822 8.68466V10.1188C16.5822 10.7204 16.6916 11.2367 16.9113 11.6677C17.1318 12.0943 17.4385 12.4218 17.8339 12.6511C18.2284 12.8752 18.691 12.9872 19.2199 12.9872C19.5748 12.9872 19.8953 12.9381 20.1821 12.839C20.4699 12.7364 20.7188 12.5856 20.929 12.3882C21.14 12.1908 21.2994 11.9461 21.4071 11.6539L23.6821 11.9099C23.5383 12.5115 23.2643 13.0372 22.8612 13.4854C22.4615 13.9301 21.9498 14.2757 21.3261 14.5222C20.7024 14.7653 19.9892 14.886 19.1863 14.886ZM34.014 7.07551L31.7933 7.3177C31.7304 7.09361 31.6201 6.88244 31.4634 6.68507C31.3109 6.48769 31.1042 6.32825 30.844 6.20672C30.5838 6.0852 30.2651 6.02487 29.8887 6.02487C29.3813 6.02487 28.9558 6.13518 28.6095 6.35497C28.2692 6.57475 28.1004 6.86004 28.1055 7.20997C28.1004 7.51076 28.2106 7.75553 28.4346 7.94429C28.6637 8.13218 29.0402 8.28732 29.5656 8.40885L31.329 8.7855C32.3067 8.99667 33.0337 9.33108 33.5093 9.78874C33.9891 10.2473 34.232 10.8463 34.2363 11.5866C34.232 12.2374 34.0408 12.8123 33.6643 13.3104C33.2913 13.8043 32.7736 14.1904 32.1094 14.4688C31.4453 14.7472 30.6829 14.886 29.8215 14.886C28.5561 14.886 27.5378 14.6214 26.766 14.0913C25.9942 13.5578 25.5342 12.8148 25.386 11.8633L27.7618 11.634C27.8695 12.1012 28.0986 12.4528 28.4484 12.6907C28.7981 12.9295 29.2538 13.0484 29.8146 13.0484C30.3935 13.0484 30.8578 12.9295 31.2075 12.6907C31.5624 12.4528 31.739 12.1589 31.739 11.809C31.739 11.5125 31.6245 11.2678 31.3962 11.0747C31.1713 10.8825 30.8216 10.7342 30.3461 10.6308L28.5828 10.2602C27.5913 10.0542 26.8582 9.706 26.3827 9.21645C25.9063 8.72258 25.6711 8.09858 25.6754 7.34443C25.6711 6.70749 25.8443 6.15502 26.194 5.68787C26.5481 5.21728 27.0399 4.85355 27.6679 4.59757C28.3002 4.33728 29.029 4.20713 29.8551 4.20713C31.0663 4.20713 32.0198 4.46485 32.715 4.98112C33.4154 5.49739 33.8478 6.19552 34.014 7.07551ZM40.7538 14.886C39.7219 14.886 38.8363 14.6593 38.0955 14.2059C37.3598 13.7526 36.7922 13.1268 36.3933 12.3279C35.9979 11.5237 35.8006 10.5989 35.8006 9.55344C35.8006 8.5028 36.0031 7.57627 36.4062 6.77213C36.8102 5.96454 37.3796 5.33621 38.1162 4.88717C38.8561 4.43381 39.7313 4.20713 40.7409 4.20713C41.5791 4.20713 42.3216 4.36141 42.9677 4.67169C43.6189 4.9768 44.1367 5.41033 44.5226 5.97142C44.9085 6.52734 45.1282 7.17894 45.1824 7.92361H42.854C42.7592 7.42544 42.5353 7.01 42.1804 6.67818C41.8306 6.34118 41.362 6.17311 40.7745 6.17311C40.2758 6.17311 39.839 6.30756 39.4617 6.57733C39.0853 6.84193 38.7906 7.22375 38.5805 7.72192C38.3737 8.2201 38.2703 8.81739 38.2703 9.51293C38.2703 10.218 38.3737 10.8239 38.5805 11.3307C38.7863 11.834 39.0758 12.2219 39.4488 12.4959C39.8252 12.7648 40.2671 12.9002 40.7745 12.9002C41.1329 12.9002 41.4542 12.8329 41.7367 12.6976C42.0236 12.5589 42.2639 12.3589 42.4569 12.0986C42.6498 11.8383 42.7816 11.522 42.854 11.1488H45.1824C45.1239 11.8806 44.9085 12.5296 44.5364 13.095C44.1634 13.656 43.6568 14.0965 43.0151 14.4145C42.3733 14.7291 41.6196 14.886 40.7538 14.886ZM47.1827 14.6843V4.34159H49.5447V6.06537H49.6524C49.841 5.46808 50.1641 5.00784 50.6215 4.68463C51.0841 4.35712 51.6113 4.19335 52.2031 4.19335C52.3374 4.19335 52.4882 4.20023 52.6544 4.21402C52.825 4.22264 52.9663 4.23817 53.0783 4.26058V6.50321C52.9749 6.46701 52.8112 6.43599 52.5864 6.40841C52.3667 6.37739 52.154 6.36186 51.9472 6.36186C51.5036 6.36186 51.1039 6.45839 50.7498 6.65145C50.3992 6.83934 50.1236 7.10222 49.922 7.43922C49.7196 7.77536 49.6188 8.16408 49.6188 8.60365V14.6843H47.1827ZM54.6969 14.6843V4.34159H57.133V14.6843H54.6969ZM55.9218 2.87379C55.5359 2.87379 55.2034 2.74536 54.9252 2.49024C54.6469 2.22909 54.5082 1.91709 54.5082 1.55423C54.5082 1.18621 54.6469 0.874203 54.9252 0.618222C55.2034 0.357931 55.5359 0.227783 55.9218 0.227783C56.3121 0.227783 56.6437 0.357931 56.9176 0.618222C57.1959 0.874203 57.3346 1.18621 57.3346 1.55423C57.3346 1.91709 57.1959 2.22909 56.9176 2.49024C56.6437 2.74536 56.3121 2.87379 55.9218 2.87379ZM59.638 18.5628V4.34159H62.0336V6.05159H62.1749C62.3007 5.80078 62.4781 5.53358 62.7073 5.25088C62.9356 4.96301 63.2457 4.71824 63.6359 4.51656C64.0261 4.31057 64.524 4.20713 65.1296 4.20713C65.9281 4.20713 66.6483 4.4114 67.2901 4.81994C67.9361 5.2233 68.4478 5.82317 68.8243 6.61784C69.2059 7.40733 69.3962 8.37695 69.3962 9.52672C69.3962 10.6618 69.2102 11.6271 68.838 12.4218C68.465 13.2165 67.9585 13.8224 67.3168 14.2395C66.675 14.6576 65.9488 14.8661 65.1365 14.8661C64.5438 14.8661 64.0528 14.767 63.6626 14.5696C63.2724 14.3723 62.958 14.1344 62.7202 13.856C62.4868 13.5733 62.305 13.3061 62.1749 13.0544H62.0741V18.5628H59.638ZM62.0267 9.51293C62.0267 10.1818 62.1215 10.7678 62.3102 11.2703C62.5031 11.7728 62.7788 12.1658 63.138 12.4485C63.5007 12.7269 63.9408 12.8665 64.4568 12.8665C64.9952 12.8665 65.4457 12.7226 65.8093 12.4356C66.1728 12.1434 66.4467 11.7461 66.6302 11.2436C66.8189 10.736 66.9128 10.1594 66.9128 9.51293C66.9128 8.87082 66.8214 8.30111 66.6371 7.80294C66.4528 7.3039 66.1797 6.91348 65.8162 6.63078C65.4526 6.34808 64.9995 6.20672 64.4568 6.20672C63.9365 6.20672 63.4946 6.34376 63.1311 6.61784C62.7676 6.89106 62.4919 7.27546 62.3033 7.76932C62.1189 8.26232 62.0267 8.84411 62.0267 9.51293ZM76.6443 4.34159V6.22656H70.7022V4.34159H76.6443ZM72.1692 1.86366H74.6053V11.5737C74.6053 11.9012 74.6544 12.1529 74.7534 12.3279C74.8568 12.4985 74.9912 12.6149 75.1575 12.6778C75.3229 12.7407 75.5072 12.7717 75.7088 12.7717C75.8613 12.7717 76.0008 12.7605 76.1266 12.7381C76.2566 12.7157 76.3548 12.6959 76.422 12.6778L76.8329 14.5834C76.7029 14.6282 76.5168 14.6774 76.2747 14.7317C76.0361 14.7851 75.7449 14.817 75.3995 14.8256C74.7896 14.8437 74.24 14.7515 73.7507 14.5498C73.2615 14.343 72.8738 14.0241 72.5861 13.5931C72.3036 13.1622 72.1649 12.6235 72.1692 11.9771V1.86366ZM78.6815 14.6843V4.34159H81.1185V14.6843H78.6815ZM79.9065 2.87379C79.5206 2.87379 79.1889 2.74536 78.9107 2.49024C78.6325 2.22909 78.4938 1.91709 78.4938 1.55423C78.4938 1.18621 78.6325 0.874203 78.9107 0.618222C79.1889 0.357931 79.5206 0.227783 79.9065 0.227783C80.2967 0.227783 80.6292 0.357931 80.9032 0.618222C81.1806 0.874203 81.3201 1.18621 81.3201 1.55423C81.3201 1.91709 81.1806 2.22909 80.9032 2.49024C80.6292 2.74536 80.2967 2.87379 79.9065 2.87379ZM88.1323 14.886C87.1227 14.886 86.2483 14.6644 85.5075 14.2197C84.7675 13.775 84.193 13.1536 83.7846 12.3546C83.3815 11.5556 83.1791 10.6213 83.1791 9.55344C83.1791 8.4847 83.3815 7.54869 83.7846 6.74541C84.193 5.94212 84.7675 5.31812 85.5075 4.87338C86.2483 4.42951 87.1227 4.20713 88.1323 4.20713C89.1419 4.20713 90.0171 4.42951 90.757 4.87338C91.497 5.31812 92.069 5.94212 92.473 6.74541C92.8813 7.54869 93.0855 8.4847 93.0855 9.55344C93.0855 10.6213 92.8813 11.5556 92.473 12.3546C92.069 13.1536 91.497 13.775 90.757 14.2197C90.0171 14.6644 89.1419 14.886 88.1323 14.886ZM88.146 12.9338C88.693 12.9338 89.1505 12.7829 89.5192 12.4822C89.887 12.177 90.1601 11.7685 90.3401 11.2565C90.5236 10.7454 90.6157 10.1749 90.6157 9.54655C90.6157 8.91392 90.5236 8.34162 90.3401 7.82966C90.1601 7.31339 89.887 6.90227 89.5192 6.59716C89.1505 6.29205 88.693 6.13949 88.146 6.13949C87.5852 6.13949 87.1184 6.29205 86.7462 6.59716C86.3784 6.90227 86.1019 7.31339 85.9184 7.82966C85.7383 8.34162 85.6488 8.91392 85.6488 9.54655C85.6488 10.1749 85.7383 10.7454 85.9184 11.2565C86.1019 11.7685 86.3784 12.177 86.7462 12.4822C87.1184 12.7829 87.5852 12.9338 88.146 12.9338ZM97.5899 8.62432V14.6843H95.1537V4.34159H97.4822V6.09899H97.6028C97.8405 5.5198 98.2196 5.05956 98.7407 4.71825C99.2653 4.3778 99.914 4.20713 100.685 4.20713C101.399 4.20713 102.02 4.35969 102.549 4.6648C103.083 4.96991 103.496 5.41206 103.788 5.99125C104.084 6.57044 104.23 7.27289 104.225 8.09858V14.6843H101.789V8.47608C101.789 7.78484 101.609 7.24358 101.251 6.85314C100.896 6.46271 100.405 6.26706 99.777 6.26706C99.3506 6.26706 98.9716 6.36187 98.6391 6.54977C98.3117 6.73421 98.0542 7.00139 97.8655 7.35132C97.6812 7.70124 97.5899 8.12615 97.5899 8.62432ZM115.912 14.886C114.902 14.886 114.028 14.6644 113.287 14.2197C112.547 13.775 111.972 13.1536 111.564 12.3546C111.161 11.5556 110.958 10.6213 110.958 9.55344C110.958 8.4847 111.161 7.54869 111.564 6.74541C111.972 5.94212 112.547 5.31812 113.287 4.87338C114.028 4.42951 114.902 4.20713 115.912 4.20713C116.921 4.20713 117.796 4.42951 118.536 4.87338C119.276 5.31812 119.849 5.94212 120.252 6.74541C120.661 7.54869 120.865 8.4847 120.865 9.55344C120.865 10.6213 120.661 11.5556 120.252 12.3546C119.849 13.1536 119.276 13.775 118.536 14.2197C117.796 14.6644 116.921 14.886 115.912 14.886ZM115.925 12.9338C116.472 12.9338 116.93 12.7829 117.298 12.4822C117.666 12.177 117.939 11.7685 118.119 11.2565C118.303 10.7454 118.395 10.1749 118.395 9.54655C118.395 8.91392 118.303 8.34162 118.119 7.82966C117.939 7.31339 117.666 6.90227 117.298 6.59716C116.93 6.29205 116.472 6.13949 115.925 6.13949C115.365 6.13949 114.898 6.29205 114.525 6.59716C114.158 6.90227 113.881 7.31339 113.698 7.82966C113.518 8.34162 113.428 8.91392 113.428 9.54655C113.428 10.1749 113.518 10.7454 113.698 11.2565C113.881 11.7685 114.158 12.177 114.525 12.4822C114.898 12.7829 115.365 12.9338 115.925 12.9338ZM128.169 4.34159V6.22656H122.058V4.34159H128.169ZM123.585 14.6843V3.36508C123.585 2.66953 123.729 2.09033 124.016 1.62835C124.308 1.16552 124.698 0.819919 125.187 0.590657C125.676 0.362256 126.219 0.247616 126.815 0.247616C127.238 0.247616 127.612 0.281233 127.94 0.34846C128.267 0.415688 128.51 0.476881 128.667 0.530318L128.182 2.41612C128.079 2.38423 127.948 2.35322 127.791 2.32133C127.635 2.28599 127.46 2.26788 127.267 2.26788C126.814 2.26788 126.492 2.37734 126.305 2.59798C126.12 2.81345 126.028 3.12287 126.028 3.5271V14.6843H123.585ZM139.939 4.34159V6.22656H133.996V4.34159H139.939ZM135.463 1.86366H137.9V11.5737C137.9 11.9012 137.949 12.1529 138.048 12.3279C138.151 12.4985 138.285 12.6149 138.452 12.6778C138.618 12.7407 138.801 12.7717 139.004 12.7717C139.156 12.7717 139.295 12.7605 139.421 12.7381C139.551 12.7157 139.65 12.6959 139.717 12.6778L140.128 14.5834C139.997 14.6282 139.811 14.6774 139.569 14.7317C139.331 14.7851 139.039 14.817 138.694 14.8256C138.084 14.8437 137.534 14.7515 137.045 14.5498C136.556 14.343 136.168 14.0241 135.881 13.5931C135.599 13.1622 135.459 12.6235 135.463 11.9771V1.86366ZM144.635 8.62432V14.6843H142.199V0.894033H144.581V6.09899H144.702C144.944 5.51549 145.319 5.05525 145.826 4.71825C146.338 4.3778 146.988 4.20713 147.777 4.20713C148.496 4.20713 149.121 4.35711 149.655 4.65791C150.189 4.95871 150.602 5.39914 150.894 5.97747C151.189 6.55666 151.338 7.26427 151.338 8.09858V14.6843H148.902V8.47608C148.902 7.78053 148.722 7.23927 148.363 6.85314C148.009 6.46271 147.51 6.26706 146.869 6.26706C146.439 6.26706 146.053 6.36187 145.712 6.54977C145.375 6.73421 145.11 7.00139 144.917 7.35132C144.729 7.70124 144.635 8.12615 144.635 8.62432ZM158.397 14.886C157.361 14.886 156.466 14.6705 155.712 14.2395C154.963 13.8043 154.386 13.1897 153.983 12.3951C153.579 11.5961 153.377 10.6558 153.377 9.57327C153.377 8.5097 153.579 7.57627 153.983 6.77213C154.391 5.96454 154.961 5.33621 155.692 4.88717C156.424 4.43381 157.282 4.20713 158.27 4.20713C158.907 4.20713 159.508 4.31057 160.073 4.51656C160.643 4.71824 161.146 5.03283 161.581 5.45946C162.02 5.8861 162.366 6.4291 162.617 7.08845C162.869 7.74434 162.994 8.52521 162.994 9.43192V10.1792H154.521V8.53642H160.659C160.654 8.07013 160.553 7.6547 160.356 7.29098C160.159 6.92295 159.882 6.63336 159.528 6.4222C159.178 6.21103 158.77 6.10588 158.303 6.10588C157.805 6.10588 157.368 6.22654 156.991 6.46959C156.614 6.70748 156.32 7.02122 156.109 7.41165C155.903 7.79778 155.797 8.22268 155.793 8.68466V10.1188C155.793 10.7204 155.903 11.2367 156.123 11.6677C156.343 12.0943 156.65 12.4218 157.045 12.6511C157.44 12.8752 157.902 12.9872 158.431 12.9872C158.786 12.9872 159.106 12.9381 159.394 12.839C159.681 12.7364 159.93 12.5856 160.141 12.3882C160.352 12.1908 160.511 11.9461 160.619 11.6539L162.893 11.9099C162.75 12.5115 162.476 13.0372 162.072 13.4854C161.673 13.9301 161.161 14.2757 160.538 14.5222C159.914 14.7653 159.201 14.886 158.397 14.886ZM169.756 14.6843V4.34159H172.192V14.6843H169.756ZM170.981 2.87379C170.595 2.87379 170.263 2.74536 169.985 2.49024C169.707 2.22909 169.567 1.91709 169.567 1.55423C169.567 1.18621 169.707 0.874203 169.985 0.618222C170.263 0.357931 170.595 0.227783 170.981 0.227783C171.371 0.227783 171.703 0.357931 171.977 0.618222C172.255 0.874203 172.394 1.18621 172.394 1.55423C172.394 1.91709 172.255 2.22909 171.977 2.49024C171.703 2.74536 171.371 2.87379 170.981 2.87379ZM179.859 4.34159V6.22656H173.916V4.34159H179.859ZM175.383 1.86366H177.82V11.5737C177.82 11.9012 177.87 12.1529 177.968 12.3279C178.071 12.4985 178.206 12.6149 178.372 12.6778C178.538 12.7407 178.721 12.7717 178.924 12.7717C179.076 12.7717 179.215 12.7605 179.341 12.7381C179.471 12.7157 179.57 12.6959 179.637 12.6778L180.047 14.5834C179.917 14.6282 179.731 14.6774 179.489 14.7317C179.251 14.7851 178.959 14.817 178.614 14.8256C178.004 14.8437 177.454 14.7515 176.965 14.5498C176.476 14.343 176.088 14.0241 175.801 13.5931C175.519 13.1622 175.379 12.6235 175.383 11.9771V1.86366ZM186.361 14.886C185.325 14.886 184.43 14.6705 183.676 14.2395C182.927 13.8043 182.351 13.1897 181.947 12.3951C181.544 11.5961 181.341 10.6558 181.341 9.57327C181.341 8.5097 181.544 7.57627 181.947 6.77213C182.355 5.96454 182.925 5.33621 183.657 4.88717C184.388 4.43381 185.247 4.20713 186.234 4.20713C186.871 4.20713 187.472 4.31057 188.038 4.51656C188.607 4.71824 189.109 5.03283 189.545 5.45946C189.985 5.8861 190.33 6.4291 190.582 7.08845C190.832 7.74434 190.958 8.52521 190.958 9.43192V10.1792H182.485V8.53642H188.623C188.618 8.07013 188.518 7.6547 188.32 7.29098C188.123 6.92295 187.847 6.63336 187.493 6.4222C187.143 6.21103 186.734 6.10588 186.268 6.10588C185.77 6.10588 185.332 6.22654 184.956 6.46959C184.578 6.70748 184.285 7.02122 184.074 7.41165C183.868 7.79778 183.762 8.22268 183.757 8.68466V10.1188C183.757 10.7204 183.868 11.2367 184.087 11.6677C184.307 12.0943 184.615 12.4218 185.009 12.6511C185.404 12.8752 185.866 12.9872 186.395 12.9872C186.75 12.9872 187.07 12.9381 187.358 12.839C187.645 12.7364 187.894 12.5856 188.105 12.3882C188.316 12.1908 188.475 11.9461 188.583 11.6539L190.857 11.9099C190.713 12.5115 190.44 13.0372 190.036 13.4854C189.637 13.9301 189.126 14.2757 188.502 14.5222C187.878 14.7653 187.165 14.886 186.361 14.886ZM193.019 14.6843V4.34159H195.348V6.09899H195.469C195.685 5.50687 196.041 5.04403 196.539 4.7122C197.037 4.3752 197.632 4.20713 198.322 4.20713C199.023 4.20713 199.613 4.3778 200.093 4.71825C200.577 5.05525 200.918 5.51549 201.115 6.09899H201.223C201.452 5.52411 201.838 5.06645 202.381 4.72514C202.928 4.37952 203.576 4.20713 204.326 4.20713C205.277 4.20713 206.053 4.50793 206.654 5.10953C207.255 5.71113 207.556 6.58855 207.556 7.74176V14.6843H205.113V8.11925C205.113 7.47714 204.942 7.00828 204.601 6.71179C204.26 6.41099 203.843 6.26101 203.35 6.26101C202.762 6.26101 202.302 6.44461 201.971 6.81263C201.642 7.17635 201.479 7.65038 201.479 8.23388V14.6843H199.09V8.01841C199.09 7.48404 198.928 7.05741 198.605 6.73851C198.286 6.41961 197.869 6.26101 197.353 6.26101C197.004 6.26101 196.685 6.35066 196.398 6.52993C196.11 6.7049 195.882 6.95399 195.711 7.27719C195.541 7.59609 195.456 7.96843 195.456 8.39506V14.6843H193.019Z" fill="#555555"/>
</svg>
