<svg width="31" height="17" viewBox="0 0 31 17" fill="none" xmlns="http://www.w3.org/2000/svg">
<path d="M0.932617 13.1584V10.9916L7.30719 0.905762H9.11616V3.99134H8.01351L3.71501 10.8011V10.9183H12.6222V13.1584H0.932617ZM8.09974 15.9501V12.4974L8.13412 11.5277V0.905762H10.7012V15.9501H8.09974ZM16.2143 16.1121C15.7664 16.1121 15.3874 15.9553 15.0686 15.6415C14.7499 15.3278 14.5948 14.946 14.5948 14.4952C14.5948 14.0548 14.7499 13.6781 15.0686 13.3644C15.3874 13.0507 15.7664 12.8947 16.2143 12.8947C16.645 12.8947 17.0155 13.0507 17.3342 13.3644C17.6615 13.6781 17.8252 14.0548 17.8252 14.4952C17.8252 14.7943 17.7476 15.0657 17.5926 15.3114C17.4461 15.5562 17.2481 15.7518 17.0069 15.8984C16.7657 16.0406 16.4986 16.1121 16.2143 16.1121ZM25.5866 16.1561C24.6132 16.1561 23.7346 15.9725 22.9593 15.6044C22.184 15.233 21.5724 14.7236 21.1159 14.0772C20.6679 13.4308 20.4267 12.6913 20.4008 11.8587H23.0368C23.0885 12.4758 23.3555 12.98 23.8379 13.3721C24.3289 13.7583 24.9061 13.9522 25.5866 13.9522C26.1207 13.9522 26.5945 13.8298 27.008 13.585C27.4301 13.3402 27.7575 12.9998 27.9987 12.5637C28.2399 12.1276 28.3518 11.6311 28.3518 11.0726C28.3518 10.5046 28.2312 10.0005 27.99 9.55917C27.7402 9.11874 27.4128 8.77308 26.9821 8.524C26.56 8.26888 26.0691 8.14134 25.5177 8.14134C25.0612 8.13704 24.6218 8.21976 24.1825 8.39127C23.7518 8.56279 23.4072 8.78774 23.1488 9.06699L20.6938 8.66277L21.4776 0.905762H30.1952V3.18374H23.7345L23.2952 7.17172H23.3814C23.6657 6.8442 24.062 6.57186 24.5702 6.35638C25.0784 6.1366 25.6383 6.02628 26.2413 6.02628C27.1544 6.02628 27.9641 6.24176 28.6791 6.6727C29.3941 7.09848 29.9541 7.68627 30.3676 8.43525C30.7811 9.1851 30.9878 10.0418 30.9878 11.0062C30.9878 12.0009 30.7551 12.8869 30.29 13.6652C29.842 14.4392 29.2046 15.0494 28.3949 15.495C27.5851 15.9354 26.6462 16.1561 25.5866 16.1561Z" fill="#454545"/>
</svg>
