<svg width="59" height="113" viewBox="0 0 59 113" fill="none" xmlns="http://www.w3.org/2000/svg">
<path d="M55.8181 8.98435C54.5846 8.98435 53.5796 7.04759 53.5796 4.67065C53.5796 2.29371 54.5846 0.356934 55.8181 0.356934C57.0516 0.356934 58.0566 2.29371 58.0566 4.67065C58.0566 7.06226 57.0516 8.98435 55.8181 8.98435ZM58.0566 30.4796C58.0566 28.1026 57.0516 26.1658 55.8181 26.1658C54.5846 26.1658 53.5796 28.1026 53.5796 30.4796C53.5796 32.8565 54.5846 34.7933 55.8181 34.7933C57.0516 34.7933 58.0566 32.8712 58.0566 30.4796ZM58.0566 56.2885C58.0566 53.9115 57.0516 51.9748 55.8181 51.9748C54.5846 51.9748 53.5796 53.9115 53.5796 56.2885C53.5796 58.6654 54.5846 60.6022 55.8181 60.6022C57.0516 60.6168 58.0566 58.6801 58.0566 56.2885ZM58.0566 82.112C58.0566 79.7351 57.0516 77.7983 55.8181 77.7983C54.5846 77.7983 53.5796 79.7351 53.5796 82.112C53.5796 84.489 54.5846 86.4258 55.8181 86.4258C57.0516 86.4258 58.0566 84.489 58.0566 82.112ZM58.0566 107.921C58.0566 105.544 57.0516 103.607 55.8181 103.607C54.5846 103.607 53.5796 105.544 53.5796 107.921C53.5796 110.298 54.5846 112.235 55.8181 112.235C57.0516 112.235 58.0566 110.298 58.0566 107.921ZM44.6636 4.67065C44.6636 2.29371 43.6585 0.356934 42.4251 0.356934C41.1916 0.356934 40.1866 2.29371 40.1866 4.67065C40.1866 7.04759 41.1916 8.98435 42.4251 8.98435C43.6585 8.98435 44.6636 7.06226 44.6636 4.67065ZM44.6636 30.4796C44.6636 28.1026 43.6585 26.1658 42.4251 26.1658C41.1916 26.1658 40.1866 28.1026 40.1866 30.4796C40.1866 32.8565 41.1916 34.7933 42.4251 34.7933C43.6585 34.7933 44.6636 32.8712 44.6636 30.4796ZM44.6636 56.2885C44.6636 53.9115 43.6585 51.9748 42.4251 51.9748C41.1916 51.9748 40.1866 53.9115 40.1866 56.2885C40.1866 58.6654 41.1916 60.6022 42.4251 60.6022C43.6585 60.6168 44.6636 58.6801 44.6636 56.2885ZM44.6636 82.112C44.6636 79.7351 43.6585 77.7983 42.4251 77.7983C41.1916 77.7983 40.1866 79.7351 40.1866 82.112C40.1866 84.489 41.1916 86.4258 42.4251 86.4258C43.6585 86.4258 44.6636 84.489 44.6636 82.112ZM44.6636 107.921C44.6636 105.544 43.6585 103.607 42.4251 103.607C41.1916 103.607 40.1866 105.544 40.1866 107.921C40.1866 110.298 41.1916 112.235 42.4251 112.235C43.6585 112.235 44.6636 110.298 44.6636 107.921ZM31.263 4.67065C31.263 2.29371 30.258 0.356934 29.0245 0.356934C27.791 0.356934 26.786 2.29371 26.786 4.67065C26.786 7.04759 27.791 8.98435 29.0245 8.98435C30.2656 8.98435 31.263 7.06226 31.263 4.67065ZM31.263 30.4796C31.263 28.1026 30.258 26.1658 29.0245 26.1658C27.791 26.1658 26.786 28.1026 26.786 30.4796C26.786 32.8565 27.791 34.7933 29.0245 34.7933C30.2656 34.7933 31.263 32.8712 31.263 30.4796ZM31.263 56.2885C31.263 53.9115 30.258 51.9748 29.0245 51.9748C27.791 51.9748 26.786 53.9115 26.786 56.2885C26.786 58.6654 27.791 60.6022 29.0245 60.6022C30.2656 60.6168 31.263 58.6801 31.263 56.2885ZM31.263 82.112C31.263 79.7351 30.258 77.7983 29.0245 77.7983C27.791 77.7983 26.786 79.7351 26.786 82.112C26.786 84.489 27.791 86.4258 29.0245 86.4258C30.2656 86.4258 31.263 84.489 31.263 82.112ZM31.263 107.921C31.263 105.544 30.258 103.607 29.0245 103.607C27.791 103.607 26.786 105.544 26.786 107.921C26.786 110.298 27.791 112.235 29.0245 112.235C30.2656 112.235 31.263 110.298 31.263 107.921ZM17.87 4.67065C17.87 2.29371 16.8649 0.356934 15.6315 0.356934C14.398 0.356934 13.393 2.29371 13.393 4.67065C13.393 7.04759 14.398 8.98435 15.6315 8.98435C16.8726 8.98435 17.87 7.06226 17.87 4.67065ZM17.87 30.4796C17.87 28.1026 16.8649 26.1658 15.6315 26.1658C14.398 26.1658 13.393 28.1026 13.393 30.4796C13.393 32.8565 14.398 34.7933 15.6315 34.7933C16.8726 34.7933 17.87 32.8712 17.87 30.4796ZM17.87 56.2885C17.87 53.9115 16.8649 51.9748 15.6315 51.9748C14.398 51.9748 13.393 53.9115 13.393 56.2885C13.393 58.6654 14.398 60.6022 15.6315 60.6022C16.8726 60.6168 17.87 58.6801 17.87 56.2885ZM17.87 82.112C17.87 79.7351 16.8649 77.7983 15.6315 77.7983C14.398 77.7983 13.393 79.7351 13.393 82.112C13.393 84.489 14.398 86.4258 15.6315 86.4258C16.8726 86.4258 17.87 84.489 17.87 82.112ZM17.87 107.921C17.87 105.544 16.8649 103.607 15.6315 103.607C14.398 103.607 13.393 105.544 13.393 107.921C13.393 110.298 14.398 112.235 15.6315 112.235C16.8726 112.235 17.87 110.298 17.87 107.921ZM4.47702 4.67065C4.47702 2.29371 3.47198 0.356934 2.23851 0.356934C1.00505 0.356934 0 2.29371 0 4.67065C0 7.04759 1.00505 8.98435 2.23851 8.98435C3.47198 8.98435 4.47702 7.06226 4.47702 4.67065ZM4.47702 30.4796C4.47702 28.1026 3.47198 26.1658 2.23851 26.1658C1.00505 26.1658 0 28.1026 0 30.4796C0 32.8565 1.00505 34.7933 2.23851 34.7933C3.47198 34.7933 4.47702 32.8712 4.47702 30.4796ZM4.47702 56.2885C4.47702 53.9115 3.47198 51.9748 2.23851 51.9748C1.00505 51.9748 0 53.9115 0 56.2885C0 58.6654 1.00505 60.6022 2.23851 60.6022C3.47198 60.6022 4.47702 58.6801 4.47702 56.2885ZM4.47702 82.112C4.47702 79.7351 3.47198 77.7983 2.23851 77.7983C1.00505 77.7983 0 79.7351 0 82.112C0 84.489 1.00505 86.4258 2.23851 86.4258C3.47198 86.4258 4.47702 84.489 4.47702 82.112ZM4.47702 107.921C4.47702 105.544 3.47198 103.607 2.23851 103.607C1.00505 103.607 0 105.544 0 107.921C0 110.298 1.00505 112.235 2.23851 112.235C3.47198 112.235 4.47702 110.298 4.47702 107.921Z" fill="#BF52A2"/>
</svg>
