<svg width="96" height="14" viewBox="0 0 96 14" fill="none" xmlns="http://www.w3.org/2000/svg">
<path d="M2.59058 13.2107H0.169922L4.58042 0.674477H7.38005L11.7992 13.2107H9.37862L6.02766 3.24547H5.93291L2.59058 13.2107ZM2.66808 8.29529H9.28377V10.1191H2.66808V8.29529ZM16.5543 13.3761C15.8134 13.3761 15.1587 13.1865 14.5729 12.8064C13.9872 12.4272 13.5306 11.8765 13.1861 11.1542C12.8501 10.4319 12.6778 9.55451 12.6778 8.52197C12.6778 7.47736 12.8501 6.59567 13.1947 5.87685C13.5392 5.15459 14.013 4.60983 14.5988 4.24266C15.1846 3.87119 15.8393 3.68588 16.5629 3.68588C17.1142 3.68588 17.5621 3.77985 17.9153 3.96774C18.2771 4.15133 18.5527 4.37368 18.7595 4.63484C18.9748 4.89168 19.1299 5.13476 19.2419 5.36316H19.3366V0.674477H21.5591V13.2107H19.3798V11.7291H19.2419C19.1299 11.9575 18.9663 12.2005 18.7509 12.4573C18.5356 12.7107 18.2512 12.9271 17.898 13.1064C17.5362 13.2865 17.0883 13.3761 16.5543 13.3761ZM17.1745 11.5575C17.6396 11.5575 18.0445 11.4317 18.3719 11.1783C18.6992 10.9215 18.949 10.5638 19.1213 10.107C19.2936 9.65017 19.3798 9.11752 19.3798 8.50903C19.3798 7.90139 19.2936 7.37306 19.1213 6.92402C18.9576 6.47498 18.7078 6.12594 18.3805 5.87685C18.0531 5.62863 17.6482 5.50362 17.1745 5.50362C16.6748 5.50362 16.27 5.63204 15.9341 5.88974C15.6067 6.14658 15.3569 6.50172 15.1932 6.95422C15.021 7.40757 14.9348 7.92553 14.9348 8.50903C14.9348 9.09684 15.021 9.62172 15.1932 10.0828C15.3655 10.5396 15.6153 10.9008 15.9427 11.1662C16.2786 11.4274 16.6834 11.5575 17.1745 11.5575ZM27.4082 13.3761C26.6674 13.3761 26.0041 13.1865 25.427 12.8064C24.8412 12.4272 24.3759 11.8765 24.04 11.1542C23.704 10.4319 23.5318 9.55451 23.5318 8.52197C23.5318 7.47736 23.704 6.59567 24.0486 5.87685C24.3932 5.15459 24.8584 4.60983 25.4441 4.24266C26.0385 3.87119 26.6932 3.68588 27.4082 3.68588C27.9595 3.68588 28.416 3.77985 28.7692 3.96774C29.1224 4.15133 29.4068 4.37368 29.6135 4.63484C29.8202 4.89168 29.9839 5.13476 30.0958 5.36316H30.1906V0.674477H32.4131V13.2107H30.2337V11.7291H30.0958C29.9839 11.9575 29.8202 12.2005 29.6049 12.4573C29.3895 12.7107 29.0966 12.9271 28.7435 13.1064C28.3903 13.2865 27.9423 13.3761 27.4082 13.3761ZM28.0198 11.5575C28.4936 11.5575 28.8898 11.4317 29.2258 11.1783C29.5531 10.9215 29.8029 10.5638 29.9752 10.107C30.1475 9.65017 30.2337 9.11752 30.2337 8.50903C30.2337 7.90139 30.1475 7.37306 29.9752 6.92402C29.8116 6.47498 29.5618 6.12594 29.2258 5.87685C28.9071 5.62863 28.5022 5.50362 28.0198 5.50362C27.5288 5.50362 27.1153 5.63204 26.788 5.88974C26.4607 6.14658 26.2108 6.50172 26.0386 6.95422C25.8749 7.40757 25.7887 7.92553 25.7887 8.50903C25.7887 9.09684 25.8749 9.62172 26.0386 10.0828C26.2108 10.5396 26.4607 10.9008 26.7966 11.1662C27.1326 11.4274 27.5374 11.5575 28.0198 11.5575ZM43.7408 3.8083V5.52261H38.3311V3.8083H43.7408ZM39.6663 1.5553H41.8802V10.3828C41.8802 10.6801 41.9318 10.9094 42.0179 11.068C42.1127 11.2231 42.2333 11.3291 42.3884 11.3869C42.5348 11.4438 42.7071 11.4722 42.888 11.4722C43.0258 11.4722 43.1551 11.4619 43.2671 11.4412C43.3877 11.4214 43.4738 11.4024 43.5341 11.3869L43.9045 13.1184C43.7925 13.1598 43.6203 13.2046 43.3963 13.2537C43.181 13.3029 42.9225 13.3313 42.6038 13.3391C42.0524 13.3554 41.5528 13.2718 41.1049 13.0882C40.6656 12.9003 40.3124 12.6108 40.0454 12.2186C39.7869 11.8273 39.6663 11.3378 39.6663 10.75V1.5553ZM49.5899 13.3942C48.6682 13.3942 47.8757 13.1926 47.2037 12.7883C46.5318 12.3841 46.0064 11.8187 45.636 11.093C45.2656 10.3664 45.0847 9.51746 45.0847 8.54611C45.0847 7.57476 45.2656 6.72405 45.636 5.99316C46.0064 5.26314 46.5318 4.69602 47.2037 4.29179C47.8757 3.88757 48.6682 3.68588 49.5899 3.68588C50.503 3.68588 51.3042 3.88757 51.9761 4.29179C52.648 4.69602 53.1648 5.26314 53.5352 5.99316C53.9056 6.72405 54.0865 7.57476 54.0865 8.54611C54.0865 9.51746 53.9056 10.3664 53.5352 11.093C53.1648 11.8187 52.648 12.3841 51.9761 12.7883C51.3042 13.1926 50.503 13.3942 49.5899 13.3942ZM49.5985 11.6188C50.0982 11.6188 50.5116 11.4825 50.8476 11.2093C51.1835 10.9318 51.4333 10.5603 51.597 10.0949C51.7607 9.62951 51.8468 9.1115 51.8468 8.54006C51.8468 7.96432 51.7607 7.44462 51.597 6.9792C51.4333 6.50947 51.1835 6.13623 50.8476 5.8587C50.5116 5.58118 50.0982 5.44244 49.5985 5.44244C49.0903 5.44244 48.6682 5.58118 48.3236 5.8587C47.9963 6.13623 47.7379 6.50947 47.5742 6.9792C47.4105 7.44462 47.333 7.96432 47.333 8.54006C47.333 9.1115 47.4105 9.62951 47.5742 10.0949C47.7379 10.5603 47.9963 10.9318 48.3236 11.2093C48.6682 11.4825 49.0903 11.6188 49.5985 11.6188ZM71.0653 4.90376H68.7739C68.7136 4.52883 68.5929 4.19616 68.4207 3.90656C68.2398 3.61266 68.0244 3.36357 67.766 3.1593C67.4989 2.95503 67.2061 2.80246 66.8702 2.6999C66.5428 2.59388 66.181 2.54129 65.802 2.54129C65.1215 2.54129 64.5098 2.71281 63.9843 3.05498C63.4588 3.39371 63.0454 3.89191 62.7525 4.54867C62.451 5.20198 62.3046 6.00007 62.3046 6.94212C62.3046 7.9014 62.451 8.70898 62.7525 9.3666C63.054 10.0191 63.4674 10.5129 63.9843 10.8482C64.5098 11.1783 65.1129 11.3438 65.7934 11.3438C66.1638 11.3438 66.517 11.2947 66.8443 11.1964C67.1716 11.0947 67.4732 10.9456 67.7316 10.75C67.9986 10.5543 68.2225 10.313 68.3948 10.0277C68.5843 9.74155 68.705 9.41573 68.7739 9.04771L71.0653 9.06065C70.9792 9.65621 70.7982 10.2156 70.5053 10.7379C70.2297 11.2602 69.8593 11.7213 69.4027 12.1212C68.9461 12.5168 68.4121 12.8271 67.8005 13.0512C67.1889 13.2718 66.5083 13.3821 65.7589 13.3821C64.6649 13.3821 63.6742 13.127 62.8128 12.6168C61.9513 12.1065 61.2708 11.3705 60.7712 10.4069C60.2716 9.4442 60.0218 8.28925 60.0218 6.94212C60.0218 5.59153 60.2716 4.43659 60.7798 3.4773C61.2794 2.51457 61.96 1.77769 62.8214 1.26745C63.6914 0.75807 64.6649 0.50293 65.7589 0.50293C66.4566 0.50293 67.1113 0.600326 67.7057 0.796837C68.3087 0.992486 68.8428 1.28039 69.308 1.65962C69.7817 2.03541 70.1607 2.4965 70.4709 3.04294C70.7724 3.58593 70.9705 4.20649 71.0653 4.90376ZM75.7514 13.4002C75.157 13.4002 74.6229 13.2943 74.1405 13.0822C73.6668 12.8659 73.2964 12.5478 73.0208 12.1272C72.7451 11.7066 72.6072 11.1887 72.6072 10.5724C72.6072 10.0415 72.702 9.60277 72.9001 9.25629C73.0983 8.90895 73.3652 8.63228 73.7012 8.4237C74.0372 8.21598 74.4249 8.05826 74.847 7.95225C75.2777 7.84193 75.7169 7.76265 76.1735 7.71352C76.7248 7.65664 77.1728 7.60579 77.5174 7.56097C77.8533 7.51184 78.1031 7.4386 78.2582 7.34034C78.4219 7.23864 78.4994 7.08091 78.4994 6.86889V6.8318C78.4994 6.37069 78.3615 6.01386 78.0858 5.76133C77.8188 5.50794 77.4225 5.38126 76.9057 5.38126C76.363 5.38126 75.9323 5.50019 75.6135 5.73634C75.3034 5.97336 75.0881 6.25264 74.9761 6.57498L72.9088 6.28107C73.0724 5.70964 73.348 5.23211 73.7185 4.84857C74.0975 4.46072 74.554 4.17113 75.0967 3.97979C75.6394 3.78328 76.2425 3.68588 76.8972 3.68588C77.3451 3.68588 77.8016 3.73846 78.2496 3.84533C78.6975 3.95134 79.1024 4.12635 79.4814 4.37112C79.8519 4.61245 80.1447 4.94082 80.3686 5.35711C80.6012 5.7734 80.7132 6.2931 80.7132 6.91797V13.2107H78.5855V11.9187H78.508C78.3788 12.1798 78.1893 12.4255 77.9395 12.6539C77.6983 12.878 77.3967 13.0598 77.0263 13.1986C76.6645 13.3331 76.2424 13.4002 75.7514 13.4002ZM76.3286 11.7722C76.7679 11.7722 77.1555 11.6842 77.4829 11.5093C77.8102 11.3291 78.06 11.093 78.2323 10.7991C78.4132 10.5052 78.508 10.1845 78.508 9.83805V8.72971C78.4391 8.78659 78.3185 8.84003 78.1462 8.88915C77.9825 8.93828 77.8016 8.9805 77.5949 9.01756C77.3967 9.05463 77.19 9.08653 76.9919 9.11583C76.7938 9.14427 76.6214 9.16837 76.475 9.18906C76.139 9.23388 75.8462 9.30714 75.5878 9.40884C75.3207 9.51141 75.1225 9.65447 74.9675 9.83805C74.821 10.0173 74.7436 10.2501 74.7436 10.5353C74.7436 10.9439 74.89 11.2516 75.1915 11.4601C75.4843 11.6679 75.8634 11.7722 76.3286 11.7722ZM82.9357 13.2107V3.8083H85.0892V5.37521H85.1841C85.3564 4.83222 85.6492 4.4142 86.0626 4.1203C86.4847 3.82209 86.9672 3.67384 87.5013 3.67384C87.6305 3.67384 87.7597 3.67987 87.9147 3.69193C88.0698 3.69969 88.1991 3.71433 88.3024 3.73502V5.77338C88.2077 5.74063 88.0526 5.7122 87.8545 5.68721C87.6563 5.65877 87.4582 5.64497 87.2687 5.64497C86.8638 5.64497 86.502 5.73201 86.1833 5.90784C85.8645 6.07935 85.6147 6.31809 85.4338 6.62406C85.2443 6.93003 85.1582 7.28341 85.1582 7.68333V13.2107H82.9357ZM94.9699 3.8083V5.52261H89.5687V3.8083H94.9699ZM90.8953 1.5553H93.1178V10.3828C93.1178 10.6801 93.1609 10.9094 93.247 11.068C93.3418 11.2231 93.4623 11.3291 93.6174 11.3869C93.7638 11.4438 93.9362 11.4722 94.1171 11.4722C94.2549 11.4722 94.384 11.4619 94.496 11.4412C94.6166 11.4214 94.7028 11.4024 94.7631 11.3869L95.1421 13.1184C95.0215 13.1598 94.8493 13.2046 94.6339 13.2537C94.4185 13.3029 94.1515 13.3313 93.8327 13.3391C93.2814 13.3554 92.7818 13.2718 92.3338 13.0882C91.8945 12.9003 91.5414 12.6108 91.2829 12.2186C91.0245 11.8273 90.8953 11.3378 90.8953 10.75V1.5553Z" fill="black"/>
</svg>
