<svg width="71" height="21" viewBox="0 0 71 21" fill="none" xmlns="http://www.w3.org/2000/svg">
<path d="M0.17862 19.7601V17.2994L6.70306 10.899C7.32759 10.2689 7.8479 9.70872 8.26396 9.21917C8.67917 8.72962 8.99187 8.25471 9.19947 7.79619C9.40794 7.3368 9.51131 6.84723 9.51131 6.32665C9.51131 5.73281 9.37692 5.22515 9.10816 4.80283C8.83853 4.37361 8.46812 4.0435 7.99778 3.81079C7.52658 3.57808 6.99077 3.46175 6.39122 3.46175C5.77358 3.46175 5.23174 3.59017 4.76743 3.84788C4.30226 4.09869 3.94133 4.45635 3.68376 4.92177C3.43309 5.38719 3.30818 5.94137 3.30818 6.58347H0.0683594C0.0683594 5.38976 0.340568 4.35293 0.884989 3.47122C1.42941 2.58951 2.17885 1.90686 3.13331 1.42334C4.0938 0.939818 5.19556 0.698486 6.43688 0.698486C7.69801 0.698486 8.80494 0.933789 9.7594 1.40524C10.7139 1.8767 11.4538 2.52229 11.9802 3.34281C12.5125 4.16247 12.7787 5.0993 12.7787 6.15253C12.7787 6.85583 12.6443 7.54797 12.3747 8.22713C12.1059 8.90717 11.6313 9.65957 10.9525 10.4861C10.2797 11.3127 9.33385 12.3133 8.11666 13.489L4.87683 16.7848V16.9133H13.063V19.7601H0.17862ZM15.4862 16.2712V13.5622L23.4612 0.955359H25.7182V4.81145H24.3416L18.9732 13.3235V13.47H30.1054V16.2712H15.4862ZM24.4519 19.7601V15.4446L24.4889 14.2327V0.955359H27.7003V19.7601H24.4519ZM34.59 19.9618C34.0335 19.9618 33.5563 19.7661 33.1592 19.3748C32.7612 18.9826 32.5656 18.5051 32.5717 17.9423C32.5656 17.3907 32.7612 16.9201 33.1592 16.528C33.5563 16.1358 34.0335 15.9402 34.59 15.9402C35.1284 15.9402 35.597 16.1358 35.9941 16.528C36.3981 16.9201 36.6031 17.3907 36.6092 17.9423C36.6031 18.3155 36.5049 18.6551 36.3154 18.9611C36.132 19.2671 35.8873 19.5118 35.5815 19.6954C35.2817 19.873 34.9518 19.9618 34.59 19.9618ZM46.2175 20.1177C44.7066 20.1177 43.4093 19.7359 42.3265 18.9706C41.2497 18.1992 40.421 17.0882 39.8395 15.6376C39.2649 14.1802 38.9772 12.4262 38.9772 10.3758C38.9833 8.32537 39.2736 6.58089 39.849 5.1424C40.4305 3.69787 41.2592 2.59554 42.3359 1.83708C43.4188 1.07776 44.7126 0.698486 46.2175 0.698486C47.7233 0.698486 49.0172 1.07776 50.1 1.83708C51.1828 2.59554 52.0115 3.69787 52.5869 5.1424C53.1684 6.58692 53.4587 8.33141 53.4587 10.3758C53.4587 12.4331 53.1684 14.1897 52.5869 15.6463C52.0115 17.0977 51.1828 18.2052 50.1 18.9706C49.0232 19.7359 47.7293 20.1177 46.2175 20.1177ZM46.2175 17.2442C47.3925 17.2442 48.3194 16.6659 48.9982 15.5084C49.6839 14.3457 50.0267 12.6348 50.0267 10.3758C50.0267 8.88215 49.87 7.62726 49.5581 6.61109C49.2463 5.59492 48.8061 4.83041 48.2367 4.31586C47.6682 3.79528 46.9945 3.53498 46.2175 3.53498C45.0494 3.53498 44.1251 4.11678 43.4463 5.28033C42.7675 6.43698 42.4247 8.13576 42.4186 10.3758C42.4126 11.8755 42.5625 13.1364 42.8683 14.1586C43.1801 15.1808 43.6203 15.9522 44.1897 16.4728C44.7583 16.9873 45.4345 17.2442 46.2175 17.2442ZM63.4546 20.1177C61.9437 20.1177 60.6464 19.7359 59.5636 18.9706C58.4868 18.1992 57.6581 17.0882 57.0767 15.6376C56.5012 14.1802 56.2144 12.4262 56.2144 10.3758C56.2204 8.32537 56.5107 6.58089 57.0861 5.1424C57.6667 3.69787 58.4963 2.59554 59.5731 1.83708C60.6559 1.07776 61.9497 0.698486 63.4546 0.698486C64.9596 0.698486 66.2534 1.07776 67.3371 1.83708C68.4199 2.59554 69.2486 3.69787 69.824 5.1424C70.4046 6.58692 70.6958 8.33141 70.6958 10.3758C70.6958 12.4331 70.4046 14.1897 69.824 15.6463C69.2486 17.0977 68.4199 18.2052 67.3371 18.9706C66.2603 19.7359 64.9656 20.1177 63.4546 20.1177ZM63.4546 17.2442C64.6296 17.2442 65.5565 16.6659 66.2353 15.5084C66.921 14.3457 67.263 12.6348 67.263 10.3758C67.263 8.88215 67.1071 7.62726 66.7953 6.61109C66.4834 5.59492 66.0424 4.83041 65.4738 4.31586C64.9044 3.79528 64.2317 3.53498 63.4546 3.53498C62.2866 3.53498 61.3622 4.11678 60.6834 5.28033C60.0038 6.43698 59.6618 8.13576 59.6558 10.3758C59.6497 11.8755 59.7996 13.1364 60.1054 14.1586C60.4173 15.1808 60.8575 15.9522 61.4269 16.4728C61.9954 16.9873 62.6716 17.2442 63.4546 17.2442Z" fill="black"/>
</svg>
