<svg width="207" height="20" viewBox="0 0 207 20" fill="none" xmlns="http://www.w3.org/2000/svg">
<path d="M4.76537 15.3229H0.0947266V1.5327H4.85928C6.22808 1.5327 7.40392 1.80851 8.38595 2.36098C9.37314 2.90828 10.1312 3.69605 10.661 4.72429C11.1899 5.75252 11.4552 6.98244 11.4552 8.41404C11.4552 9.85081 11.1882 11.085 10.6541 12.1176C10.1243 13.1501 9.35935 13.9422 8.35924 14.4947C7.36343 15.0471 6.16519 15.3229 4.76537 15.3229ZM2.59199 13.1613H4.64392C5.60441 13.1613 6.40554 12.9864 7.04644 12.6364C7.6882 12.2813 8.17059 11.7539 8.49363 11.054C8.81666 10.349 8.9786 9.469 8.9786 8.41404C8.9786 7.35909 8.81666 6.48427 8.49363 5.78787C8.17059 5.08801 7.6925 4.56484 7.06021 4.21922C6.43223 3.86929 5.65179 3.69432 4.718 3.69432H2.59199V13.1613ZM18.2958 15.5246C17.2595 15.5246 16.3645 15.3092 15.6107 14.8782C14.8613 14.443 14.285 13.8284 13.881 13.0338C13.4769 12.2348 13.2754 11.2945 13.2754 10.2119C13.2754 9.14837 13.4769 8.21494 13.881 7.4108C14.2893 6.60321 14.8587 5.97488 15.59 5.52584C16.3214 5.07248 17.1811 4.8458 18.1683 4.8458C18.8049 4.8458 19.4061 4.94924 19.9712 5.15523C20.5415 5.35691 21.0437 5.6715 21.4787 6.09813C21.9189 6.52477 22.2644 7.06777 22.515 7.72712C22.7666 8.38302 22.8924 9.16388 22.8924 10.0706V10.8179H14.4193V9.17509H20.557C20.5527 8.7088 20.4519 8.29337 20.2538 7.92965C20.0565 7.56162 19.7809 7.27203 19.4269 7.06087C19.0763 6.84971 18.6679 6.74455 18.2019 6.74455C17.704 6.74455 17.2664 6.86521 16.8891 7.10827C16.5126 7.34615 16.2189 7.65989 16.0079 8.05033C15.8011 8.43645 15.696 8.86136 15.6917 9.32333V10.7575C15.6917 11.3591 15.8011 11.8754 16.0207 12.3063C16.2413 12.733 16.548 13.0605 16.9434 13.2897C17.3379 13.5138 17.8004 13.6259 18.3294 13.6259C18.6843 13.6259 19.0047 13.5768 19.2916 13.4776C19.5793 13.3751 19.8282 13.2242 20.0384 13.0269C20.2495 12.8295 20.4088 12.5847 20.5165 12.2925L22.7916 12.5485C22.6477 13.1501 22.3738 13.6759 21.9706 14.1241C21.5709 14.5688 21.0592 14.9144 20.4356 15.1609C19.8119 15.404 19.0986 15.5246 18.2958 15.5246ZM33.1235 7.71418L30.9027 7.95637C30.8399 7.73228 30.7296 7.52111 30.5728 7.32374C30.4203 7.12637 30.2136 6.96692 29.9535 6.8454C29.6933 6.72387 29.3746 6.66354 28.9981 6.66354C28.4907 6.66354 28.0652 6.77386 27.7189 6.99364C27.3787 7.21342 27.2098 7.49871 27.215 7.84864C27.2098 8.14944 27.3201 8.3942 27.544 8.58296C27.7732 8.77085 28.1496 8.92599 28.6751 9.04752L30.4384 9.42417C31.4161 9.63534 32.1432 9.96975 32.6187 10.4274C33.0985 10.8859 33.3414 11.485 33.3457 12.2253C33.3414 12.876 33.1502 13.4509 32.7738 13.9491C32.4008 14.443 31.883 14.8291 31.2189 15.1075C30.5547 15.3859 29.7924 15.5246 28.9309 15.5246C27.6655 15.5246 26.6473 15.26 25.8755 14.73C25.1036 14.1965 24.6436 13.4535 24.4955 12.502L26.8713 12.2727C26.9789 12.7399 27.2081 13.0915 27.5578 13.3294C27.9076 13.5681 28.3633 13.6871 28.924 13.6871C29.5029 13.6871 29.9672 13.5681 30.317 13.3294C30.6719 13.0915 30.8485 12.7976 30.8485 12.4477C30.8485 12.1512 30.7339 11.9064 30.5056 11.7134C30.2808 11.5212 29.9311 11.3729 29.4555 11.2695L27.6922 10.8989C26.7007 10.6929 25.9676 10.3447 25.4921 9.85512C25.0157 9.36126 24.7806 8.73725 24.7849 7.9831C24.7806 7.34616 24.9537 6.79369 25.3035 6.32655C25.6575 5.85596 26.1494 5.49222 26.7774 5.23624C27.4097 4.97595 28.1384 4.8458 28.9645 4.8458C30.1757 4.8458 31.1293 5.10352 31.8245 5.61979C32.5248 6.13606 32.9572 6.83419 33.1235 7.71418ZM39.8633 15.5246C38.8313 15.5246 37.9458 15.298 37.205 14.8446C36.4693 14.3912 35.9016 13.7655 35.5028 12.9665C35.1074 12.1624 34.9101 11.2376 34.9101 10.1921C34.9101 9.14147 35.1126 8.21494 35.5157 7.4108C35.9197 6.60321 36.4891 5.97488 37.2256 5.52584C37.9656 5.07248 38.8408 4.8458 39.8504 4.8458C40.6886 4.8458 41.4311 5.00008 42.0772 5.31036C42.7284 5.61547 43.2461 6.049 43.6321 6.61009C44.018 7.16601 44.2376 7.81761 44.2919 8.56228H41.9635C41.8687 8.06411 41.6448 7.64867 41.2898 7.31685C40.9401 6.97985 40.4715 6.81178 39.884 6.81178C39.3852 6.81178 38.9485 6.94623 38.5712 7.216C38.1947 7.4806 37.9001 7.86242 37.6899 8.36059C37.4832 8.85877 37.3798 9.45606 37.3798 10.1516C37.3798 10.8566 37.4832 11.4625 37.6899 11.9693C37.8958 12.4727 38.1852 12.8605 38.5582 13.1346C38.9347 13.4035 39.3766 13.5388 39.884 13.5388C40.2423 13.5388 40.5637 13.4716 40.8462 13.3363C41.1331 13.1975 41.3734 12.9976 41.5663 12.7373C41.7593 12.477 41.8911 12.1607 41.9635 11.7875H44.2919C44.2333 12.5192 44.018 13.1682 43.6458 13.7336C43.2728 14.2947 42.7663 14.7351 42.1246 15.0532C41.4828 15.3678 40.7291 15.5246 39.8633 15.5246ZM46.2921 15.3229V4.98026H48.6541V6.70404H48.7618C48.9505 6.10675 49.2735 5.64651 49.7309 5.32331C50.1935 4.99579 50.7207 4.83202 51.3125 4.83202C51.4469 4.83202 51.5977 4.83891 51.7639 4.8527C51.9345 4.86132 52.0758 4.87684 52.1877 4.89925V7.14188C52.0844 7.10568 51.9207 7.07467 51.6958 7.04709C51.4762 7.01606 51.2634 7.00053 51.0566 7.00053C50.613 7.00053 50.2134 7.09706 49.8593 7.29012C49.5087 7.47802 49.2331 7.74089 49.0315 8.07789C48.829 8.41403 48.7282 8.80275 48.7282 9.24232V15.3229H46.2921ZM53.8063 15.3229V4.98026H56.2424V15.3229H53.8063ZM55.0313 3.51246C54.6454 3.51246 54.3129 3.38404 54.0346 3.12892C53.7564 2.86776 53.6177 2.55576 53.6177 2.1929C53.6177 1.82488 53.7564 1.51288 54.0346 1.25689C54.3129 0.996603 54.6454 0.866455 55.0313 0.866455C55.4215 0.866455 55.7532 0.996603 56.0271 1.25689C56.3053 1.51288 56.444 1.82488 56.444 2.1929C56.444 2.55576 56.3053 2.86776 56.0271 3.12892C55.7532 3.38404 55.4215 3.51246 55.0313 3.51246ZM58.7475 19.2014V4.98026H61.1431V6.69026H61.2844C61.4102 6.43945 61.5876 6.17225 61.8167 5.88955C62.045 5.60168 62.3551 5.35691 62.7454 5.15523C63.1356 4.94924 63.6335 4.8458 64.2391 4.8458C65.0376 4.8458 65.7578 5.05007 66.3995 5.45861C67.0456 5.86197 67.5573 6.46185 67.9337 7.25651C68.3153 8.046 68.5057 9.01563 68.5057 10.1654C68.5057 11.3005 68.3196 12.2658 67.9475 13.0605C67.5745 13.8551 67.068 14.4611 66.4262 14.8782C65.7845 15.2962 65.0583 15.5048 64.246 15.5048C63.6533 15.5048 63.1623 15.4057 62.7721 15.2083C62.3818 15.0109 62.0674 14.7731 61.8297 14.4947C61.5962 14.212 61.4145 13.9448 61.2844 13.6931H61.1836V19.2014H58.7475ZM61.1362 10.1516C61.1362 10.8204 61.231 11.4065 61.4196 11.909C61.6126 12.4115 61.8882 12.8045 62.2475 13.0872C62.6101 13.3656 63.0503 13.5052 63.5663 13.5052C64.1047 13.5052 64.5552 13.3613 64.9187 13.0743C65.2823 12.7821 65.5562 12.3848 65.7397 11.8823C65.9283 11.3746 66.0222 10.798 66.0222 10.1516C66.0222 9.5095 65.9309 8.93978 65.7466 8.44161C65.5622 7.94257 65.2892 7.55215 64.9256 7.26945C64.5621 6.98675 64.109 6.8454 63.5663 6.8454C63.046 6.8454 62.6041 6.98243 62.2406 7.25651C61.877 7.52973 61.6014 7.91413 61.4127 8.40799C61.2284 8.90099 61.1362 9.48278 61.1362 10.1516ZM75.7538 4.98026V6.86523H69.8116V4.98026H75.7538ZM71.2786 2.50233H73.7148V12.2124C73.7148 12.5399 73.7639 12.7916 73.8629 12.9665C73.9663 13.1372 74.1007 13.2535 74.2669 13.3165C74.4323 13.3794 74.6167 13.4104 74.8183 13.4104C74.9707 13.4104 75.1103 13.3992 75.236 13.3768C75.3661 13.3544 75.4643 13.3346 75.5315 13.3165L75.9424 15.2221C75.8123 15.2669 75.6263 15.316 75.3842 15.3703C75.1456 15.4238 74.8544 15.4557 74.509 15.4643C73.8991 15.4824 73.3495 15.3902 72.8602 15.1885C72.3709 14.9816 71.9833 14.6627 71.6956 14.2318C71.413 13.8009 71.2743 13.2622 71.2786 12.6158V2.50233ZM77.791 15.3229V4.98026H80.228V15.3229H77.791ZM79.016 3.51246C78.6301 3.51246 78.2984 3.38404 78.0202 3.12892C77.7419 2.86776 77.6032 2.55576 77.6032 2.1929C77.6032 1.82488 77.7419 1.51288 78.0202 1.25689C78.2984 0.996603 78.6301 0.866455 79.016 0.866455C79.4062 0.866455 79.7387 0.996603 80.0126 1.25689C80.29 1.51288 80.4296 1.82488 80.4296 2.1929C80.4296 2.55576 80.29 2.86776 80.0126 3.12892C79.7387 3.38404 79.4062 3.51246 79.016 3.51246ZM87.2417 15.5246C86.2321 15.5246 85.3578 15.3031 84.617 14.8584C83.877 14.4136 83.3024 13.7922 82.8941 12.9933C82.491 12.1943 82.2885 11.26 82.2885 10.1921C82.2885 9.12337 82.491 8.18736 82.8941 7.38408C83.3024 6.5808 83.877 5.95679 84.617 5.51205C85.3578 5.06818 86.2321 4.8458 87.2417 4.8458C88.2513 4.8458 89.1265 5.06818 89.8665 5.51205C90.6065 5.95679 91.1785 6.5808 91.5825 7.38408C91.9908 8.18736 92.1949 9.12337 92.1949 10.1921C92.1949 11.26 91.9908 12.1943 91.5825 12.9933C91.1785 13.7922 90.6065 14.4136 89.8665 14.8584C89.1265 15.3031 88.2513 15.5246 87.2417 15.5246ZM87.2555 13.5724C87.8025 13.5724 88.2599 13.4216 88.6286 13.1208C88.9964 12.8157 89.2695 12.4072 89.4496 11.8952C89.633 11.3841 89.7252 10.8135 89.7252 10.1852C89.7252 9.55259 89.633 8.98029 89.4496 8.46833C89.2695 7.95206 88.9964 7.54094 88.6286 7.23583C88.2599 6.93073 87.8025 6.77817 87.2555 6.77817C86.6947 6.77817 86.2278 6.93073 85.8557 7.23583C85.4879 7.54094 85.2113 7.95206 85.0279 8.46833C84.8478 8.98029 84.7582 9.55259 84.7582 10.1852C84.7582 10.8135 84.8478 11.3841 85.0279 11.8952C85.2113 12.4072 85.4879 12.8157 85.8557 13.1208C86.2278 13.4216 86.6947 13.5724 87.2555 13.5724ZM96.6993 9.26299V15.3229H94.2632V4.98026H96.5917V6.73766H96.7122C96.95 6.15847 97.329 5.69823 97.8502 5.35692C98.3748 5.01647 99.0234 4.8458 99.7944 4.8458C100.509 4.8458 101.13 4.99836 101.659 5.30347C102.193 5.60858 102.605 6.05073 102.897 6.62992C103.194 7.20911 103.339 7.91156 103.335 8.73725V15.3229H100.899V9.11475C100.899 8.42351 100.719 7.88225 100.36 7.49181C100.005 7.10138 99.5145 6.90573 98.8865 6.90573C98.4601 6.90573 98.081 7.00055 97.7485 7.18844C97.4212 7.37288 97.1636 7.64006 96.975 7.98999C96.7906 8.33992 96.6993 8.76482 96.6993 9.26299ZM115.021 15.5246C114.011 15.5246 113.137 15.3031 112.396 14.8584C111.656 14.4136 111.082 13.7922 110.673 12.9933C110.27 12.1943 110.068 11.26 110.068 10.1921C110.068 9.12337 110.27 8.18736 110.673 7.38408C111.082 6.5808 111.656 5.95679 112.396 5.51205C113.137 5.06818 114.011 4.8458 115.021 4.8458C116.031 4.8458 116.906 5.06818 117.646 5.51205C118.386 5.95679 118.959 6.5808 119.362 7.38408C119.77 8.18736 119.974 9.12337 119.974 10.1921C119.974 11.26 119.77 12.1943 119.362 12.9933C118.959 13.7922 118.386 14.4136 117.646 14.8584C116.906 15.3031 116.031 15.5246 115.021 15.5246ZM115.035 13.5724C115.582 13.5724 116.039 13.4216 116.408 13.1208C116.776 12.8157 117.049 12.4072 117.229 11.8952C117.412 11.3841 117.504 10.8135 117.504 10.1852C117.504 9.55259 117.412 8.98029 117.229 8.46833C117.049 7.95206 116.776 7.54094 116.408 7.23583C116.039 6.93073 115.582 6.77817 115.035 6.77817C114.474 6.77817 114.007 6.93073 113.635 7.23583C113.267 7.54094 112.991 7.95206 112.807 8.46833C112.628 8.98029 112.537 9.55259 112.537 10.1852C112.537 10.8135 112.628 11.3841 112.807 11.8952C112.991 12.4072 113.267 12.8157 113.635 13.1208C114.007 13.4216 114.474 13.5724 115.035 13.5724ZM127.278 4.98026V6.86523H121.167V4.98026H127.278ZM122.695 15.3229V4.00375C122.695 3.3082 122.838 2.729 123.125 2.26703C123.417 1.80419 123.808 1.45859 124.297 1.22933C124.785 1.00093 125.329 0.886287 125.925 0.886287C126.347 0.886287 126.722 0.919905 127.049 0.987132C127.376 1.05436 127.619 1.11555 127.776 1.16899L127.291 3.0548C127.189 3.02291 127.058 2.99189 126.901 2.96C126.744 2.92466 126.569 2.90655 126.376 2.90655C125.923 2.90655 125.602 3.01601 125.414 3.23665C125.23 3.45213 125.138 3.76155 125.138 4.16577V15.3229H122.695ZM139.049 4.98026V6.86523H133.106V4.98026H139.049ZM134.573 2.50233H137.01V12.2124C137.01 12.5399 137.059 12.7916 137.157 12.9665C137.26 13.1372 137.395 13.2535 137.561 13.3165C137.727 13.3794 137.911 13.4104 138.113 13.4104C138.266 13.4104 138.404 13.3992 138.53 13.3768C138.66 13.3544 138.759 13.3346 138.826 13.3165L139.237 15.2221C139.106 15.2669 138.92 15.316 138.678 15.3703C138.441 15.4238 138.149 15.4557 137.803 15.4643C137.193 15.4824 136.644 15.3902 136.154 15.1885C135.666 14.9816 135.277 14.6627 134.991 14.2318C134.708 13.8009 134.568 13.2622 134.573 12.6158V2.50233ZM143.744 9.26299V15.3229H141.308V1.5327H143.69V6.73766H143.812C144.054 6.15416 144.428 5.69392 144.936 5.35692C145.447 5.01647 146.098 4.8458 146.887 4.8458C147.605 4.8458 148.231 4.99578 148.765 5.29658C149.299 5.59738 149.711 6.03781 150.003 6.61614C150.299 7.19533 150.447 7.90294 150.447 8.73725V15.3229H148.011V9.11475C148.011 8.4192 147.832 7.87794 147.473 7.49181C147.119 7.10138 146.62 6.90573 145.979 6.90573C145.548 6.90573 145.162 7.00055 144.821 7.18844C144.484 7.37288 144.22 7.64006 144.027 7.98999C143.838 8.33992 143.744 8.76482 143.744 9.26299ZM157.507 15.5246C156.47 15.5246 155.575 15.3092 154.821 14.8782C154.073 14.443 153.496 13.8284 153.093 13.0338C152.689 12.2348 152.486 11.2945 152.486 10.2119C152.486 9.14837 152.689 8.21494 153.093 7.4108C153.5 6.60321 154.07 5.97488 154.802 5.52584C155.533 5.07248 156.392 4.8458 157.379 4.8458C158.016 4.8458 158.618 4.94924 159.183 5.15523C159.752 5.35691 160.255 5.6715 160.69 6.09813C161.13 6.52477 161.475 7.06777 161.727 7.72712C161.978 8.38302 162.103 9.16388 162.103 10.0706V10.8179H153.631V9.17509H159.769C159.763 8.7088 159.663 8.29337 159.465 7.92965C159.268 7.56162 158.992 7.27203 158.638 7.06087C158.288 6.84971 157.879 6.74455 157.413 6.74455C156.915 6.74455 156.477 6.86521 156.101 7.10827C155.723 7.34615 155.43 7.65989 155.219 8.05033C155.013 8.43645 154.907 8.86136 154.902 9.32333V10.7575C154.902 11.3591 155.013 11.8754 155.232 12.3063C155.452 12.733 155.76 13.0605 156.154 13.2897C156.549 13.5138 157.011 13.6259 157.541 13.6259C157.895 13.6259 158.215 13.5768 158.503 13.4776C158.79 13.3751 159.039 13.2242 159.25 13.0269C159.461 12.8295 159.62 12.5847 159.728 12.2925L162.002 12.5485C161.859 13.1501 161.585 13.6759 161.181 14.1241C160.782 14.5688 160.271 14.9144 159.647 15.1609C159.023 15.404 158.31 15.5246 157.507 15.5246ZM168.865 15.3229V4.98026H171.301V15.3229H168.865ZM170.09 3.51246C169.704 3.51246 169.373 3.38404 169.094 3.12892C168.816 2.86776 168.677 2.55576 168.677 2.1929C168.677 1.82488 168.816 1.51288 169.094 1.25689C169.373 0.996603 169.704 0.866455 170.09 0.866455C170.48 0.866455 170.812 0.996603 171.086 1.25689C171.364 1.51288 171.504 1.82488 171.504 2.1929C171.504 2.55576 171.364 2.86776 171.086 3.12892C170.812 3.38404 170.48 3.51246 170.09 3.51246ZM178.969 4.98026V6.86523H173.026V4.98026H178.969ZM174.493 2.50233H176.929V12.2124C176.929 12.5399 176.979 12.7916 177.077 12.9665C177.181 13.1372 177.315 13.2535 177.481 13.3165C177.647 13.3794 177.831 13.4104 178.033 13.4104C178.186 13.4104 178.325 13.3992 178.45 13.3768C178.58 13.3544 178.679 13.3346 178.747 13.3165L179.157 15.2221C179.027 15.2669 178.841 15.316 178.598 15.3703C178.361 15.4238 178.069 15.4557 177.723 15.4643C177.113 15.4824 176.564 15.3902 176.075 15.1885C175.585 14.9816 175.198 14.6627 174.911 14.2318C174.628 13.8009 174.489 13.2622 174.493 12.6158V2.50233ZM185.471 15.5246C184.435 15.5246 183.54 15.3092 182.786 14.8782C182.036 14.443 181.46 13.8284 181.056 13.0338C180.653 12.2348 180.451 11.2945 180.451 10.2119C180.451 9.14837 180.653 8.21494 181.056 7.4108C181.464 6.60321 182.035 5.97488 182.766 5.52584C183.497 5.07248 184.356 4.8458 185.343 4.8458C185.981 4.8458 186.581 4.94924 187.147 5.15523C187.717 5.35691 188.219 5.6715 188.655 6.09813C189.094 6.52477 189.44 7.06777 189.691 7.72712C189.942 8.38302 190.068 9.16388 190.068 10.0706V10.8179H181.595V9.17509H187.732C187.728 8.7088 187.627 8.29337 187.43 7.92965C187.233 7.56162 186.956 7.27203 186.602 7.06087C186.252 6.84971 185.844 6.74455 185.377 6.74455C184.879 6.74455 184.442 6.86521 184.065 7.10827C183.688 7.34615 183.394 7.65989 183.183 8.05033C182.977 8.43645 182.871 8.86136 182.867 9.32333V10.7575C182.867 11.3591 182.977 11.8754 183.197 12.3063C183.416 12.733 183.724 13.0605 184.119 13.2897C184.513 13.5138 184.976 13.6259 185.505 13.6259C185.859 13.6259 186.18 13.5768 186.468 13.4776C186.754 13.3751 187.003 13.2242 187.214 13.0269C187.426 12.8295 187.585 12.5847 187.693 12.2925L189.967 12.5485C189.823 13.1501 189.55 13.6759 189.146 14.1241C188.746 14.5688 188.235 14.9144 187.612 15.1609C186.988 15.404 186.275 15.5246 185.471 15.5246ZM192.129 15.3229V4.98026H194.457V6.73766H194.579C194.794 6.14554 195.151 5.6827 195.649 5.35087C196.147 5.01387 196.741 4.8458 197.432 4.8458C198.132 4.8458 198.722 5.01647 199.202 5.35692C199.686 5.69392 200.027 6.15416 200.225 6.73766H200.332C200.561 6.16278 200.947 5.70512 201.49 5.36381C202.038 5.01819 202.686 4.8458 203.435 4.8458C204.386 4.8458 205.162 5.1466 205.764 5.7482C206.365 6.3498 206.665 7.22722 206.665 8.38043V15.3229H204.222V8.75792C204.222 8.11582 204.052 7.64695 203.711 7.35046C203.37 7.04966 202.953 6.89968 202.459 6.89968C201.872 6.89968 201.412 7.08328 201.08 7.45131C200.752 7.81502 200.588 8.28905 200.588 8.87255V15.3229H198.199V8.65708C198.199 8.12271 198.037 7.69608 197.714 7.37719C197.396 7.05829 196.979 6.89968 196.463 6.89968C196.113 6.89968 195.794 6.98933 195.507 7.1686C195.22 7.34357 194.991 7.59266 194.821 7.91587C194.65 8.23477 194.565 8.6071 194.565 9.03374V15.3229H192.129Z" fill="#555555"/>
</svg>
