<svg width="96" height="13" viewBox="0 0 96 13" fill="none" xmlns="http://www.w3.org/2000/svg">
<path d="M3.01888 12.7963H0.595703L5.00709 0.26017H7.8093L12.2258 12.7963H9.8035L6.45686 2.83116H6.35864L3.01888 12.7963ZM3.09817 7.88098H9.70529V9.70477H3.09817V7.88098ZM16.98 12.9618C16.2418 12.9618 15.5811 12.7722 14.9979 12.3921C14.4147 12.0129 13.9538 11.4621 13.6153 10.7399C13.2768 10.0176 13.107 9.1402 13.107 8.10766C13.107 7.06305 13.2785 6.18136 13.6214 5.46255C13.9676 4.74028 14.4345 4.19552 15.022 3.82835C15.6095 3.45688 16.2642 3.27158 16.9861 3.27158C17.5365 3.27158 17.9896 3.36555 18.3445 3.55344C18.6994 3.73702 18.9802 3.95938 19.1887 4.22053C19.3963 4.47737 19.5574 4.72045 19.672 4.94885H19.7633V0.26017H21.9849V12.7963H19.8064V11.3148H19.672C19.5574 11.5432 19.3929 11.7862 19.1767 12.043C18.9604 12.2964 18.6745 12.5128 18.3195 12.6921C17.9646 12.8722 17.5184 12.9618 16.98 12.9618ZM17.5977 11.1432C18.0671 11.1432 18.4669 11.0174 18.7968 10.764C19.1276 10.5072 19.3782 10.1495 19.5496 9.69267C19.7211 9.23587 19.8064 8.70321 19.8064 8.09472C19.8064 7.48709 19.7211 6.95876 19.5496 6.50971C19.3825 6.06067 19.1336 5.71163 18.8028 5.46255C18.4772 5.21432 18.0749 5.08931 17.5977 5.08931C17.1041 5.08931 16.6923 5.21773 16.3624 5.47543C16.0316 5.73228 15.7827 6.08742 15.6156 6.53991C15.4484 6.99326 15.3649 7.51122 15.3649 8.09472C15.3649 8.68253 15.4484 9.20741 15.6156 9.66852C15.787 10.1253 16.0376 10.4865 16.3684 10.7519C16.7026 11.0131 17.1127 11.1432 17.5977 11.1432ZM27.8322 12.9618C27.094 12.9618 26.4333 12.7722 25.8493 12.3921C25.2661 12.0129 24.8052 11.4621 24.4667 10.7399C24.1281 10.0176 23.9593 9.1402 23.9593 8.10766C23.9593 7.06305 24.1307 6.18136 24.4727 5.46255C24.8199 4.74028 25.2868 4.19552 25.8743 3.82835C26.4618 3.45688 27.1164 3.27158 27.8383 3.27158C28.3887 3.27158 28.841 3.36555 29.1959 3.55344C29.5508 3.73702 29.8325 3.95938 30.041 4.22053C30.2486 4.47737 30.4096 4.72045 30.5242 4.94885H30.6155V0.26017H32.8363V12.7963H30.6586V11.3148H30.5242C30.4096 11.5432 30.2442 11.7862 30.028 12.043C29.8118 12.2964 29.5267 12.5128 29.1718 12.6921C28.8169 12.8722 28.3706 12.9618 27.8322 12.9618ZM28.4499 11.1432C28.9185 11.1432 29.3182 11.0174 29.649 10.764C29.9789 10.5072 30.2305 10.1495 30.4019 9.69267C30.5725 9.23587 30.6586 8.70321 30.6586 8.09472C30.6586 7.48709 30.5725 6.95876 30.4019 6.50971C30.2339 6.06067 29.9858 5.71163 29.655 5.46255C29.3286 5.21432 28.9272 5.08931 28.4499 5.08931C27.9563 5.08931 27.5446 5.21773 27.2138 5.47543C26.8839 5.73228 26.6349 6.08742 26.4678 6.53991C26.3006 6.99326 26.2171 7.51122 26.2171 8.09472C26.2171 8.68253 26.3006 9.20741 26.4678 9.66852C26.6392 10.1253 26.8898 10.4865 27.2198 10.7519C27.5549 11.0131 27.9641 11.1432 28.4499 11.1432ZM44.1623 3.39399V5.1083H38.7603V3.39399H44.1623ZM40.0938 1.141H42.3086V9.96848C42.3086 10.2658 42.3533 10.4951 42.4438 10.6537C42.5377 10.8088 42.66 10.9148 42.8107 10.9726C42.9615 11.0294 43.1286 11.0579 43.3121 11.0579C43.4508 11.0579 43.5774 11.0476 43.6911 11.0269C43.81 11.0071 43.8996 10.9881 43.9607 10.9726L44.3337 12.7041C44.2157 12.7455 44.046 12.7903 43.8264 12.8394C43.6101 12.8886 43.3448 12.917 43.0304 12.9248C42.4756 12.9411 41.976 12.8575 41.5315 12.6739C41.087 12.486 40.7347 12.1965 40.4737 11.8043C40.2161 11.413 40.0903 10.9235 40.0938 10.3357V1.141ZM50.0131 12.9799C49.0957 12.9799 48.2997 12.7783 47.627 12.374C46.9542 11.9698 46.4322 11.4044 46.0609 10.6787C45.6939 9.95213 45.5105 9.10316 45.5105 8.13181C45.5105 7.16046 45.6939 6.30974 46.0609 5.57886C46.4322 4.84884 46.9542 4.28171 47.627 3.87749C48.2997 3.47326 49.0957 3.27158 50.0131 3.27158C50.9305 3.27158 51.7265 3.47326 52.3993 3.87749C53.0721 4.28171 53.5923 4.84884 53.9593 5.57886C54.3306 6.30974 54.5158 7.16046 54.5158 8.13181C54.5158 9.10316 54.3306 9.95213 53.9593 10.6787C53.5923 11.4044 53.0721 11.9698 52.3993 12.374C51.7265 12.7783 50.9305 12.9799 50.0131 12.9799ZM50.0252 11.2044C50.5231 11.2044 50.9392 11.0682 51.2734 10.795C51.6076 10.5175 51.8566 10.146 52.0194 9.68062C52.1873 9.2152 52.2709 8.69719 52.2709 8.12576C52.2709 7.55001 52.1873 7.03032 52.0194 6.5649C51.8566 6.09517 51.6076 5.72193 51.2734 5.4444C50.9392 5.16687 50.5231 5.02813 50.0252 5.02813C49.5152 5.02813 49.0914 5.16687 48.7528 5.4444C48.4186 5.72193 48.1671 6.09517 48 6.5649C47.8372 7.03032 47.7553 7.55001 47.7553 8.12576C47.7553 8.69719 47.8372 9.2152 48 9.68062C48.1671 10.146 48.4186 10.5175 48.7528 10.795C49.0914 11.0682 49.5152 11.2044 50.0252 11.2044ZM71.4919 4.48945H69.204C69.1385 4.11453 69.0188 3.78185 68.843 3.49226C68.6673 3.19835 68.4493 2.94926 68.1883 2.74499C67.9273 2.54073 67.6293 2.38815 67.2951 2.28559C66.9651 2.17958 66.6077 2.12698 66.2243 2.12698C65.5429 2.12698 64.9399 2.29851 64.4136 2.64068C63.8872 2.9794 63.4755 3.4776 63.1774 4.13436C62.8802 4.78767 62.7312 5.58576 62.7312 6.52781C62.7312 7.48709 62.8802 8.29467 63.1774 8.9523C63.4798 9.60475 63.8915 10.0986 64.4136 10.4339C64.9399 10.764 65.5412 10.9295 66.2183 10.9295C66.5938 10.9295 66.9444 10.8804 67.2709 10.7821C67.6008 10.6804 67.8963 10.5313 68.1573 10.3357C68.4226 10.14 68.6449 9.89868 68.8249 9.61339C69.0084 9.32724 69.1342 9.00143 69.204 8.6334L71.4919 8.64634C71.4066 9.24191 71.2206 9.80126 70.9354 10.3236C70.6538 10.8459 70.2851 11.307 69.8276 11.7069C69.3711 12.1025 68.837 12.4128 68.2254 12.6369C67.6129 12.8575 66.9341 12.9678 66.1881 12.9678C65.0863 12.9678 64.1035 12.7127 63.2386 12.2025C62.3737 11.6922 61.6932 10.9562 61.1953 9.99262C60.6974 9.02989 60.4493 7.87494 60.4493 6.52781C60.4493 5.17723 60.6999 4.02228 61.2013 3.063C61.7035 2.10026 62.3866 1.36338 63.2507 0.85314C64.1155 0.343763 65.0949 0.088623 66.1881 0.088623C66.885 0.088623 67.5337 0.18602 68.1332 0.38253C68.7328 0.578179 69.2668 0.866083 69.7363 1.24531C70.2049 1.6211 70.5908 2.08219 70.8923 2.62863C71.1981 3.17162 71.398 3.79218 71.4919 4.48945ZM76.1772 12.9859C75.5811 12.9859 75.0453 12.88 74.5681 12.6679C74.0951 12.4516 73.7196 12.1335 73.4422 11.7129C73.1691 11.2923 73.0321 10.7744 73.0321 10.1581C73.0321 9.6272 73.1303 9.18846 73.3259 8.84198C73.5214 8.49464 73.7893 8.21797 74.127 8.00939C74.4655 7.80168 74.8472 7.64395 75.2719 7.53794C75.7 7.42762 76.1427 7.34835 76.5993 7.29922C77.1497 7.24233 77.596 7.19148 77.9388 7.14666C78.2817 7.09753 78.5306 7.02429 78.6857 6.92603C78.8442 6.82433 78.9243 6.66661 78.9243 6.45458V6.4175C78.9243 5.95638 78.7873 5.59956 78.5143 5.34702C78.2412 5.09363 77.8475 4.96695 77.3333 4.96695C76.7906 4.96695 76.3607 5.08588 76.0428 5.32204C75.7284 5.55906 75.5165 5.83833 75.4062 6.16068L73.338 5.86677C73.5016 5.29533 73.7704 4.81781 74.146 4.43427C74.5207 4.04641 74.9798 3.75682 75.5225 3.56548C76.0652 3.36897 76.6648 3.27158 77.3212 3.27158C77.7734 3.27158 78.2248 3.32415 78.6728 3.43102C79.1216 3.53704 79.5316 3.71204 79.9029 3.95682C80.2741 4.19815 80.5722 4.52651 80.7962 4.9428C81.0244 5.3591 81.139 5.87879 81.139 6.50366V12.7963H79.0096V11.5044H78.9363C78.802 11.7655 78.6116 12.0112 78.3669 12.2396C78.1266 12.4637 77.8225 12.6455 77.4556 12.7843C77.0929 12.9188 76.6665 12.9859 76.1772 12.9859ZM76.7518 11.3578C77.1963 11.3578 77.5822 11.2699 77.9087 11.095C78.2343 10.9148 78.4858 10.6787 78.6607 10.3848C78.8407 10.0909 78.9303 9.77023 78.9303 9.42375V8.3154C78.8606 8.37228 78.7425 8.42572 78.5754 8.47485C78.4117 8.52398 78.2283 8.5662 78.025 8.60326C77.8208 8.64032 77.6192 8.67222 77.4194 8.70152C77.2195 8.72997 77.0455 8.75407 76.8991 8.77475C76.5683 8.81957 76.2729 8.89283 76.0118 8.99454C75.7508 9.0971 75.5449 9.24016 75.3942 9.42375C75.2425 9.60302 75.1676 9.83575 75.1676 10.121C75.1676 10.5296 75.3166 10.8373 75.6138 11.0458C75.9119 11.2536 76.2909 11.3578 76.7518 11.3578ZM83.3658 12.7963V3.39399H85.5133V4.9609H85.6107C85.7821 4.41791 86.0758 3.9999 86.4919 3.70599C86.9123 3.40778 87.3912 3.25953 87.9296 3.25953C88.0519 3.25953 88.1889 3.26556 88.3397 3.27763C88.4947 3.28538 88.6231 3.30002 88.7256 3.32071V5.35907C88.6317 5.32632 88.4827 5.2979 88.2785 5.2729C88.0787 5.24446 87.8849 5.23066 87.6971 5.23066C87.2939 5.23066 86.9304 5.31771 86.6082 5.49353C86.2903 5.66505 86.0397 5.90379 85.8562 6.20976C85.6718 6.51573 85.5805 6.86911 85.5805 7.26902V12.7963H83.3658ZM95.3939 3.39399V5.1083H89.9919V3.39399H95.3939ZM91.3254 1.141H93.5401V9.96848C93.5401 10.2658 93.5849 10.4951 93.6745 10.6537C93.7684 10.8088 93.8907 10.9148 94.0415 10.9726C94.1931 11.0294 94.3602 11.0579 94.5437 11.0579C94.6824 11.0579 94.809 11.0476 94.9227 11.0269C95.0407 11.0071 95.1312 10.9881 95.1923 10.9726L95.5653 12.7041C95.4473 12.7455 95.2776 12.7903 95.0571 12.8394C94.8408 12.8886 94.5764 12.917 94.262 12.9248C93.7072 12.9411 93.2076 12.8575 92.7631 12.6739C92.3186 12.486 91.9654 12.1965 91.7044 11.8043C91.4477 11.413 91.3211 10.9235 91.3254 10.3357V1.141Z" fill="black"/>
</svg>
