<svg width="72" height="21" viewBox="0 0 72 21" fill="none" xmlns="http://www.w3.org/2000/svg">
<path d="M0.831987 19.7601V17.2994L7.3564 10.899C7.98094 10.2689 8.50125 9.70872 8.91732 9.21917C9.33252 8.72962 9.64522 8.25471 9.85282 7.79619C10.0613 7.3368 10.1647 6.84723 10.1647 6.32665C10.1647 5.73281 10.0303 5.22515 9.7615 4.80283C9.49187 4.37361 9.12146 4.0435 8.65112 3.81079C8.17992 3.57808 7.64412 3.46175 7.04457 3.46175C6.42693 3.46175 5.88508 3.59017 5.42077 3.84788C4.9556 4.09869 4.59467 4.45635 4.3371 4.92177C4.08643 5.38719 3.96154 5.94137 3.96154 6.58347H0.72168C0.72168 5.38976 0.993888 4.35293 1.53831 3.47122C2.08273 2.58951 2.83221 1.90686 3.78667 1.42334C4.74716 0.939818 5.84889 0.698486 7.0902 0.698486C8.35133 0.698486 9.45826 0.933789 10.4127 1.40524C11.3672 1.8767 12.1071 2.52229 12.6335 3.34281C13.1658 4.16247 13.432 5.0993 13.432 6.15253C13.432 6.85583 13.2976 7.54797 13.028 8.22713C12.7593 8.90717 12.2846 9.65957 11.6058 10.4861C10.933 11.3127 9.98719 12.3133 8.76999 13.489L5.53018 16.7848V16.9133H13.7163V19.7601H0.831987ZM23.7657 20.0169C22.8664 20.0109 21.9886 19.8549 21.1315 19.5489C20.2752 19.2369 19.5042 18.7318 18.8194 18.0337C18.1337 17.3295 17.5893 16.3961 17.1852 15.2334C16.7812 14.0638 16.5831 12.6167 16.5892 10.8903C16.5892 9.28033 16.7606 7.84442 17.1026 6.58347C17.4454 5.32253 17.9382 4.25726 18.5808 3.38847C19.2226 2.51279 19.9969 1.84567 20.9023 1.38715C21.8137 0.927759 22.8328 0.698486 23.9578 0.698486C25.1388 0.698486 26.1855 0.930353 27.0968 1.39577C28.0143 1.86119 28.7551 2.49813 29.3176 3.30572C29.8801 4.10728 30.229 5.014 30.3642 6.02328H27.0141C26.8427 5.30101 26.4912 4.72612 25.9589 4.29776C25.4325 3.86251 24.7658 3.64529 23.9578 3.64529C22.6553 3.64529 21.6518 4.21156 20.948 5.34409C20.2502 6.47661 19.8987 8.03145 19.8927 10.0086H20.0211C20.3209 9.46994 20.7094 9.00801 21.1866 8.62189C21.6638 8.23662 22.2022 7.94011 22.8018 7.73154C23.4073 7.51693 24.0465 7.41006 24.7201 7.41006C25.821 7.41006 26.8091 7.67376 27.6843 8.19952C28.5647 8.72613 29.2624 9.45186 29.7767 10.3758C30.2901 11.2946 30.5443 12.3469 30.5382 13.5346C30.5443 14.7714 30.2626 15.8824 29.6941 16.8675C29.1247 17.8475 28.333 18.618 27.3174 19.1817C26.3017 19.7445 25.1173 20.0229 23.7657 20.0169ZM23.7467 17.2623C24.4143 17.2623 25.0104 17.1003 25.5368 16.7762C26.0631 16.4513 26.4792 16.0134 26.785 15.4627C27.0908 14.9119 27.2407 14.294 27.2347 13.6079C27.2407 12.9348 27.0934 12.3254 26.7936 11.7807C26.4999 11.236 26.0933 10.8042 25.5729 10.4861C25.0535 10.1681 24.46 10.0086 23.7933 10.0086C23.2971 10.0086 22.8353 10.1034 22.4072 10.2931C21.9791 10.4835 21.6061 10.7464 21.2874 11.0834C20.9695 11.4135 20.7188 11.7988 20.5354 12.2401C20.3579 12.6745 20.2657 13.1399 20.2597 13.6355C20.2657 14.2905 20.4191 14.8938 20.7189 15.4446C21.0186 15.9953 21.4312 16.4357 21.9576 16.7667C22.4839 17.0977 23.08 17.2623 23.7467 17.2623ZM34.916 19.9618C34.3586 19.9618 33.8814 19.7661 33.4843 19.3748C33.0863 18.9826 32.8908 18.5051 32.8968 17.9423C32.8908 17.3907 33.0863 16.9201 33.4843 16.528C33.8814 16.1358 34.3586 15.9402 34.916 15.9402C35.4544 15.9402 35.9221 16.1358 36.3201 16.528C36.7233 16.9201 36.9283 17.3907 36.9343 17.9423C36.9283 18.3155 36.8309 18.6551 36.6406 18.9611C36.4571 19.2671 36.2124 19.5118 35.9066 19.6954C35.6069 19.873 35.2769 19.9618 34.916 19.9618ZM46.5426 20.1177C45.0317 20.1177 43.7353 19.7359 42.6516 18.9706C41.5748 18.1992 40.7461 17.0882 40.1647 15.6376C39.5901 14.1802 39.3024 12.4262 39.3024 10.3758C39.3084 8.32537 39.5987 6.58089 40.1741 5.1424C40.7556 3.69787 41.5843 2.59554 42.6611 1.83708C43.7439 1.07776 45.0377 0.698486 46.5426 0.698486C48.0484 0.698486 49.3423 1.07776 50.4251 1.83708C51.5079 2.59554 52.3366 3.69787 52.912 5.1424C53.4935 6.58692 53.7838 8.33141 53.7838 10.3758C53.7838 12.4331 53.4935 14.1897 52.912 15.6463C52.3366 17.0977 51.5079 18.2052 50.4251 18.9706C49.3483 19.7359 48.0545 20.1177 46.5426 20.1177ZM46.5426 17.2442C47.7176 17.2442 48.6446 16.6659 49.3234 15.5084C50.009 14.3457 50.3519 12.6348 50.3519 10.3758C50.3519 8.88215 50.1959 7.62726 49.8833 6.61109C49.5714 5.59492 49.1312 4.83041 48.5618 4.31586C47.9933 3.79528 47.3197 3.53498 46.5426 3.53498C45.3746 3.53498 44.4511 4.11678 43.7715 5.28033C43.0927 6.43698 42.7498 8.13576 42.7438 10.3758C42.7378 11.8755 42.8876 13.1364 43.1934 14.1586C43.5053 15.1808 43.9463 15.9522 44.5149 16.4728C45.0843 16.9873 45.7596 17.2442 46.5426 17.2442ZM63.7798 20.1177C62.2688 20.1177 60.9715 19.7359 59.8887 18.9706C58.8119 18.1992 57.9833 17.0882 57.4018 15.6376C56.8272 14.1802 56.5395 12.4262 56.5395 10.3758C56.5455 8.32537 56.8358 6.58089 57.4113 5.1424C57.9927 3.69787 58.8214 2.59554 59.8982 1.83708C60.981 1.07776 62.2749 0.698486 63.7798 0.698486C65.2847 0.698486 66.5794 1.07776 67.6622 1.83708C68.7451 2.59554 69.5737 3.69787 70.1492 5.1424C70.7298 6.58692 71.0209 8.33141 71.0209 10.3758C71.0209 12.4331 70.7298 14.1897 70.1492 15.6463C69.5737 17.0977 68.7451 18.2052 67.6622 18.9706C66.5855 19.7359 65.2916 20.1177 63.7798 20.1177ZM63.7798 17.2442C64.9548 17.2442 65.8817 16.6659 66.5605 15.5084C67.2462 14.3457 67.5882 12.6348 67.5882 10.3758C67.5882 8.88215 67.4322 7.62726 67.1204 6.61109C66.8085 5.59492 66.3684 4.83041 65.799 4.31586C65.2296 3.79528 64.5568 3.53498 63.7798 3.53498C62.6117 3.53498 61.6874 4.11678 61.0086 5.28033C60.3298 6.43698 59.987 8.13576 59.9809 10.3758C59.9749 11.8755 60.1248 13.1364 60.4306 14.1586C60.7424 15.1808 61.1826 15.9522 61.752 16.4728C62.3205 16.9873 62.9967 17.2442 63.7798 17.2442Z" fill="black"/>
</svg>
