<svg width="80" height="26" viewBox="0 0 80 26" fill="none" xmlns="http://www.w3.org/2000/svg">
<path d="M16.6767 7.49189H13.2447C13.1465 6.92908 12.9665 6.43002 12.7029 5.99563C12.4401 5.55434 12.1128 5.18115 11.7217 4.87518C11.3298 4.56921 10.8835 4.33994 10.3813 4.18652C9.88601 4.02707 9.35024 3.9478 8.77567 3.9478C7.75402 3.9478 6.84861 4.20461 6.05869 4.71915C5.26962 5.22681 4.652 5.97406 4.20492 6.95921C3.7587 7.93917 3.53561 9.13549 3.53561 10.5499C3.53561 11.9883 3.7587 13.2002 4.20492 14.1862C4.65803 15.1653 5.27565 15.9056 6.05869 16.4081C6.84861 16.9037 7.75053 17.1519 8.76615 17.1519C9.32952 17.1519 9.855 17.0778 10.3452 16.9313C10.8405 16.7779 11.2841 16.5546 11.6752 16.2607C12.0732 15.9668 12.4065 15.6057 12.6762 15.1774C12.951 14.749 13.1405 14.2594 13.2447 13.7087L16.6767 13.7268C16.5483 14.6205 16.27 15.4592 15.8419 16.2426C15.4198 17.0261 14.8659 17.7182 14.1811 18.3181C13.4954 18.9119 12.6943 19.3765 11.776 19.7135C10.8586 20.0444 9.84037 20.209 8.72052 20.209C7.0683 20.209 5.59439 19.8264 4.29709 19.0619C2.99978 18.2965 1.97814 17.1915 1.23215 15.747C0.485291 14.3025 0.112305 12.5701 0.112305 10.5499C0.112305 8.52355 0.488746 6.79112 1.24077 5.35263C1.99366 3.9081 3.01873 2.80321 4.31517 2.03785C5.61248 1.27249 7.08122 0.890625 8.72052 0.890625C9.76629 0.890625 10.7397 1.03719 11.639 1.33109C12.5384 1.625 13.3395 2.05676 14.0433 2.62561C14.7471 3.18842 15.3251 3.88054 15.7773 4.70106C16.2365 5.51468 16.5362 6.44556 16.6767 7.49189ZM23.7041 20.2366C22.8108 20.2366 22.0063 20.078 21.2904 19.7591C20.5815 19.4351 20.0181 18.9576 19.6021 18.3267C19.192 17.6967 18.987 16.9192 18.987 15.9944C18.987 15.1989 19.1343 14.5412 19.428 14.0207C19.7218 13.5001 20.1224 13.0838 20.6297 12.7718C21.138 12.4598 21.7099 12.2236 22.3465 12.0651C22.9883 11.8996 23.6524 11.7798 24.3373 11.7065C25.1634 11.6212 25.8336 11.5445 26.347 11.4772C26.8613 11.404 27.2343 11.2937 27.4669 11.1463C27.7055 10.9937 27.8252 10.7576 27.8252 10.4395V10.3844C27.8252 9.69312 27.6202 9.15701 27.2101 8.77778C26.8001 8.39769 26.2101 8.20811 25.4391 8.20811C24.625 8.20811 23.9798 8.38565 23.5026 8.74075C23.0314 9.09584 22.7135 9.5156 22.5481 9.99912L19.4461 9.55782C19.6908 8.7011 20.0948 7.98488 20.6573 7.40914C21.2207 6.82823 21.9089 6.39295 22.7221 6.10594C23.5361 5.81204 24.4355 5.66463 25.4201 5.66463C26.0998 5.66463 26.776 5.74482 27.4487 5.90341C28.1215 6.06286 28.7366 6.32575 29.2931 6.69292C29.8496 7.05491 30.2966 7.547 30.6335 8.17187C30.9754 8.79588 31.1469 9.57675 31.1469 10.5128V19.9522H27.9536V18.0147H27.8433C27.6417 18.4069 27.3566 18.774 26.9896 19.117C26.6287 19.4532 26.173 19.7255 25.6225 19.9341C25.0781 20.1358 24.4389 20.2366 23.7041 20.2366ZM24.5673 17.794C25.234 17.794 25.8121 17.663 26.3013 17.3993C26.7906 17.1304 27.1671 16.7753 27.4307 16.3348C27.6994 15.8935 27.8338 15.4135 27.8338 14.8929V13.2312C27.7304 13.3165 27.553 13.3958 27.3015 13.4699C27.0568 13.5432 26.782 13.607 26.4762 13.6622C26.1696 13.7173 25.8672 13.7664 25.5674 13.8095C25.2676 13.8526 25.0075 13.8888 24.787 13.9198C24.2916 13.987 23.848 14.0974 23.4569 14.2499C23.065 14.4033 22.7557 14.6171 22.53 14.8929C22.3035 15.1618 22.1898 15.5109 22.1898 15.9392C22.1898 16.552 22.4137 17.014 22.86 17.326C23.307 17.638 23.8756 17.794 24.5673 17.794ZM37.81 11.6884V19.9522H34.4875V5.84823H37.6627V8.24515H37.8281C38.152 7.45566 38.6689 6.82818 39.3787 6.36276C40.0945 5.89734 40.9792 5.66463 42.031 5.66463C43.0035 5.66463 43.8512 5.87324 44.573 6.28954C45.301 6.70583 45.8643 7.30826 46.2615 8.09775C46.6655 8.8881 46.8645 9.84568 46.8584 10.9722V19.9522H43.5359V11.4867C43.5359 10.5438 43.2913 9.80603 42.802 9.27338C42.3187 8.74073 41.6485 8.4744 40.7923 8.4744C40.2108 8.4744 39.6939 8.60282 39.2408 8.86053C38.7946 9.11134 38.4432 9.47508 38.1856 9.95257C37.9349 10.4301 37.81 11.0092 37.81 11.6884ZM55.4666 20.2005C54.3588 20.2005 53.3682 19.9151 52.493 19.3463C51.6178 18.7766 50.9269 17.9509 50.4187 16.8666C49.9113 15.7832 49.6572 14.4671 49.6572 12.9183C49.6572 11.3514 49.9139 10.0293 50.4282 8.95191C50.9485 7.86851 51.6488 7.05144 52.53 6.50069C53.4104 5.94305 54.3924 5.66463 55.4753 5.66463C56.3014 5.66463 56.981 5.80603 57.5125 6.087C58.0449 6.36281 58.467 6.69635 58.7797 7.08851C59.0915 7.47377 59.3327 7.83833 59.5041 8.1805H59.642V1.1475H62.9731V19.9522H59.7066V17.7303H59.5041C59.3327 18.0733 59.0855 18.437 58.7608 18.8231C58.4369 19.2024 58.0087 19.5264 57.4763 19.7962C56.944 20.0651 56.2738 20.2005 55.4666 20.2005ZM56.3935 17.4734C57.0964 17.4734 57.696 17.2829 58.1922 16.9037C58.6875 16.5184 59.0639 15.9823 59.3207 15.2971C59.5774 14.6111 59.7066 13.8121 59.7066 12.9002C59.7066 11.9883 59.5774 11.1954 59.3207 10.5223C59.07 9.84915 58.697 9.3251 58.2008 8.95191C57.7115 8.57871 57.1094 8.39166 56.3935 8.39166C55.6527 8.39166 55.0351 8.58472 54.5397 8.97084C54.0436 9.35611 53.6706 9.88878 53.4199 10.5679C53.1692 11.248 53.0435 12.0254 53.0435 12.9002C53.0435 13.7819 53.1692 14.5689 53.4199 15.2601C53.6766 15.9462 54.0531 16.4874 54.5484 16.8856C55.0506 17.2769 55.6656 17.4734 56.3935 17.4734ZM68.5784 25.2408C68.1253 25.2408 67.7066 25.2045 67.3207 25.1313C66.9417 25.0632 66.6385 24.9839 66.4128 24.8926L67.1829 22.3026C67.667 22.4439 68.0977 22.5111 68.4776 22.5051C68.8566 22.4991 69.19 22.3793 69.4777 22.1466C69.7715 21.9199 70.0187 21.5406 70.2211 21.008L70.5054 20.2461L65.3937 5.84823H68.9178L72.1662 16.4995H72.3135L75.5714 5.84823H79.1042L73.4601 21.6605C73.1974 22.4069 72.8485 23.0464 72.4143 23.579C71.9802 24.1177 71.4478 24.528 70.8172 24.8098C70.1936 25.0968 69.4467 25.2408 68.5784 25.2408Z" fill="black"/>
</svg>
