<svg width="71" height="20" viewBox="0 0 71 20" fill="none" xmlns="http://www.w3.org/2000/svg">
<path d="M0.161961 19.5357V17.075L6.69153 10.6746C7.31176 10.0446 7.83728 9.48436 8.25076 8.99481C8.66425 8.50525 8.98294 8.03035 9.18969 7.57182C9.39643 7.11244 9.49979 6.62287 9.49979 6.10229C9.49979 5.50845 9.36198 5.00079 9.09494 4.57846C8.8279 4.14924 8.45745 3.81914 7.98367 3.58643C7.50988 3.35371 6.97581 3.23739 6.38143 3.23739C5.7612 3.23739 5.21849 3.36581 4.75332 3.62351C4.28815 3.87432 3.92634 4.23198 3.66792 4.6974C3.4181 5.16282 3.29756 5.717 3.29756 6.35911H0.0585938C0.0585938 5.16539 0.325594 4.12857 0.876906 3.24686C1.4196 2.36514 2.16903 1.68249 3.12521 1.19897C4.0814 0.715453 5.18409 0.474121 6.42454 0.474121C7.68222 0.474121 8.79345 0.709423 9.74963 1.18088C10.6972 1.65233 11.438 2.29793 11.9721 3.11845C12.4975 3.9381 12.7646 4.87493 12.7646 5.92816C12.7646 6.63146 12.6354 7.3236 12.3598 8.00277C12.0927 8.6828 11.6189 9.43521 10.9384 10.2618C10.2665 11.0883 9.31889 12.089 8.10428 13.2646L4.86531 16.5604V16.6889H13.0489V19.5357H0.161961ZM22.9639 19.7925C21.6373 19.7925 20.4658 19.5667 19.4407 19.1134C18.4156 18.66 17.6058 18.03 17.0114 17.2215C16.4256 16.4139 16.1069 15.4805 16.0725 14.4212H19.5182C19.5526 14.9297 19.7163 15.3728 20.0264 15.7529C20.3279 16.1261 20.7414 16.4165 21.2496 16.6251C21.7579 16.8328 22.3264 16.9371 22.9553 16.9371C23.6272 16.9371 24.2216 16.8208 24.7385 16.5881C25.2639 16.3493 25.6687 16.0192 25.9616 15.5969C26.2545 15.1745 26.4009 14.6876 26.3923 14.1368C26.4009 13.5671 26.2545 13.0655 25.953 12.6311C25.6515 12.1959 25.2208 11.8563 24.6522 11.6115C24.0837 11.3667 23.4118 11.2443 22.6107 11.2443H20.9482V8.61815H22.6107C23.2653 8.61815 23.8425 8.50526 24.3335 8.27858C24.8245 8.0519 25.2123 7.73384 25.4965 7.32358C25.7722 6.90729 25.91 6.42637 25.91 5.88166C25.91 5.34901 25.798 4.88701 25.5482 4.49571C25.3156 4.09752 24.9711 3.78811 24.5317 3.56833C24.101 3.34769 23.5841 3.23739 22.9984 3.23739C22.4212 3.23739 21.8958 3.34168 21.4047 3.54939C20.9137 3.75797 20.5175 4.05446 20.216 4.44058C19.9145 4.81981 19.7594 5.27316 19.7422 5.79891H16.4687C16.4859 4.74654 16.7961 3.8217 17.3732 3.02618C17.959 2.22462 18.7429 1.59977 19.7249 1.15331C20.6983 0.699958 21.801 0.474121 23.0156 0.474121C24.2733 0.474121 25.3586 0.709423 26.2803 1.18088C27.2107 1.6463 27.9343 2.27377 28.4425 3.06326C28.9508 3.85275 29.2006 4.725 29.2006 5.67997C29.2092 6.73923 28.8991 7.62697 28.2703 8.34234C27.6414 9.05857 26.8231 9.52744 25.8066 9.74722V9.89462C27.1246 10.0782 28.141 10.5677 28.8474 11.3633C29.5537 12.1536 29.907 13.1362 29.8984 14.3109C29.8984 15.3641 29.5969 16.3071 29.0025 17.1388C28.4081 17.9653 27.5898 18.6144 26.5388 19.0858C25.5051 19.5573 24.3077 19.7925 22.9639 19.7925ZM34.5759 19.7374C34.0246 19.7374 33.5422 19.5417 33.146 19.1504C32.7497 18.7583 32.5516 18.2808 32.5602 17.718C32.5516 17.1664 32.7497 16.6958 33.146 16.3036C33.5422 15.9115 34.0246 15.7158 34.5759 15.7158C35.1186 15.7158 35.5838 15.9115 35.98 16.3036C36.3849 16.6958 36.5916 17.1664 36.6002 17.718C36.5916 18.0912 36.4969 18.4308 36.3074 18.7367C36.1178 19.0427 35.8767 19.2875 35.5665 19.4711C35.2737 19.6486 34.9377 19.7374 34.5759 19.7374ZM46.2051 19.8934C44.6976 19.8934 43.3969 19.5116 42.3115 18.7462C41.2347 17.9748 40.4077 16.8638 39.8306 15.4133C39.2534 13.9558 38.9606 12.2019 38.9606 10.1514C38.9692 8.10101 39.262 6.35652 39.8392 4.91803C40.4163 3.4735 41.2433 2.37118 42.3201 1.61272C43.4055 0.853391 44.6976 0.474121 46.2051 0.474121C47.7126 0.474121 49.0048 0.853391 50.0902 1.61272C51.1669 2.37118 52.0025 3.4735 52.5711 4.91803C53.1568 6.36256 53.4497 8.10704 53.4497 10.1514C53.4497 12.2088 53.1568 13.9653 52.5711 15.4219C52.0025 16.8733 51.1669 17.9808 50.0902 18.7462C49.0134 19.5116 47.7126 19.8934 46.2051 19.8934ZM46.2051 17.0198C47.3767 17.0198 48.307 16.4415 48.9875 15.284C49.668 14.1213 50.0127 12.4105 50.0127 10.1514C50.0127 8.65779 49.8576 7.40289 49.5475 6.38673C49.2373 5.37056 48.7895 4.60604 48.2209 4.09149C47.6524 3.57091 46.9804 3.31061 46.2051 3.31061C45.0336 3.31061 44.1119 3.89241 43.4314 5.05596C42.7508 6.21262 42.4149 7.91139 42.4063 10.1514C42.3977 11.6511 42.5527 12.9121 42.8542 13.9343C43.1643 14.9565 43.6123 15.7278 44.1808 16.2484C44.7493 16.763 45.4212 17.0198 46.2051 17.0198ZM63.4423 19.8934C61.9348 19.8934 60.634 19.5116 59.5486 18.7462C58.4718 17.9748 57.6448 16.8638 57.0677 15.4133C56.4905 13.9558 56.1976 12.2019 56.1976 10.1514C56.2063 8.10101 56.4992 6.35652 57.0763 4.91803C57.6535 3.4735 58.4804 2.37118 59.5572 1.61272C60.6426 0.853391 61.9348 0.474121 63.4423 0.474121C64.9498 0.474121 66.2419 0.853391 67.3273 1.61272C68.4041 2.37118 69.2397 3.4735 69.8082 4.91803C70.394 6.36256 70.6869 8.10704 70.6869 10.1514C70.6869 12.2088 70.394 13.9653 69.8082 15.4219C69.2397 16.8733 68.4041 17.9808 67.3273 18.7462C66.2505 19.5116 64.9498 19.8934 63.4423 19.8934ZM63.4423 17.0198C64.6138 17.0198 65.5441 16.4415 66.2247 15.284C66.9052 14.1213 67.2498 12.4105 67.2498 10.1514C67.2498 8.65779 67.0947 7.40289 66.7846 6.38673C66.4745 5.37056 66.0265 4.60604 65.458 4.09149C64.8894 3.57091 64.2175 3.31061 63.4423 3.31061C62.2707 3.31061 61.349 3.89241 60.6685 5.05596C59.988 6.21262 59.652 7.91139 59.6433 10.1514C59.6347 11.6511 59.7898 12.9121 60.0913 13.9343C60.4014 14.9565 60.8494 15.7278 61.4179 16.2484C61.9865 16.763 62.6584 17.0198 63.4423 17.0198Z" fill="#010101"/>
</svg>
