<svg width="72" height="20" viewBox="0 0 72 20" fill="none" xmlns="http://www.w3.org/2000/svg">
<path d="M0.721589 19.1214V16.6607L7.24603 10.2603C7.87056 9.63026 8.39086 9.07005 8.80693 8.5805C9.22214 8.09095 9.53484 7.61604 9.74244 7.15752C9.9509 6.69813 10.0543 6.20856 10.0543 5.68798C10.0543 5.09414 9.91989 4.58648 9.65113 4.16416C9.3815 3.73493 9.01109 3.40483 8.54075 3.17212C8.06955 2.93941 7.53374 2.82308 6.93419 2.82308C6.31655 2.82308 5.77471 2.9515 5.3104 3.20921C4.84523 3.46002 4.4843 3.81768 4.22673 4.2831C3.97606 4.74852 3.85115 5.30269 3.85115 5.9448H0.611328C0.611328 4.75108 0.883537 3.71426 1.42796 2.83255C1.97238 1.95084 2.72182 1.26819 3.67628 0.784667C4.63677 0.301147 5.73853 0.0598145 6.97985 0.0598145C8.24097 0.0598145 9.34791 0.295117 10.3024 0.766571C11.2568 1.23802 11.9968 1.88362 12.5231 2.70414C13.0555 3.5238 13.3217 4.46063 13.3217 5.51386C13.3217 6.21716 13.1873 6.90929 12.9177 7.58846C12.6489 8.26849 12.1742 9.0209 11.4954 9.84745C10.8227 10.674 9.87682 11.6747 8.65962 12.8503L5.4198 16.1461V16.2746H13.6059V19.1214H0.721589ZM16.0291 15.6325V12.9236L24.0042 0.316688H26.2611V4.17278H24.8846L19.5162 12.6848V12.8313H30.6484V15.6325H16.0291ZM24.9948 19.1214V14.8059L25.0319 13.5941V0.316688H28.2433V19.1214H24.9948ZM35.133 19.3231C34.5765 19.3231 34.0993 19.1274 33.7021 18.7361C33.3042 18.344 33.1086 17.8665 33.1146 17.3037C33.1086 16.7521 33.3042 16.2815 33.7021 15.8893C34.0993 15.4971 34.5765 15.3015 35.133 15.3015C35.6714 15.3015 36.14 15.4971 36.5371 15.8893C36.9411 16.2815 37.1461 16.7521 37.1521 17.3037C37.1461 17.6769 37.0479 18.0165 36.8584 18.3224C36.6749 18.6284 36.4303 18.8732 36.1245 19.0567C35.8247 19.2343 35.4948 19.3231 35.133 19.3231ZM46.7605 19.4791C45.2495 19.4791 43.9522 19.0972 42.8694 18.3319C41.7926 17.5605 40.9639 16.4495 40.3825 14.999C39.8079 13.5415 39.5202 11.7876 39.5202 9.73714C39.5262 7.6867 39.8165 5.94222 40.392 4.50372C40.9734 3.0592 41.8021 1.95687 42.8789 1.19841C43.9617 0.439085 45.2556 0.0598145 46.7605 0.0598145C48.2663 0.0598145 49.5601 0.439085 50.6429 1.19841C51.7257 1.95687 52.5544 3.0592 53.1299 4.50372C53.7113 5.94825 54.0016 7.69274 54.0016 9.73714C54.0016 11.7945 53.7113 13.551 53.1299 15.0076C52.5544 16.459 51.7257 17.5665 50.6429 18.3319C49.5662 19.0972 48.2723 19.4791 46.7605 19.4791ZM46.7605 16.6055C47.9355 16.6055 48.8624 16.0272 49.5412 14.8697C50.2269 13.707 50.5697 11.9962 50.5697 9.73714C50.5697 8.24348 50.4129 6.98859 50.1011 5.97242C49.7893 4.95625 49.3491 4.19173 48.7797 3.67718C48.2111 3.1566 47.5375 2.89631 46.7605 2.89631C45.5924 2.89631 44.6681 3.4781 43.9893 4.64166C43.3105 5.79831 42.9676 7.49709 42.9616 9.73714C42.9556 11.2368 43.1055 12.4978 43.4113 13.52C43.7231 14.5422 44.1633 15.3135 44.7327 15.8341C45.3012 16.3487 45.9775 16.6055 46.7605 16.6055ZM63.9976 19.4791C62.4867 19.4791 61.1894 19.0972 60.1066 18.3319C59.0298 17.5605 58.2011 16.4495 57.6196 14.999C57.0442 13.5415 56.7573 11.7876 56.7573 9.73714C56.7634 7.6867 57.0537 5.94222 57.6291 4.50372C58.2097 3.0592 59.0392 1.95687 60.116 1.19841C61.1988 0.439085 62.4927 0.0598145 63.9976 0.0598145C65.5025 0.0598145 66.7964 0.439085 67.8801 1.19841C68.9629 1.95687 69.7916 3.0592 70.367 4.50372C70.9476 5.94825 71.2388 7.69274 71.2388 9.73714C71.2388 11.7945 70.9476 13.551 70.367 15.0076C69.7916 16.459 68.9629 17.5665 67.8801 18.3319C66.8033 19.0972 65.5086 19.4791 63.9976 19.4791ZM63.9976 16.6055C65.1726 16.6055 66.0995 16.0272 66.7783 14.8697C67.464 13.707 67.806 11.9962 67.806 9.73714C67.806 8.24348 67.6501 6.98859 67.3382 5.97242C67.0264 4.95625 66.5853 4.19173 66.0168 3.67718C65.4474 3.1566 64.7746 2.89631 63.9976 2.89631C62.8295 2.89631 61.9052 3.4781 61.2264 4.64166C60.5467 5.79831 60.2048 7.49709 60.1987 9.73714C60.1927 11.2368 60.3426 12.4978 60.6484 13.52C60.9602 14.5422 61.4004 15.3135 61.9698 15.8341C62.5384 16.3487 63.2146 16.6055 63.9976 16.6055Z" fill="black"/>
</svg>
