<svg width="12" height="20" viewBox="0 0 12 20" fill="none" xmlns="http://www.w3.org/2000/svg">
<path d="M5.26441 19.6406V0.835938H6.46851V19.6406H5.26441ZM8.73707 6.85191C8.66851 6.2098 8.37976 5.71076 7.87074 5.35307C7.36663 4.99539 6.71075 4.81697 5.90316 4.81697C5.3354 4.81697 4.84843 4.90233 4.44218 5.07384C4.03594 5.24536 3.72513 5.47807 3.50977 5.77197C3.29442 6.06588 3.18433 6.40112 3.17942 6.77863C3.17942 7.0915 3.2504 7.36303 3.39228 7.59402C3.53915 7.82414 3.73736 8.01977 3.987 8.18094C4.23664 8.3378 4.51316 8.47053 4.81655 8.57827C5.12003 8.68601 5.42593 8.77651 5.73432 8.84977L7.14396 9.20228C7.71164 9.33415 8.25743 9.51343 8.7811 9.73838C9.30975 9.9642 9.78207 10.2478 10.1981 10.5908C10.6189 10.9338 10.9518 11.3475 11.1961 11.8319C11.4416 12.3172 11.5639 12.8851 11.5639 13.5359C11.5639 14.4176 11.3382 15.1942 10.8881 15.8647C10.4379 16.531 9.7869 17.0524 8.93529 17.4291C8.08851 17.8014 7.06316 17.9875 5.85914 17.9875C4.68932 17.9875 3.6737 17.8065 2.81228 17.4445C1.95576 17.0817 1.28523 16.5525 0.800677 15.8578C0.321035 15.1623 0.0616558 14.315 0.0224609 13.3161H2.70219C2.74138 13.8401 2.9029 14.2754 3.18674 14.6236C3.47066 14.9709 3.84013 15.2303 4.29531 15.4018C4.7554 15.5734 5.26932 15.6587 5.83708 15.6587C6.42931 15.6587 6.94815 15.5708 7.39351 15.395C7.84386 15.2131 8.19619 14.964 8.45074 14.6451C8.70529 14.3219 8.83493 13.9452 8.83984 13.5143C8.83493 13.1221 8.71994 12.7989 8.49476 12.5447C8.26967 12.2852 7.95395 12.0698 7.54771 11.8983C7.14637 11.7216 6.67646 11.5647 6.13807 11.4277L4.42745 10.9873C3.18915 10.6693 2.21031 10.1866 1.49085 9.54016C0.776213 8.88857 0.418893 8.02496 0.418893 6.9476C0.418893 6.06072 0.658711 5.28499 1.13844 4.61875C1.62299 3.95251 2.2813 3.43626 3.11335 3.0691C3.9454 2.69676 4.88754 2.51058 5.93985 2.51058C7.0069 2.51058 7.94172 2.69676 8.7444 3.0691C9.55198 3.43626 10.1858 3.94737 10.6459 4.60413C11.106 5.25486 11.3434 6.00467 11.3581 6.85191H8.73707Z" fill="#FF6868"/>
</svg>
