<svg width="12" height="20" viewBox="0 0 12 20" fill="none" xmlns="http://www.w3.org/2000/svg">
<path d="M5.71198 19.0552V0.250488H6.90927V19.0552H5.71198ZM9.18344 6.26646C9.11453 5.62435 8.82164 5.12531 8.3134 4.76762C7.81377 4.40994 7.15917 4.23152 6.34943 4.23152C5.78088 4.23152 5.28981 4.31688 4.88494 4.48839C4.48007 4.65991 4.16999 4.89262 3.95464 5.18652C3.73928 5.48043 3.62729 5.81568 3.62729 6.19318C3.62729 6.50605 3.6962 6.77758 3.83402 7.00857C3.98047 7.23869 4.17854 7.43432 4.42836 7.59549C4.67817 7.75235 4.95391 7.88508 5.26402 7.99282C5.56552 8.10056 5.86696 8.19106 6.17708 8.26432L7.58983 8.61683C8.15837 8.7487 8.70109 8.92798 9.22656 9.15293C9.75203 9.37875 10.2258 9.66232 10.6393 10.0054C11.0614 10.3484 11.3974 10.7621 11.6386 11.2465C11.8884 11.7317 12.0089 12.2997 12.0089 12.9504C12.0089 13.8321 11.7849 14.6087 11.3284 15.2793C10.8804 15.9455 10.2344 16.467 9.38156 16.8436C8.52874 17.2159 7.50369 17.4021 6.30631 17.4021C5.13477 17.4021 4.11826 17.2211 3.25683 16.8591C2.40402 16.4962 1.73214 15.9671 1.24112 15.2724C0.76734 14.5768 0.508892 13.7296 0.46582 12.7306H3.14484C3.18791 13.2547 3.34302 13.6899 3.62729 14.0381C3.91156 14.3855 4.28201 14.6449 4.73856 14.8164C5.20373 14.9879 5.7119 15.0733 6.28044 15.0733C6.87483 15.0733 7.39173 14.9853 7.83967 14.8095C8.28762 14.6276 8.64078 14.3786 8.89921 14.0597C9.14902 13.7365 9.2782 13.3598 9.28681 12.9289C9.2782 12.5367 9.1663 12.2135 8.94232 11.9592C8.70974 11.6998 8.39954 11.4843 7.99467 11.3128C7.5898 11.1361 7.12462 10.9793 6.58192 10.8423L4.86769 10.4018C3.63585 10.0838 2.65391 9.60113 1.93893 8.95471C1.22395 8.30312 0.862148 7.43951 0.862148 6.36215C0.862148 5.47527 1.10332 4.69954 1.58572 4.0333C2.06811 3.36706 2.72283 2.85081 3.55841 2.48365C4.38538 2.11131 5.33287 1.92513 6.38381 1.92513C7.45198 1.92513 8.38233 2.11131 9.19207 2.48365C9.99319 2.85081 10.6307 3.36192 11.0873 4.01868C11.5524 4.66941 11.785 5.41923 11.8022 6.26646H9.18344Z" fill="#FF6868"/>
</svg>
