<svg width="123" height="26" viewBox="0 0 123 26" fill="none" xmlns="http://www.w3.org/2000/svg">
<path d="M6.84844 20.3136H0.479492V1.5089H6.97688C8.8429 1.5089 10.4458 1.88554 11.7857 2.63797C13.1313 3.38523 14.1658 4.45914 14.8877 5.86143C15.6096 7.26286 15.9705 8.94011 15.9705 10.8932C15.9705 12.8514 15.6061 14.5346 14.8782 15.943C14.1563 17.3504 13.1132 18.4312 11.7487 19.1845C10.3908 19.937 8.75728 20.3136 6.84844 20.3136ZM3.88419 17.366H6.68322C7.9925 17.366 9.08453 17.1272 9.95948 16.6497C10.8347 16.1662 11.492 15.4474 11.9321 14.4924C12.3732 13.5314 12.5929 12.3316 12.5929 10.8932C12.5929 9.45466 12.3732 8.26092 11.9321 7.31198C11.492 6.357 10.8407 5.64336 9.97783 5.17277C9.12123 4.69528 8.05677 4.45655 6.78418 4.45655H3.88419V17.366ZM23.1152 20.598C22.2219 20.598 21.4173 20.4394 20.7015 20.1205C19.9916 19.7965 19.4291 19.319 19.0131 18.6881C18.603 18.0581 18.398 17.2806 18.398 16.3558C18.398 15.5603 18.5444 14.9026 18.8382 14.3821C19.1319 13.8615 19.5325 13.4452 20.0407 13.1332C20.5481 12.8212 21.1201 12.585 21.7567 12.4264C22.3993 12.261 23.0626 12.1412 23.7483 12.0679C24.5744 11.9826 25.2438 11.9059 25.758 11.8386C26.2714 11.7654 26.6453 11.6551 26.8779 11.5077C27.1165 11.3551 27.2354 11.119 27.2354 10.8009V10.7458C27.2354 10.0545 27.0304 9.51841 26.6203 9.13918C26.2103 8.75909 25.6202 8.56951 24.8492 8.56951C24.036 8.56951 23.39 8.74705 22.9127 9.10215C22.4415 9.45724 22.1237 9.877 21.9583 10.3605L18.8563 9.91922C19.1018 9.0625 19.5049 8.34628 20.0683 7.77054C20.6308 7.18963 21.3191 6.75435 22.1332 6.46734C22.9463 6.17344 23.8457 6.02603 24.8311 6.02603C25.5099 6.02603 26.1862 6.10622 26.8589 6.26481C27.5317 6.42426 28.1468 6.68715 28.7041 7.05431C29.2606 7.41631 29.7068 7.9084 30.0436 8.53327C30.3865 9.15728 30.5579 9.93815 30.5579 10.8742V20.3136H27.3637V18.3761H27.2535C27.0519 18.7682 26.7676 19.1354 26.4007 19.4784C26.0397 19.8146 25.5832 20.0869 25.0327 20.2955C24.4883 20.4972 23.8491 20.598 23.1152 20.598ZM23.9775 18.1554C24.6442 18.1554 25.2222 18.0244 25.7124 17.7607C26.2017 17.4918 26.5781 17.1367 26.8408 16.6962C27.1096 16.2549 27.2449 15.7749 27.2449 15.2543V13.5926C27.1406 13.6779 26.9632 13.7572 26.7125 13.8313C26.4678 13.9046 26.1922 13.9684 25.8864 14.0236C25.5806 14.0787 25.2774 14.1278 24.9776 14.1709C24.6778 14.214 24.4176 14.2502 24.198 14.2812C23.7018 14.3484 23.259 14.4588 22.8671 14.6113C22.4751 14.7647 22.1667 14.9785 21.9402 15.2543C21.7136 15.5232 21.6008 15.8723 21.6008 16.3006C21.6008 16.9134 21.8239 17.3754 22.271 17.6874C22.7172 17.9994 23.2857 18.1554 23.9775 18.1554ZM33.8976 20.3136V6.20963H37.2202V20.3136H33.8976ZM35.5679 4.20835C35.0425 4.20835 34.5894 4.0342 34.2103 3.68514C33.8304 3.33004 33.6409 2.9043 33.6409 2.40872C33.6409 1.90623 33.8304 1.48131 34.2103 1.13224C34.5894 0.777142 35.0425 0.599609 35.5679 0.599609C36.1003 0.599609 36.5534 0.777142 36.9264 1.13224C37.3054 1.48131 37.4958 1.90623 37.4958 2.40872C37.4958 2.9043 37.3054 3.33004 36.9264 3.68514C36.5534 4.0342 36.1003 4.20835 35.5679 4.20835ZM40.6366 20.3136V6.20963H43.8574V8.56089H44.0039C44.2614 7.7464 44.7016 7.11893 45.3262 6.6785C45.9559 6.23118 46.6752 6.00794 47.4823 6.00794C47.6658 6.00794 47.8708 6.01746 48.0974 6.03555C48.33 6.04762 48.5221 6.06913 48.6754 6.10015V9.15733C48.535 9.1082 48.311 9.06593 48.0052 9.02886C47.7054 8.98577 47.4151 8.96421 47.1334 8.96421C46.5279 8.96421 45.9834 9.09609 45.5002 9.35896C45.0229 9.61667 44.6465 9.97436 44.3717 10.4338C44.0961 10.8931 43.9582 11.4224 43.9582 12.0222V20.3136H40.6366ZM53.3762 25.6021C52.924 25.6021 52.5044 25.5659 52.1194 25.4927C51.7395 25.4246 51.4371 25.3453 51.2106 25.254L51.9815 22.664C52.4648 22.8053 52.8964 22.8725 53.2754 22.8665C53.6544 22.8605 53.9878 22.7407 54.2755 22.508C54.5693 22.2813 54.8174 21.902 55.0189 21.3694L55.3032 20.6075L50.1924 6.20963H53.7156L56.9649 16.8609H57.1113L60.3692 6.20963H63.9028L58.2588 22.0219C57.9952 22.7683 57.6471 23.4078 57.2121 23.9404C56.778 24.4791 56.2456 24.8894 55.6159 25.1712C54.9914 25.4582 54.2454 25.6021 53.3762 25.6021ZM72.7583 1.5089H76.925L82.5044 15.1345H82.725L88.3044 1.5089H92.4711V20.3136H89.2038V7.39473H89.0298L83.8354 20.2584H81.3941L76.1997 7.36716H76.0257V20.3136H72.7583V1.5089ZM96.0314 20.3136V6.20963H99.3539V20.3136H96.0314ZM97.7017 4.20835C97.1754 4.20835 96.7231 4.0342 96.3441 3.68514C95.9642 3.33004 95.7747 2.9043 95.7747 2.40872C95.7747 1.90623 95.9642 1.48131 96.3441 1.13224C96.7231 0.777142 97.1754 0.599609 97.7017 0.599609C98.2341 0.599609 98.6872 0.777142 99.0602 1.13224C99.4392 1.48131 99.6287 1.90623 99.6287 2.40872C99.6287 2.9043 99.4392 3.33004 99.0602 3.68514C98.6872 4.0342 98.2341 4.20835 97.7017 4.20835ZM106.092 1.5089V20.3136H102.77V1.5089H106.092ZM112.536 15.8878L112.528 11.8757H113.06L118.125 6.20963H122.008L115.776 13.1513H115.088L112.536 15.8878ZM109.508 20.3136V1.5089H112.83V20.3136H109.508ZM118.355 20.3136L113.766 13.8951L116.005 11.5542L122.329 20.3136H118.355Z" fill="black"/>
</svg>
