<svg width="80" height="25" viewBox="0 0 80 25" fill="none" xmlns="http://www.w3.org/2000/svg">
<path d="M17.2196 6.85322H13.7877C13.6895 6.2904 13.5094 5.79135 13.2458 5.35696C12.9831 4.91567 12.6558 4.54248 12.2647 4.23651C11.8728 3.93054 11.4265 3.70127 10.9243 3.54785C10.429 3.3884 9.89321 3.30913 9.31864 3.30913C8.29699 3.30913 7.39158 3.56593 6.60166 4.08048C5.81259 4.58814 5.19497 5.33539 4.74789 6.32053C4.30167 7.3005 4.07858 8.49682 4.07858 9.91118C4.07858 11.3497 4.30167 12.5615 4.74789 13.5475C5.201 14.5266 5.81862 15.267 6.60166 15.7694C7.39158 16.265 8.2935 16.5132 9.30912 16.5132C9.87249 16.5132 10.398 16.4391 10.8881 16.2926C11.3834 16.1392 11.8271 15.9159 12.2182 15.622C12.6161 15.3281 12.9495 14.967 13.2191 14.5387C13.4939 14.1103 13.6835 13.6207 13.7877 13.07L17.2196 13.0881C17.0913 13.9819 16.813 14.8205 16.3849 15.6039C15.9628 16.3874 15.4089 17.0795 14.7241 17.6794C14.0384 18.2732 13.2372 18.7378 12.319 19.0748C11.4015 19.4058 10.3833 19.5704 9.26348 19.5704C7.61127 19.5704 6.13736 19.1877 4.84005 18.4232C3.54275 17.6578 2.52111 16.5529 1.77512 15.1083C1.02826 13.6638 0.655273 11.9314 0.655273 9.91118C0.655273 7.88488 1.03171 6.15245 1.78374 4.71396C2.53663 3.26943 3.5617 2.16453 4.85814 1.39918C6.15545 0.633817 7.62419 0.251953 9.26348 0.251953C10.3093 0.251953 11.2827 0.398515 12.182 0.69242C13.0813 0.986324 13.8825 1.41809 14.5862 1.98694C15.29 2.54975 15.868 3.24187 16.3203 4.06239C16.7794 4.87601 17.0792 5.80688 17.2196 6.85322ZM24.2471 19.598C23.3538 19.598 22.5492 19.4394 21.8334 19.1205C21.1244 18.7964 20.5611 18.3189 20.145 17.688C19.735 17.058 19.5299 16.2806 19.5299 15.3558C19.5299 14.5602 19.6773 13.9026 19.971 13.382C20.2647 12.8614 20.6653 12.4451 21.1727 12.1331C21.6809 11.8211 22.2529 11.585 22.8895 11.4264C23.5313 11.2609 24.1954 11.1411 24.8802 11.0678C25.7064 10.9825 26.3765 10.9058 26.89 10.8386C27.4042 10.7653 27.7773 10.655 28.0099 10.5076C28.2485 10.3551 28.3682 10.1189 28.3682 9.80087V9.74568C28.3682 9.05445 28.1632 8.51834 27.7531 8.13911C27.3431 7.75902 26.753 7.56944 25.9821 7.56944C25.168 7.56944 24.5228 7.74698 24.0455 8.10207C23.5743 8.45717 23.2565 8.87693 23.0911 9.36045L19.9891 8.91914C20.2337 8.06243 20.6377 7.34621 21.2003 6.77047C21.7636 6.18956 22.4519 5.75428 23.2651 5.46727C24.0791 5.17337 24.9785 5.02596 25.9631 5.02596C26.6427 5.02596 27.3189 5.10615 27.9917 5.26474C28.6645 5.42419 29.2796 5.68708 29.8361 6.05424C30.3925 6.41624 30.8396 6.90833 31.1764 7.5332C31.5184 8.15721 31.6898 8.93808 31.6898 9.87409V19.3135H28.4966V17.376H28.3863C28.1847 17.7682 27.8996 18.1353 27.5326 18.4784C27.1717 18.8145 26.7159 19.0869 26.1655 19.2954C25.6211 19.4971 24.9819 19.598 24.2471 19.598ZM25.1103 17.1553C25.777 17.1553 26.355 17.0244 26.8443 16.7606C27.3336 16.4917 27.71 16.1366 27.9736 15.6962C28.2424 15.2549 28.3768 14.7748 28.3768 14.2542V12.5925C28.2734 12.6779 28.096 12.7571 27.8444 12.8313C27.5998 12.9045 27.325 12.9683 27.0192 13.0235C26.7125 13.0786 26.4102 13.1277 26.1104 13.1708C25.8106 13.2139 25.5505 13.2501 25.3299 13.2811C24.8346 13.3484 24.391 13.4587 23.9999 13.6112C23.6079 13.7647 23.2987 13.9784 23.073 14.2542C22.8464 14.5232 22.7327 14.8722 22.7327 15.3006C22.7327 15.9134 22.9567 16.3754 23.4029 16.6874C23.85 16.9994 24.4185 17.1553 25.1103 17.1553ZM38.353 11.0497V19.3135H35.0304V5.20956H38.2057V7.60648H38.371C38.6949 6.81699 39.2118 6.18951 39.9216 5.72409C40.6375 5.25867 41.5222 5.02596 42.574 5.02596C43.5465 5.02596 44.3941 5.23457 45.116 5.65086C45.8439 6.06716 46.4073 6.66958 46.8044 7.45908C47.2084 8.24943 47.4074 9.20701 47.4014 10.3335V19.3135H44.0789V10.848C44.0789 9.90513 43.8342 9.16735 43.345 8.63471C42.8617 8.10206 42.1915 7.83573 41.3352 7.83573C40.7538 7.83573 40.2369 7.96415 39.7838 8.22186C39.3376 8.47267 38.9861 8.83641 38.7286 9.3139C38.4779 9.79138 38.353 10.3706 38.353 11.0497ZM56.0096 19.5618C54.9018 19.5618 53.9112 19.2765 53.036 18.7076C52.1608 18.1379 51.4699 17.3122 50.9617 16.228C50.4543 15.1446 50.2001 13.8285 50.2001 12.2796C50.2001 10.7127 50.4569 9.3906 50.9711 8.31323C51.4914 7.22984 52.1918 6.41277 53.073 5.86202C53.9534 5.30438 54.9354 5.02596 56.0182 5.02596C56.8443 5.02596 57.524 5.16736 58.0555 5.44833C58.5878 5.72414 59.01 6.05768 59.3227 6.44984C59.6345 6.8351 59.8757 7.19965 60.0471 7.54182H60.1849V0.508826H63.5161V19.3135H60.2495V17.0916H60.0471C59.8757 17.4346 59.6285 17.7983 59.3037 18.1845C58.9798 18.5637 58.5517 18.8877 58.0193 19.1575C57.487 19.4264 56.8168 19.5618 56.0096 19.5618ZM56.9365 16.8348C57.6394 16.8348 58.239 16.6443 58.7352 16.265C59.2305 15.8798 59.6069 15.3437 59.8636 14.6585C60.1203 13.9724 60.2495 13.1734 60.2495 12.2615C60.2495 11.3497 60.1203 10.5568 59.8636 9.88361C59.6129 9.21048 59.24 8.68643 58.7438 8.31323C58.2545 7.94003 57.6523 7.75298 56.9365 7.75298C56.1957 7.75298 55.578 7.94604 55.0827 8.33217C54.5865 8.71744 54.2136 9.25011 53.9629 9.92928C53.7122 10.6093 53.5864 11.3867 53.5864 12.2615C53.5864 13.1433 53.7122 13.9302 53.9629 14.6214C54.2196 15.3075 54.596 15.8488 55.0913 16.2469C55.5936 16.6382 56.2086 16.8348 56.9365 16.8348ZM69.1214 24.6021C68.6683 24.6021 68.2496 24.5659 67.8637 24.4926C67.4846 24.4245 67.1815 24.3452 66.9558 24.2539L67.7259 21.6639C68.21 21.8052 68.6407 21.8725 69.0206 21.8664C69.3996 21.8604 69.733 21.7406 70.0207 21.5079C70.3145 21.2812 70.5617 20.902 70.7641 20.3693L71.0484 19.6074L65.9367 5.20956H69.4608L72.7092 15.8608H72.8565L76.1144 5.20956H79.6471L74.0031 21.0218C73.7403 21.7682 73.3915 22.4077 72.9573 22.9404C72.5231 23.4791 71.9908 23.8893 71.3602 24.1711C70.7365 24.4581 69.9897 24.6021 69.1214 24.6021Z" fill="black"/>
</svg>
