<svg width="123" height="26" viewBox="0 0 123 26" fill="none" xmlns="http://www.w3.org/2000/svg">
<path d="M7.30548 19.9523H0.936523V1.14757H7.43392C9.29994 1.14757 10.9029 1.52421 12.2427 2.27664C13.5883 3.0239 14.6229 4.09781 15.3447 5.5001C16.0666 6.90154 16.4275 8.57878 16.4275 10.5318C16.4275 12.49 16.0632 14.1733 15.3353 15.5816C14.6134 16.9891 13.5702 18.0699 12.2057 18.8232C10.8478 19.5756 9.21431 19.9523 7.30548 19.9523ZM4.34122 17.0046H7.14025C8.44953 17.0046 9.54156 16.7659 10.4165 16.2884C11.2917 15.8049 11.949 15.086 12.3892 14.131C12.8302 13.17 13.0499 11.9703 13.0499 10.5318C13.0499 9.09333 12.8302 7.89959 12.3892 6.95065C11.949 5.99567 11.2978 5.28203 10.4349 4.81144C9.57826 4.33396 8.5138 4.09522 7.24121 4.09522H4.34122V17.0046ZM23.5722 20.2367C22.6789 20.2367 21.8743 20.0781 21.1585 19.7592C20.4487 19.4351 19.8862 18.9577 19.4701 18.3268C19.0601 17.6967 18.855 16.9193 18.855 15.9945C18.855 15.199 19.0015 14.5413 19.2952 14.0207C19.589 13.5002 19.9895 13.0839 20.4978 12.7719C21.0052 12.4599 21.5771 12.2237 22.2137 12.0651C22.8564 11.8996 23.5197 11.7798 24.2054 11.7066C25.0315 11.6212 25.7008 11.5445 26.2151 11.4773C26.7285 11.404 27.1023 11.2937 27.3349 11.1464C27.5735 10.9938 27.6924 10.7576 27.6924 10.4396V10.3844C27.6924 9.69319 27.4874 9.15708 27.0773 8.77785C26.6673 8.39776 26.0772 8.20819 25.3063 8.20819C24.4931 8.20819 23.847 8.38572 23.3698 8.74082C22.8986 9.09592 22.5807 9.51567 22.4153 9.9992L19.3133 9.55789C19.5588 8.70117 19.962 7.98495 20.5253 7.40921C21.0879 6.8283 21.7761 6.39302 22.5902 6.10601C23.4034 5.81211 24.3027 5.66471 25.2882 5.66471C25.967 5.66471 26.6432 5.74489 27.316 5.90348C27.9887 6.06293 28.6038 6.32582 29.1611 6.69299C29.7176 7.05498 30.1638 7.54707 30.5007 8.17194C30.8435 8.79595 31.0149 9.57682 31.0149 10.5128V19.9523H27.8208V18.0148H27.7105C27.5089 18.4069 27.2246 18.7741 26.8577 19.1171C26.4967 19.4532 26.0402 19.7256 25.4897 19.9342C24.9453 20.1359 24.3061 20.2367 23.5722 20.2367ZM24.4345 17.7941C25.1012 17.7941 25.6793 17.6631 26.1694 17.3994C26.6587 17.1305 27.0351 16.7753 27.2979 16.3349C27.5666 15.8936 27.7019 15.4136 27.7019 14.893V13.2313C27.5976 13.3166 27.4202 13.3959 27.1695 13.47C26.9249 13.5433 26.6492 13.6071 26.3434 13.6622C26.0376 13.7174 25.7344 13.7665 25.4346 13.8096C25.1348 13.8527 24.8747 13.8889 24.655 13.9199C24.1588 13.9871 23.7161 14.0974 23.3241 14.25C22.9322 14.4034 22.6238 14.6172 22.3972 14.893C22.1707 15.1619 22.0578 15.511 22.0578 15.9393C22.0578 16.5521 22.2809 17.0141 22.728 17.3261C23.1742 17.6381 23.7428 17.7941 24.4345 17.7941ZM34.3547 19.9523V5.8483H37.6772V19.9523H34.3547ZM36.025 3.84702C35.4995 3.84702 35.0464 3.67287 34.6674 3.32381C34.2875 2.96871 34.098 2.54297 34.098 2.04739C34.098 1.54491 34.2875 1.11998 34.6674 0.770913C35.0464 0.415814 35.4995 0.238281 36.025 0.238281C36.5573 0.238281 37.0105 0.415814 37.3834 0.770913C37.7625 1.11998 37.9528 1.54491 37.9528 2.04739C37.9528 2.54297 37.7625 2.96871 37.3834 3.32381C37.0105 3.67287 36.5573 3.84702 36.025 3.84702ZM41.0936 19.9523V5.8483H44.3145V8.19956H44.4609C44.7185 7.38507 45.1587 6.7576 45.7832 6.31717C46.4129 5.86985 47.1322 5.64661 47.9394 5.64661C48.1228 5.64661 48.3279 5.65613 48.5544 5.67423C48.787 5.68629 48.9791 5.7078 49.1324 5.73883V8.796C48.992 8.74687 48.768 8.7046 48.4622 8.66754C48.1625 8.62444 47.8722 8.60289 47.5905 8.60289C46.9849 8.60289 46.4405 8.73476 45.9572 8.99764C45.48 9.25534 45.1035 9.61303 44.8287 10.0724C44.5531 10.5318 44.4153 11.061 44.4153 11.6609V19.9523H41.0936ZM53.8332 25.2408C53.381 25.2408 52.9615 25.2046 52.5764 25.1313C52.1965 25.0633 51.8942 24.984 51.6676 24.8926L52.4386 22.3026C52.9218 22.444 53.3534 22.5112 53.7324 22.5052C54.1115 22.4991 54.4448 22.3794 54.7326 22.1467C55.0263 21.92 55.2744 21.5407 55.476 21.0081L55.7602 20.2462L50.6494 5.8483H54.1726L57.4219 16.4996H57.5684L60.8263 5.8483H64.3599L58.7158 21.6605C58.4522 22.4069 58.1042 23.0465 57.6692 23.5791C57.235 24.1178 56.7026 24.528 56.0729 24.8099C55.4484 25.0969 54.7024 25.2408 53.8332 25.2408ZM73.2153 1.14757H77.382L82.9615 14.7732H83.182L88.7615 1.14757H92.9282V19.9523H89.6608V7.0334H89.4868L84.2924 19.8971H81.8511L76.6567 7.00583H76.4827V19.9523H73.2153V1.14757ZM96.4884 19.9523V5.8483H99.811V19.9523H96.4884ZM98.1588 3.84702C97.6324 3.84702 97.1802 3.67287 96.8011 3.32381C96.4213 2.96871 96.2317 2.54297 96.2317 2.04739C96.2317 1.54491 96.4213 1.11998 96.8011 0.770913C97.1802 0.415814 97.6324 0.238281 98.1588 0.238281C98.6911 0.238281 99.1442 0.415814 99.5172 0.770913C99.8962 1.11998 100.086 1.54491 100.086 2.04739C100.086 2.54297 99.8962 2.96871 99.5172 3.32381C99.1442 3.67287 98.6911 3.84702 98.1588 3.84702ZM106.549 1.14757V19.9523H103.227V1.14757H106.549ZM112.993 15.5265L112.985 11.5144H113.517L118.582 5.8483H122.465L116.233 12.79H115.545L112.993 15.5265ZM109.965 19.9523V1.14757H113.287V19.9523H109.965ZM118.812 19.9523L114.223 13.5338L116.462 11.1929L122.786 19.9523H118.812Z" fill="black"/>
</svg>
