<svg width="13" height="20" viewBox="0 0 13 20" fill="none" xmlns="http://www.w3.org/2000/svg">
<path d="M5.91758 19.6406V0.835938H7.1218V19.6406H5.91758ZM9.38994 6.85191C9.32188 6.2098 9.03335 5.71076 8.52425 5.35307C8.01946 4.99539 7.36391 4.81697 6.55676 4.81697C5.98908 4.81697 5.50147 4.90233 5.09574 5.07384C4.68915 5.24536 4.37817 5.47807 4.16281 5.77197C3.94745 6.06588 3.83719 6.40112 3.83289 6.77863C3.83289 7.0915 3.90353 7.36303 4.04567 7.59402C4.19211 7.82414 4.39024 8.01977 4.64005 8.18094C4.88987 8.3378 5.1664 8.47053 5.46962 8.57827C5.7737 8.68601 6.07949 8.77651 6.38788 8.84977L7.79716 9.20228C8.36484 9.33415 8.91098 9.51343 9.43473 9.73838C9.96278 9.9642 10.4349 10.2478 10.851 10.5908C11.2722 10.9338 11.6047 11.3475 11.8493 11.8319C12.0948 12.3172 12.2172 12.8851 12.2172 13.5359C12.2172 14.4176 11.9915 15.1942 11.5418 15.8647C11.0913 16.531 10.44 17.0524 9.58894 17.4291C8.74216 17.8014 7.71623 17.9875 6.51196 17.9875C5.34301 17.9875 4.32738 17.8065 3.46595 17.4445C2.60883 17.0817 1.93864 16.5525 1.45366 15.8578C0.974709 15.1623 0.714545 14.315 0.675781 13.3161H3.3557C3.39446 13.8401 3.55637 14.2754 3.83978 14.6236C4.12405 14.9709 4.49364 15.2303 4.94847 15.4018C5.40847 15.5734 5.92273 15.6587 6.4904 15.6587C7.0822 15.6587 7.60165 15.5708 8.04701 15.395C8.49667 15.2131 8.84985 14.964 9.10397 14.6451C9.35809 14.3219 9.48819 13.9452 9.49335 13.5143C9.48819 13.1221 9.37362 12.7989 9.14792 12.5447C8.92309 12.2852 8.60695 12.0698 8.20122 11.8983C7.79979 11.7216 7.32943 11.5647 6.79104 11.4277L5.08112 10.9873C3.84239 10.6693 2.86378 10.1866 2.14363 9.54016C1.42951 8.88857 1.07206 8.02496 1.07206 6.9476C1.07206 6.06072 1.31236 5.28499 1.79131 4.61875C2.2763 3.95251 2.93445 3.43626 3.76659 3.0691C4.59872 2.69676 5.54113 2.51058 6.59293 2.51058C7.66024 2.51058 8.59487 2.69676 9.39772 3.0691C10.2049 3.43626 10.8389 3.94737 11.2989 4.60413C11.7589 5.25486 11.9966 6.00467 12.0113 6.85191H9.38994Z" fill="#FF6868"/>
</svg>
