<svg width="96" height="14" viewBox="0 0 96 14" fill="none" xmlns="http://www.w3.org/2000/svg">
<path d="M3.04761 12.8493H0.626953L5.03745 0.313148H7.83708L12.2562 12.8493H9.83565L6.48469 2.88414H6.38995L3.04761 12.8493ZM3.12511 7.93396H9.7408V9.75774H3.12511V7.93396ZM17.0113 13.0148C16.2705 13.0148 15.6157 12.8252 15.03 12.4451C14.4442 12.0659 13.9877 11.5151 13.6431 10.7929C13.3071 10.0706 13.1349 9.19318 13.1349 8.16064C13.1349 7.11603 13.3071 6.23434 13.6517 5.51552C13.9963 4.79326 14.4701 4.2485 15.0558 3.88133C15.6416 3.50986 16.2963 3.32456 17.0199 3.32456C17.5712 3.32456 18.0191 3.41852 18.3723 3.60642C18.7341 3.79 19.0097 4.01235 19.2165 4.27351C19.4318 4.53035 19.5869 4.77343 19.6989 5.00183H19.7937V0.313148H22.0161V12.8493H19.8368V11.3677H19.6989C19.5869 11.5961 19.4233 11.8392 19.208 12.096C18.9926 12.3494 18.7082 12.5658 18.3551 12.7451C17.9933 12.9252 17.5454 13.0148 17.0113 13.0148ZM17.6315 11.1962C18.0967 11.1962 18.5015 11.0704 18.8289 10.817C19.1562 10.5602 19.406 10.2024 19.5783 9.74565C19.7506 9.28884 19.8368 8.75619 19.8368 8.1477C19.8368 7.54007 19.7506 7.01174 19.5783 6.56269C19.4146 6.11365 19.1648 5.76461 18.8375 5.51552C18.5102 5.2673 18.1053 5.14229 17.6315 5.14229C17.1319 5.14229 16.727 5.27071 16.3911 5.52841C16.0637 5.78526 15.8139 6.1404 15.6503 6.59289C15.478 7.04624 15.3918 7.5642 15.3918 8.1477C15.3918 8.73551 15.478 9.26039 15.6503 9.7215C15.8226 10.1783 16.0724 10.5394 16.3997 10.8049C16.7357 11.0661 17.1405 11.1962 17.6315 11.1962ZM27.8652 13.0148C27.1244 13.0148 26.4612 12.8252 25.884 12.4451C25.2982 12.0659 24.833 11.5151 24.497 10.7929C24.1611 10.0706 23.9888 9.19318 23.9888 8.16064C23.9888 7.11603 24.1611 6.23434 24.5056 5.51552C24.8502 4.79326 25.3154 4.2485 25.9012 3.88133C26.4955 3.50986 27.1502 3.32456 27.8652 3.32456C28.4165 3.32456 28.8731 3.41852 29.2262 3.60642C29.5794 3.79 29.8638 4.01235 30.0705 4.27351C30.2773 4.53035 30.4409 4.77343 30.5529 5.00183H30.6476V0.313148H32.8702V12.8493H30.6907V11.3677H30.5529C30.4409 11.5961 30.2773 11.8392 30.0619 12.096C29.8465 12.3494 29.5537 12.5658 29.2005 12.7451C28.8473 12.9252 28.3993 13.0148 27.8652 13.0148ZM28.4768 11.1962C28.9506 11.1962 29.3469 11.0704 29.6828 10.817C30.0102 10.5602 30.26 10.2024 30.4323 9.74565C30.6045 9.28884 30.6907 8.75619 30.6907 8.1477C30.6907 7.54007 30.6045 7.01174 30.4323 6.56269C30.2686 6.11365 30.0188 5.76461 29.6828 5.51552C29.3641 5.2673 28.9592 5.14229 28.4768 5.14229C27.9858 5.14229 27.5724 5.27071 27.245 5.52841C26.9177 5.78526 26.6679 6.1404 26.4956 6.59289C26.3319 7.04624 26.2457 7.5642 26.2457 8.1477C26.2457 8.73551 26.3319 9.26039 26.4956 9.7215C26.6679 10.1783 26.9177 10.5394 27.2537 10.8049C27.5896 11.0661 27.9944 11.1962 28.4768 11.1962ZM44.1978 3.44697V5.16128H38.7882V3.44697H44.1978ZM40.1233 1.19398H42.3372V10.0215C42.3372 10.3188 42.3888 10.5481 42.475 10.7066C42.5697 10.8618 42.6904 10.9678 42.8454 11.0255C42.9919 11.0824 43.1641 11.1109 43.345 11.1109C43.4829 11.1109 43.6121 11.1006 43.7241 11.0799C43.8447 11.0601 43.9308 11.0411 43.9911 11.0255L44.3616 12.7571C44.2496 12.7985 44.0773 12.8433 43.8533 12.8924C43.638 12.9415 43.3795 12.97 43.0608 12.9777C42.5095 12.9941 42.0099 12.9105 41.5619 12.7269C41.1226 12.539 40.7694 12.2494 40.5024 11.8573C40.244 11.466 40.1233 10.9765 40.1233 10.3886V1.19398ZM50.0469 13.0329C49.1252 13.0329 48.3327 12.8312 47.6608 12.427C46.9889 12.0228 46.4634 11.4574 46.093 10.7317C45.7226 10.0051 45.5417 9.15613 45.5417 8.18478C45.5417 7.21344 45.7226 6.36272 46.093 5.63184C46.4634 4.90182 46.9889 4.33469 47.6608 3.93047C48.3327 3.52624 49.1252 3.32456 50.0469 3.32456C50.9601 3.32456 51.7612 3.52624 52.4331 3.93047C53.105 4.33469 53.6218 4.90182 53.9922 5.63184C54.3626 6.36272 54.5436 7.21344 54.5436 8.18478C54.5436 9.15613 54.3626 10.0051 53.9922 10.7317C53.6218 11.4574 53.105 12.0228 52.4331 12.427C51.7612 12.8312 50.9601 13.0329 50.0469 13.0329ZM50.0556 11.2574C50.5552 11.2574 50.9686 11.1212 51.3046 10.848C51.6405 10.5705 51.8904 10.199 52.054 9.7336C52.2177 9.26818 52.3039 8.75017 52.3039 8.17874C52.3039 7.60299 52.2177 7.0833 52.054 6.61788C51.8904 6.14815 51.6405 5.7749 51.3046 5.49738C50.9686 5.21985 50.5552 5.08111 50.0556 5.08111C49.5473 5.08111 49.1252 5.21985 48.7807 5.49738C48.4533 5.7749 48.1949 6.14815 48.0312 6.61788C47.8676 7.0833 47.79 7.60299 47.79 8.17874C47.79 8.75017 47.8676 9.26818 48.0312 9.7336C48.1949 10.199 48.4533 10.5705 48.7807 10.848C49.1252 11.1212 49.5473 11.2574 50.0556 11.2574ZM71.5223 4.54243H69.2309C69.1706 4.1675 69.05 3.83483 68.8777 3.54524C68.6968 3.25133 68.4814 3.00224 68.223 2.79797C67.956 2.59371 67.6631 2.44113 67.3272 2.33857C66.9998 2.23256 66.6381 2.17996 66.259 2.17996C65.5785 2.17996 64.9668 2.35149 64.4413 2.69366C63.9159 3.03238 63.5024 3.53058 63.2096 4.18734C62.9081 4.84065 62.7616 5.63874 62.7616 6.58079C62.7616 7.54007 62.9081 8.34765 63.2096 9.00527C63.5111 9.65773 63.9245 10.1516 64.4413 10.4869C64.9668 10.817 65.5699 10.9825 66.2504 10.9825C66.6208 10.9825 66.974 10.9334 67.3013 10.8351C67.6287 10.7334 67.9302 10.5843 68.1886 10.3886C68.4557 10.193 68.6795 9.95165 68.8518 9.66637C69.0413 9.38022 69.162 9.05441 69.2309 8.68638L71.5223 8.69932C71.4362 9.29489 71.2553 9.85424 70.9624 10.3765C70.6867 10.8988 70.3163 11.36 69.8597 11.7599C69.4032 12.1555 68.8691 12.4658 68.2575 12.6899C67.6459 12.9105 66.9654 13.0208 66.2159 13.0208C65.1219 13.0208 64.1312 12.7657 63.2698 12.2555C62.4084 11.7452 61.7279 11.0092 61.2282 10.0456C60.7286 9.08287 60.4788 7.92792 60.4788 6.58079C60.4788 5.23021 60.7286 4.07526 61.2369 3.11597C61.7365 2.15324 62.417 1.41636 63.2784 0.906119C64.1485 0.396742 65.1219 0.141602 66.2159 0.141602C66.9137 0.141602 67.5684 0.238998 68.1628 0.435509C68.7657 0.631158 69.2998 0.919062 69.765 1.29829C70.2388 1.67408 70.6178 2.13517 70.9279 2.68161C71.2294 3.2246 71.4276 3.84516 71.5223 4.54243ZM76.2084 13.0389C75.6141 13.0389 75.08 12.9329 74.5976 12.7209C74.1238 12.5046 73.7534 12.1865 73.4778 11.7659C73.2021 11.3453 73.0642 10.8274 73.0642 10.2111C73.0642 9.68018 73.159 9.24144 73.3572 8.89496C73.5553 8.54762 73.8223 8.27095 74.1582 8.06237C74.4942 7.85466 74.8819 7.69693 75.304 7.59092C75.7347 7.4806 76.174 7.40132 76.6305 7.3522C77.1818 7.29531 77.6298 7.24446 77.9744 7.19964C78.3104 7.15051 78.5602 7.07727 78.7152 6.97901C78.8789 6.87731 78.9564 6.71959 78.9564 6.50756V6.47047C78.9564 6.00936 78.8185 5.65254 78.5429 5.4C78.2758 5.14661 77.8796 5.01993 77.3627 5.01993C76.82 5.01993 76.3893 5.13886 76.0706 5.37502C75.7605 5.61204 75.5451 5.89131 75.4331 6.21365L73.3658 5.91975C73.5295 5.34831 73.8051 4.87078 74.1755 4.48724C74.5545 4.09939 75.011 3.8098 75.5537 3.61846C76.0964 3.42195 76.6995 3.32456 77.3542 3.32456C77.8021 3.32456 78.2587 3.37713 78.7066 3.484C79.1545 3.59002 79.5594 3.76502 79.9385 4.0098C80.3089 4.25112 80.6017 4.57949 80.8257 4.99578C81.0583 5.41207 81.1703 5.93177 81.1703 6.55664V12.8493H79.0426V11.5573H78.9651C78.8358 11.8185 78.6463 12.0641 78.3965 12.2925C78.1553 12.5166 77.8537 12.6985 77.4833 12.8373C77.1215 12.9717 76.6994 13.0389 76.2084 13.0389ZM76.7856 11.4108C77.225 11.4108 77.6126 11.3229 77.9399 11.148C78.2673 10.9678 78.5171 10.7317 78.6893 10.4378C78.8702 10.1439 78.9651 9.8232 78.9651 9.47673V8.36838C78.8961 8.42526 78.7755 8.4787 78.6032 8.52783C78.4396 8.57695 78.2586 8.61917 78.0519 8.65624C77.8538 8.6933 77.6471 8.7252 77.4489 8.7545C77.2508 8.78295 77.0784 8.80704 76.932 8.82773C76.596 8.87255 76.3032 8.94581 76.0448 9.04752C75.7778 9.15008 75.5796 9.29314 75.4245 9.47673C75.2781 9.656 75.2006 9.88873 75.2006 10.174C75.2006 10.5825 75.347 10.8902 75.6485 11.0988C75.9414 11.3065 76.3205 11.4108 76.7856 11.4108ZM83.3927 12.8493V3.44697H85.5463V5.01388H85.6411C85.8134 4.47089 86.1062 4.05288 86.5197 3.75897C86.9418 3.46076 87.4242 3.31251 87.9583 3.31251C88.0875 3.31251 88.2167 3.31854 88.3718 3.3306C88.5268 3.33836 88.6561 3.353 88.7595 3.37369V5.41205C88.6647 5.3793 88.5096 5.35088 88.3115 5.32588C88.1134 5.29744 87.9152 5.28364 87.7257 5.28364C87.3208 5.28364 86.959 5.37068 86.6403 5.54651C86.3216 5.71803 86.0718 5.95676 85.8909 6.26273C85.7013 6.56871 85.6152 6.92208 85.6152 7.322V12.8493H83.3927ZM95.4269 3.44697V5.16128H90.0257V3.44697H95.4269ZM91.3524 1.19398H93.5748V10.0215C93.5748 10.3188 93.6179 10.5481 93.704 10.7066C93.7988 10.8618 93.9193 10.9678 94.0744 11.0255C94.2208 11.0824 94.3932 11.1109 94.5741 11.1109C94.7119 11.1109 94.8411 11.1006 94.9531 11.0799C95.0737 11.0601 95.1599 11.0411 95.2202 11.0255L95.5991 12.7571C95.4785 12.7985 95.3063 12.8433 95.0909 12.8924C94.8756 12.9415 94.6085 12.97 94.2897 12.9777C93.7384 12.9941 93.2388 12.9105 92.7909 12.7269C92.3516 12.539 91.9984 12.2494 91.74 11.8573C91.4815 11.466 91.3524 10.9765 91.3524 10.3886V1.19398Z" fill="black"/>
</svg>
