<svg width="31" height="16" viewBox="0 0 31 16" fill="none" xmlns="http://www.w3.org/2000/svg">
<path d="M0.0810547 12.797V10.6302L6.46078 0.54432H8.2672V3.6299H7.16542L2.87036 10.4397V10.5569H11.7758V12.797H0.0810547ZM7.2533 15.5886V12.1359L7.28343 11.1663V0.54432H9.85306V15.5886H7.2533ZM15.3645 15.7506C14.9191 15.7506 14.5375 15.5938 14.2188 15.2801C13.9009 14.9664 13.7441 14.5845 13.7493 14.1338C13.7441 13.6933 13.9009 13.3167 14.2188 13.003C14.5375 12.6892 14.9191 12.5332 15.3645 12.5332C15.7952 12.5332 16.1699 12.6892 16.4878 13.003C16.8108 13.3167 16.9745 13.6933 16.9796 14.1338C16.9745 14.4328 16.8961 14.7043 16.7445 14.9499C16.598 15.1947 16.4025 15.3904 16.157 15.5369C15.9175 15.6791 15.6531 15.7506 15.3645 15.7506ZM24.692 0.339211C25.4113 0.34352 26.1116 0.471074 26.7921 0.721022C27.477 0.965799 28.0938 1.36745 28.6416 1.92595C29.1904 2.47929 29.6254 3.22135 29.9484 4.15133C30.2714 5.08217 30.4334 6.23283 30.4334 7.60409C30.4386 8.89693 30.3007 10.0527 30.0225 11.0714C29.7477 12.085 29.354 12.9418 28.8398 13.6416C28.3264 14.3424 27.707 14.8758 26.9825 15.243C26.2581 15.611 25.4432 15.7946 24.5378 15.7946C23.5885 15.7946 22.7469 15.6084 22.0121 15.2361C21.2833 14.8638 20.6932 14.3544 20.2427 13.708C19.7931 13.0616 19.5166 12.3221 19.4132 11.4895H22.0931C22.23 12.0868 22.5091 12.5625 22.9304 12.9151C23.3559 13.2624 23.8917 13.4365 24.5378 13.4365C25.5801 13.4365 26.383 12.9832 26.9463 12.0773C27.5089 11.1715 27.7906 9.91306 27.7906 8.30133H27.6872C27.4477 8.73228 27.1367 9.10463 26.7551 9.41836C26.3735 9.72691 25.9402 9.96396 25.4552 10.1312C24.9763 10.2975 24.4672 10.3802 23.9288 10.3802C23.0475 10.3802 22.255 10.1699 21.5495 9.74846C20.85 9.32785 20.2944 8.74954 19.8835 8.01521C19.4769 7.28088 19.271 6.44051 19.2667 5.49587C19.2667 4.5159 19.4916 3.63764 19.9421 2.85849C20.3969 2.07503 21.0309 1.45791 21.8433 1.00714C22.6556 0.552066 23.6057 0.328868 24.692 0.339211ZM24.6997 2.54307C24.1708 2.54307 23.6936 2.67234 23.2681 2.93177C22.8468 3.18689 22.5143 3.53423 22.2697 3.97552C22.0293 4.41077 21.9096 4.89859 21.9096 5.43727C21.9147 5.97078 22.0345 6.45517 22.2697 6.89129C22.5091 7.32741 22.8348 7.67218 23.2457 7.9273C23.6617 8.18156 24.1364 8.30912 24.6705 8.30912C25.0667 8.30912 25.4363 8.23324 25.7782 8.08154C26.1211 7.92985 26.42 7.71871 26.6741 7.4498C26.9334 7.17572 27.1341 6.86457 27.2763 6.51637C27.4236 6.16903 27.4942 5.80185 27.489 5.41486C27.489 4.90031 27.3667 4.42545 27.1221 3.9902C26.8826 3.55408 26.5518 3.20411 26.1314 2.93951C25.7154 2.6749 25.2381 2.54307 24.6997 2.54307Z" fill="#454545"/>
</svg>
