<svg width="96" height="14" viewBox="0 0 96 14" fill="none" xmlns="http://www.w3.org/2000/svg">
<path d="M2.6849 13.435H0.261719L4.67307 0.898842H7.47529L11.8918 13.435H9.46949L6.12286 3.46983H6.02465L2.6849 13.435ZM2.76416 8.51965H9.37129V10.3434H2.76416V8.51965ZM16.646 13.6005C15.9078 13.6005 15.2471 13.4109 14.6639 13.0308C14.0807 12.6516 13.6198 12.1008 13.2813 11.3786C12.9428 10.6563 12.7731 9.77888 12.7731 8.74633C12.7731 7.70172 12.9445 6.82003 13.2873 6.10122C13.6336 5.37895 14.1005 4.83419 14.688 4.46703C15.2755 4.09555 15.9302 3.91025 16.6521 3.91025C17.2025 3.91025 17.6556 4.00422 18.0105 4.19211C18.3654 4.37569 18.6463 4.59805 18.8547 4.8592C19.0623 5.11604 19.2234 5.35912 19.338 5.58752H19.4293V0.898842H21.6509V13.435H19.4724V11.9534H19.338C19.2234 12.1818 19.0589 12.4249 18.8427 12.6817C18.6264 12.9351 18.3405 13.1515 17.9855 13.3308C17.6306 13.5109 17.1844 13.6005 16.646 13.6005ZM17.2637 11.7819C17.7332 11.7819 18.1329 11.6561 18.4628 11.4027C18.7936 11.1459 19.0442 10.7881 19.2157 10.3313C19.3871 9.87454 19.4724 9.34189 19.4724 8.73339C19.4724 8.12576 19.3871 7.59743 19.2157 7.14839C19.0485 6.69934 18.7996 6.3503 18.4688 6.10122C18.1432 5.85299 17.7409 5.72798 17.2637 5.72798C16.7701 5.72798 16.3583 5.8564 16.0284 6.11411C15.6976 6.37095 15.4486 6.72609 15.2815 7.17858C15.1144 7.63194 15.0309 8.14989 15.0309 8.73339C15.0309 9.3212 15.1144 9.84608 15.2815 10.3072C15.453 10.764 15.7036 11.1251 16.0344 11.3906C16.3687 11.6518 16.7787 11.7819 17.2637 11.7819ZM27.4983 13.6005C26.76 13.6005 26.0993 13.4109 25.5153 13.0308C24.9321 12.6516 24.4712 12.1008 24.1327 11.3786C23.7941 10.6563 23.6253 9.77888 23.6253 8.74633C23.6253 7.70172 23.7967 6.82003 24.1387 6.10122C24.4859 5.37895 24.9528 4.83419 25.5403 4.46703C26.1277 4.09555 26.7824 3.91025 27.5043 3.91025C28.0548 3.91025 28.507 4.00422 28.8619 4.19211C29.2168 4.37569 29.4985 4.59805 29.707 4.8592C29.9146 5.11604 30.0757 5.35912 30.1902 5.58752H30.2815V0.898842H32.5023V13.435H30.3246V11.9534H30.1902C30.0757 12.1818 29.9103 12.4249 29.694 12.6817C29.4778 12.9351 29.1927 13.1515 28.8378 13.3308C28.4829 13.5109 28.0367 13.6005 27.4983 13.6005ZM28.1159 11.7819C28.5845 11.7819 28.9842 11.6561 29.315 11.4027C29.6449 11.1459 29.8965 10.7881 30.0679 10.3313C30.2385 9.87454 30.3246 9.34189 30.3246 8.73339C30.3246 8.12576 30.2385 7.59743 30.0679 7.14839C29.8999 6.69934 29.6518 6.3503 29.321 6.10122C28.9946 5.85299 28.5931 5.72798 28.1159 5.72798C27.6223 5.72798 27.2106 5.8564 26.8798 6.11411C26.5498 6.37095 26.3009 6.72609 26.1338 7.17858C25.9667 7.63194 25.8831 8.14989 25.8831 8.73339C25.8831 9.3212 25.9667 9.84608 26.1338 10.3072C26.3052 10.764 26.5559 11.1251 26.8858 11.3906C27.2209 11.6518 27.6301 11.7819 28.1159 11.7819ZM43.8283 4.03266V5.74697H38.4263V4.03266H43.8283ZM39.7598 1.77967H41.9745V10.6072C41.9745 10.9045 42.0193 11.1337 42.1098 11.2923C42.2037 11.4475 42.326 11.5535 42.4767 11.6112C42.6275 11.6681 42.7946 11.6966 42.9781 11.6966C43.1168 11.6966 43.2434 11.6863 43.3571 11.6656C43.476 11.6458 43.5656 11.6267 43.6267 11.6112L43.9997 13.3428C43.8817 13.3842 43.712 13.429 43.4924 13.4781C43.2761 13.5272 43.0108 13.5557 42.6964 13.5634C42.1417 13.5798 41.642 13.4962 41.1975 13.3126C40.753 13.1247 40.4007 12.8351 40.1397 12.443C39.8821 12.0517 39.7564 11.5621 39.7598 10.9743V1.77967ZM49.6791 13.6186C48.7617 13.6186 47.9658 13.4169 47.293 13.0127C46.6202 12.6085 46.0982 12.0431 45.7269 11.3174C45.3599 10.5908 45.1765 9.74183 45.1765 8.77048C45.1765 7.79913 45.3599 6.94841 45.7269 6.21753C46.0982 5.48751 46.6202 4.92039 47.293 4.51616C47.9658 4.11193 48.7617 3.91025 49.6791 3.91025C50.5965 3.91025 51.3925 4.11193 52.0653 4.51616C52.7381 4.92039 53.2583 5.48751 53.6253 6.21753C53.9966 6.94841 54.1818 7.79913 54.1818 8.77048C54.1818 9.74183 53.9966 10.5908 53.6253 11.3174C53.2583 12.0431 52.7381 12.6085 52.0653 13.0127C51.3925 13.4169 50.5965 13.6186 49.6791 13.6186ZM49.6912 11.8431C50.1891 11.8431 50.6052 11.7069 50.9394 11.4337C51.2736 11.1562 51.5226 10.7847 51.6854 10.3193C51.8534 9.85387 51.9369 9.33586 51.9369 8.76443C51.9369 8.18869 51.8534 7.66899 51.6854 7.20357C51.5226 6.73384 51.2736 6.3606 50.9394 6.08307C50.6052 5.80554 50.1891 5.6668 49.6912 5.6668C49.1812 5.6668 48.7574 5.80554 48.4189 6.08307C48.0846 6.3606 47.8331 6.73384 47.666 7.20357C47.5032 7.66899 47.4213 8.18869 47.4213 8.76443C47.4213 9.33586 47.5032 9.85387 47.666 10.3193C47.8331 10.7847 48.0846 11.1562 48.4189 11.4337C48.7574 11.7069 49.1812 11.8431 49.6912 11.8431ZM71.1579 5.12812H68.87C68.8045 4.7532 68.6848 4.42052 68.509 4.13093C68.3333 3.83702 68.1153 3.58793 67.8543 3.38367C67.5933 3.1794 67.2953 3.02683 66.9611 2.92426C66.6311 2.81825 66.2736 2.76566 65.8903 2.76566C65.2089 2.76566 64.6059 2.93718 64.0796 3.27935C63.5532 3.61807 63.1415 4.11627 62.8434 4.77303C62.5462 5.42635 62.3972 6.22444 62.3972 7.16648C62.3972 8.12576 62.5462 8.93335 62.8434 9.59097C63.1458 10.2434 63.5576 10.7373 64.0796 11.0726C64.6059 11.4027 65.2072 11.5681 65.8843 11.5681C66.2598 11.5681 66.6104 11.5191 66.9369 11.4208C67.2668 11.3191 67.5623 11.17 67.8233 10.9743C68.0887 10.7787 68.3109 10.5373 68.4909 10.2521C68.6744 9.96591 68.8002 9.6401 68.87 9.27207L71.1579 9.28501C71.0726 9.88058 70.8866 10.4399 70.6014 10.9622C70.3197 11.4845 69.9511 11.9457 69.4936 12.3456C69.0371 12.7412 68.503 13.0515 67.8914 13.2756C67.2789 13.4962 66.6001 13.6065 65.8541 13.6065C64.7523 13.6065 63.7695 13.3514 62.9046 12.8412C62.0397 12.3309 61.3592 11.5949 60.8613 10.6313C60.3634 9.66856 60.1153 8.51362 60.1153 7.16648C60.1153 5.8159 60.366 4.66095 60.8673 3.70167C61.3695 2.73894 62.0526 2.00205 62.9166 1.49181C63.7815 0.982435 64.761 0.727295 65.8541 0.727295C66.551 0.727295 67.1997 0.824691 67.7992 1.0212C68.3988 1.21685 68.9328 1.50475 69.4023 1.88399C69.8709 2.25977 70.2569 2.72086 70.5584 3.2673C70.8642 3.81029 71.064 4.43085 71.1579 5.12812ZM75.8432 13.6246C75.2471 13.6246 74.7113 13.5186 74.2341 13.3066C73.7611 13.0903 73.3856 12.7722 73.1082 12.3516C72.8351 11.931 72.6982 11.413 72.6982 10.7968C72.6982 10.2659 72.7964 9.82713 72.9919 9.48065C73.1874 9.13331 73.4553 8.85664 73.793 8.64807C74.1316 8.44035 74.5132 8.28263 74.9378 8.17661C75.366 8.06629 75.8087 7.98702 76.2653 7.93789C76.8158 7.88101 77.262 7.83015 77.6048 7.78533C77.9477 7.73621 78.1966 7.66296 78.3517 7.56471C78.5102 7.463 78.5903 7.30528 78.5903 7.09325V7.05617C78.5903 6.59506 78.4533 6.23823 78.1802 5.9857C77.9072 5.7323 77.5135 5.60562 76.9992 5.60562C76.4565 5.60562 76.0267 5.72455 75.7088 5.96071C75.3944 6.19773 75.1825 6.477 75.0722 6.79935L73.0039 6.50544C73.1676 5.93401 73.4364 5.45648 73.812 5.07294C74.1867 4.68509 74.6458 4.3955 75.1885 4.20416C75.7312 4.00764 76.3308 3.91025 76.9872 3.91025C77.4394 3.91025 77.8908 3.96282 78.3388 4.0697C78.7876 4.17571 79.1976 4.35071 79.5689 4.59549C79.9401 4.83682 80.2382 5.16518 80.4622 5.58148C80.6905 5.99777 80.805 6.51747 80.805 7.14234V13.435H78.6756V12.143H78.6024C78.468 12.4042 78.2776 12.6498 78.033 12.8782C77.7926 13.1023 77.4885 13.2842 77.1216 13.423C76.7589 13.5574 76.3325 13.6246 75.8432 13.6246ZM76.4178 11.9965C76.8623 11.9965 77.2482 11.9086 77.5747 11.7336C77.9003 11.5535 78.1518 11.3174 78.3267 11.0235C78.5067 10.7296 78.5963 10.4089 78.5963 10.0624V8.95407C78.5265 9.01096 78.4085 9.06439 78.2414 9.11352C78.0778 9.16265 77.8943 9.20487 77.691 9.24193C77.4868 9.27899 77.2852 9.31089 77.0854 9.3402C76.8855 9.36864 76.7115 9.39274 76.5651 9.41342C76.2343 9.45824 75.9388 9.53151 75.6778 9.63321C75.4168 9.73577 75.2109 9.87884 75.0602 10.0624C74.9086 10.2417 74.8336 10.4744 74.8336 10.7597C74.8336 11.1682 74.9826 11.4759 75.2798 11.6845C75.5779 11.8922 75.9569 11.9965 76.4178 11.9965ZM83.0318 13.435V4.03266H85.1793V5.59957H85.2767C85.4481 5.05658 85.7419 4.63857 86.1579 4.34467C86.5783 4.04645 87.0572 3.8982 87.5956 3.8982C87.7179 3.8982 87.8549 3.90423 88.0057 3.9163C88.1607 3.92406 88.2891 3.9387 88.3916 3.95938V5.99774C88.2977 5.96499 88.1487 5.93657 87.9445 5.91158C87.7447 5.88313 87.5508 5.86933 87.363 5.86933C86.9599 5.86933 86.5964 5.95638 86.2742 6.1322C85.9563 6.30372 85.7057 6.54246 85.5222 6.84843C85.3378 7.1544 85.2465 7.50778 85.2465 7.90769V13.435H83.0318ZM95.0599 4.03266V5.74697H89.6579V4.03266H95.0599ZM90.9914 1.77967H93.2061V10.6072C93.2061 10.9045 93.2509 11.1337 93.3405 11.2923C93.4344 11.4475 93.5567 11.5535 93.7074 11.6112C93.859 11.6681 94.0262 11.6966 94.2097 11.6966C94.3484 11.6966 94.475 11.6863 94.5887 11.6656C94.7067 11.6458 94.7971 11.6267 94.8583 11.6112L95.2313 13.3428C95.1133 13.3842 94.9436 13.429 94.7231 13.4781C94.5069 13.5272 94.2424 13.5557 93.928 13.5634C93.3732 13.5798 92.8736 13.4962 92.4291 13.3126C91.9846 13.1247 91.6314 12.8351 91.3704 12.443C91.1137 12.0517 90.9871 11.5621 90.9914 10.9743V1.77967Z" fill="black"/>
</svg>
