<svg width="96" height="26" viewBox="0 0 96 26" fill="none" xmlns="http://www.w3.org/2000/svg">
<path d="M0.378906 19.9523V1.14757H3.7815V17.0968H12.0598V19.9523H0.378906ZM21.0186 20.2281C19.6404 20.2281 18.4516 19.9247 17.4437 19.3188C16.4272 18.7129 15.6519 17.8648 15.092 16.7754C14.5407 15.6859 14.2651 14.4121 14.2651 12.9555C14.2651 11.4989 14.5407 10.2224 15.092 9.12694C15.6519 8.03062 16.4272 7.17995 17.4437 6.57405C18.4516 5.96814 19.6404 5.66471 21.0186 5.66471C22.3969 5.66471 23.5857 5.96814 24.6022 6.57405C25.6101 7.17995 26.3853 8.03062 26.9366 9.12694C27.4966 10.2224 27.7722 11.4989 27.7722 12.9555C27.7722 14.4121 27.4966 15.6859 26.9366 16.7754C26.3853 17.8648 25.6101 18.7129 24.6022 19.3188C23.5857 19.9247 22.3969 20.2281 21.0186 20.2281ZM21.0359 17.5648C21.7853 17.5648 22.4056 17.3597 22.9138 16.9494C23.4135 16.5332 23.7838 15.9764 24.0336 15.2783C24.2834 14.581 24.4041 13.8035 24.4041 12.9459C24.4041 12.0832 24.2834 11.3024 24.0336 10.6051C23.7838 9.90094 23.4135 9.3407 22.9138 8.92441C22.4056 8.50812 21.7853 8.3004 21.0359 8.3004C20.2778 8.3004 19.6404 8.50812 19.1322 8.92441C18.6239 9.3407 18.2535 9.90094 18.0036 10.6051C17.7538 11.3024 17.6333 12.0832 17.6333 12.9459C17.6333 13.8035 17.7538 14.581 18.0036 15.2783C18.2535 15.9764 18.6239 16.5332 19.1322 16.9494C19.6404 17.3597 20.2778 17.5648 21.0359 17.5648ZM33.9142 1.14757V19.9523H30.5977V1.14757H33.9142ZM40.6506 1.14757V19.9523H37.3341V1.14757H40.6506ZM44.0704 19.9523V5.8483H47.3955V19.9523H44.0704ZM45.7416 3.84702C45.2161 3.84702 44.7595 3.67287 44.3805 3.32381C44.0015 2.96871 43.8119 2.54297 43.8119 2.04739C43.8119 1.54491 44.0015 1.11998 44.3805 0.770913C44.7595 0.415814 45.2161 0.238281 45.7416 0.238281C46.2757 0.238281 46.7236 0.415814 47.1026 0.770913C47.4817 1.11998 47.6712 1.54491 47.6712 2.04739C47.6712 2.54297 47.4817 2.96871 47.1026 3.32381C46.7236 3.67287 46.2757 3.84702 45.7416 3.84702ZM50.8067 25.2408V5.8483H54.0802V8.18057H54.2696C54.4419 7.8384 54.6832 7.47385 54.9933 7.08858C55.3034 6.69642 55.7255 6.36288 56.2596 6.08708C56.7937 5.8061 57.4742 5.66471 58.3012 5.66471C59.3866 5.66471 60.3686 5.94312 61.2473 6.50077C62.1259 7.05151 62.8236 7.86858 63.3319 8.95198C63.8573 10.0293 64.1158 11.3515 64.1158 12.9184C64.1158 14.4672 63.866 15.7833 63.3577 16.8667C62.8495 17.951 62.1517 18.7767 61.2817 19.3464C60.403 19.9152 59.4124 20.2005 58.3098 20.2005C57.5 20.2005 56.8282 20.0652 56.2941 19.7962C55.7686 19.5265 55.3378 19.2024 55.0105 18.8232C54.6917 18.4371 54.4419 18.0734 54.2696 17.7303H54.1319V25.2408H50.8067ZM54.0629 12.9003C54.0629 13.8122 54.1922 14.6111 54.4506 15.2972C54.7177 15.9824 55.088 16.5185 55.579 16.9038C56.0787 17.283 56.673 17.4735 57.3794 17.4735C58.1116 17.4735 58.7318 17.277 59.2228 16.8857C59.7225 16.4875 60.0929 15.9462 60.3427 15.2602C60.6012 14.5689 60.7303 13.782 60.7303 12.9003C60.7303 12.0255 60.6012 11.248 60.3514 10.568C60.1016 9.88885 59.7311 9.35618 59.2315 8.97091C58.7405 8.58479 58.1202 8.39173 57.3794 8.39173C56.673 8.39173 56.07 8.57878 55.5704 8.95198C55.0794 9.32517 54.7004 9.84922 54.442 10.5224C54.1922 11.1955 54.0629 11.9884 54.0629 12.9003ZM73.109 20.2281C71.7307 20.2281 70.5421 19.9247 69.5342 19.3188C68.5177 18.7129 67.7337 17.8648 67.1824 16.7754C66.6311 15.6859 66.3555 14.4121 66.3555 12.9555C66.3555 11.4989 66.6311 10.2224 67.1824 9.12694C67.7337 8.03062 68.5177 7.17995 69.5342 6.57405C70.5421 5.96814 71.7307 5.66471 73.109 5.66471C74.4873 5.66471 75.6761 5.96814 76.6926 6.57405C77.7005 7.17995 78.4757 8.03062 79.027 9.12694C79.5869 10.2224 79.8627 11.4989 79.8627 12.9555C79.8627 14.4121 79.5869 15.6859 79.027 16.7754C78.4757 17.8648 77.7005 18.7129 76.6926 19.3188C75.6761 19.9247 74.4873 20.2281 73.109 20.2281ZM73.1263 17.5648C73.8757 17.5648 74.496 17.3597 74.9956 16.9494C75.5038 16.5332 75.8742 15.9764 76.1154 15.2783C76.3738 14.581 76.4945 13.8035 76.4945 12.9459C76.4945 12.0832 76.3738 11.3024 76.1154 10.6051C75.8742 9.90094 75.5038 9.3407 74.9956 8.92441C74.496 8.50812 73.8757 8.3004 73.1263 8.3004C72.3596 8.3004 71.7308 8.50812 71.2225 8.92441C70.7143 9.3407 70.3438 9.90094 70.094 10.6051C69.8442 11.3024 69.7237 12.0832 69.7237 12.9459C69.7237 13.8035 69.8442 14.581 70.094 15.2783C70.3438 15.9764 70.7143 16.5332 71.2225 16.9494C71.7308 17.3597 72.3596 17.5648 73.1263 17.5648ZM82.6795 25.2408V5.8483H85.9529V8.18057H86.1424C86.3147 7.8384 86.556 7.47385 86.8661 7.08858C87.1762 6.69642 87.5983 6.36288 88.1323 6.08708C88.6664 5.8061 89.3469 5.66471 90.1739 5.66471C91.2593 5.66471 92.2414 5.94312 93.12 6.50077C93.9987 7.05151 94.6964 7.86858 95.2132 8.95198C95.7301 10.0293 95.9885 11.3515 95.9885 12.9184C95.9885 14.4672 95.7387 15.7833 95.2305 16.8667C94.7222 17.951 94.0331 18.7767 93.1544 19.3464C92.2758 19.9152 91.2852 20.2005 90.1825 20.2005C89.3728 20.2005 88.7008 20.0652 88.1754 19.7962C87.6413 19.5265 87.2106 19.2024 86.8832 18.8232C86.5645 18.4371 86.3233 18.0734 86.1424 17.7303H86.0046V25.2408H82.6795ZM85.9443 12.9003C85.9443 13.8122 86.0736 14.6111 86.3234 15.2972C86.5904 15.9824 86.9694 16.5185 87.4518 16.9038C87.9514 17.283 88.5544 17.4735 89.2521 17.4735C89.9843 17.4735 90.6046 17.277 91.0956 16.8857C91.5952 16.4875 91.9657 15.9462 92.2155 15.2602C92.4739 14.5689 92.6031 13.782 92.6031 12.9003C92.6031 12.0255 92.4825 11.248 92.2241 10.568C91.9743 9.88885 91.6039 9.35618 91.1042 8.97091C90.6132 8.58479 89.993 8.39173 89.2521 8.39173C88.5458 8.39173 87.9428 8.57878 87.4432 8.95198C86.9521 9.32517 86.5732 9.84922 86.3148 10.5224C86.0649 11.1955 85.9443 11.9884 85.9443 12.9003Z" fill="black"/>
</svg>
