<svg width="31" height="17" viewBox="0 0 31 17" fill="none" xmlns="http://www.w3.org/2000/svg">
<path d="M0.137695 13.1584V10.9917L6.51742 0.905793H8.32382V3.99137H7.22206L2.92697 10.8012V10.9184H11.8324V13.1584H0.137695ZM7.30992 15.9501V12.4974L7.34004 11.5278V0.905793H9.9097V15.9501H7.30992ZM15.4211 16.1121C14.9758 16.1121 14.5941 15.9553 14.2754 15.6416C13.9575 15.3278 13.8008 14.946 13.8059 14.4952C13.8008 14.0548 13.9575 13.6782 14.2754 13.3644C14.5941 13.0507 14.9758 12.8947 15.4211 12.8947C15.8518 12.8947 16.2265 13.0507 16.5444 13.3644C16.8674 13.6782 17.0311 14.0548 17.0363 14.4952C17.0311 14.7943 16.9527 15.0658 16.8011 15.3114C16.6547 15.5562 16.4591 15.7519 16.2136 15.8984C15.9741 16.0406 15.7097 16.1121 15.4211 16.1121ZM24.6719 16.1561C23.9518 16.1509 23.2497 16.026 22.5649 15.7812C21.8792 15.5312 21.2624 15.127 20.7145 14.5694C20.1667 14.0057 19.7308 13.2593 19.4078 12.3284C19.0847 11.3933 18.9254 10.2349 18.9305 8.85418C18.9305 7.56652 19.0675 6.41761 19.3414 5.4092C19.6154 4.39993 20.0099 3.54838 20.5233 2.85283C21.0376 2.15211 21.6569 1.61858 22.3814 1.25141C23.1102 0.884246 23.9251 0.700684 24.8261 0.700684C25.7703 0.700684 26.6076 0.886861 27.3363 1.2592C28.0711 1.63067 28.6629 2.14003 29.1134 2.78644C29.564 3.42855 29.8422 4.15255 29.9499 4.961H27.2709C27.1339 4.38353 26.8522 3.92243 26.4267 3.58026C26.0055 3.23206 25.4722 3.05883 24.8261 3.05883C23.7829 3.05883 22.9809 3.51132 22.4176 4.41716C21.8594 5.32301 21.5786 6.56754 21.5734 8.14911H21.6759C21.9163 7.71816 22.2272 7.34842 22.6088 7.03987C22.9905 6.73131 23.4212 6.49346 23.901 6.32711C24.3851 6.1556 24.8968 6.07024 25.4352 6.07024C26.3164 6.07024 27.1063 6.28057 27.8067 6.70203C28.5113 7.1235 29.0695 7.70351 29.4804 8.44302C29.8913 9.17735 30.0946 10.0194 30.0894 10.9701C30.0946 11.9587 29.8698 12.8482 29.4141 13.6359C28.9592 14.4194 28.3253 15.0365 27.5129 15.4873C26.7006 15.938 25.753 16.1604 24.6719 16.1561ZM24.6573 13.9522C25.1905 13.9522 25.6677 13.8221 26.089 13.5626C26.5094 13.3032 26.8427 12.9533 27.0874 12.512C27.332 12.0716 27.4518 11.5768 27.4466 11.0287C27.4518 10.49 27.3346 10.0022 27.0943 9.56693C26.8591 9.13082 26.5343 8.78523 26.1183 8.53097C25.7022 8.27671 25.2276 8.14911 24.6935 8.14911C24.2972 8.14911 23.9277 8.22499 23.5848 8.37668C23.2429 8.52837 22.9439 8.73951 22.6889 9.00842C22.4348 9.27302 22.2341 9.58161 22.0876 9.93412C21.9455 10.2815 21.8723 10.6538 21.8671 11.0503C21.8723 11.5743 21.9946 12.057 22.2341 12.4974C22.4736 12.9387 22.8044 13.2912 23.2256 13.5558C23.646 13.8195 24.1232 13.9522 24.6573 13.9522Z" fill="#454545"/>
</svg>
