<svg width="207" height="19" viewBox="0 0 207 19" fill="none" xmlns="http://www.w3.org/2000/svg">
<path d="M5.09963 14.6843H0.430664V0.894033H5.19437C6.56404 0.894033 7.73555 1.16984 8.71758 1.72231C9.70821 2.26961 10.4663 3.05738 10.9918 4.08561C11.5258 5.11385 11.7929 6.34377 11.7929 7.77537C11.7929 9.21214 11.5258 10.4464 10.9918 11.4789C10.4577 12.5115 9.69107 13.3035 8.69181 13.856C7.70117 14.4085 6.50375 14.6843 5.09963 14.6843ZM2.92882 12.5227H4.97902C5.9352 12.5227 6.73636 12.3477 7.38243 11.9978C8.01988 11.6427 8.50222 11.1152 8.82957 10.4153C9.14829 9.7103 9.31201 8.83032 9.31201 7.77537C9.31201 6.72042 9.14829 5.8456 8.82957 5.14919C8.50222 4.44934 8.02851 3.92617 7.39105 3.58055C6.76221 3.23062 5.98686 3.05565 5.05652 3.05565H2.92882V12.5227ZM18.6326 14.886C17.5903 14.886 16.6944 14.6705 15.9449 14.2395C15.1955 13.8043 14.6183 13.1897 14.2135 12.3951C13.8086 11.5961 13.6105 10.6558 13.6105 9.57327C13.6105 8.5097 13.8086 7.57627 14.2135 6.77213C14.627 5.96454 15.1955 5.33621 15.9277 4.88717C16.6599 4.43381 17.5128 4.20713 18.5035 4.20713C19.1409 4.20713 19.7439 4.31057 20.3038 4.51656C20.8724 4.71824 21.3806 5.03283 21.8113 5.45946C22.2506 5.8861 22.5952 6.4291 22.8536 7.08845C23.1034 7.74434 23.2241 8.52521 23.2241 9.43192V10.1792H14.7562V8.53642H20.8895C20.8895 8.07013 20.7862 7.6547 20.588 7.29098C20.3899 6.92295 20.1143 6.63336 19.7611 6.4222C19.4079 6.21103 19.003 6.10588 18.5378 6.10588C18.0382 6.10588 17.5989 6.22654 17.2198 6.46959C16.8494 6.70748 16.5566 7.02122 16.3413 7.41165C16.1345 7.79778 16.0312 8.22268 16.0226 8.68466V10.1188C16.0226 10.7204 16.1344 11.2367 16.3584 11.6677C16.5738 12.0943 16.8839 12.4218 17.2802 12.6511C17.6765 12.8752 18.133 12.9872 18.6671 12.9872C19.0203 12.9872 19.339 12.9381 19.6233 12.839C19.9161 12.7364 20.1659 12.5856 20.3727 12.3882C20.588 12.1908 20.7432 11.9461 20.8551 11.6539L23.1293 11.9099C22.9829 12.5115 22.7071 13.0372 22.3023 13.4854C21.906 13.9301 21.3978 14.2757 20.7689 14.5222C20.1487 14.7653 19.4337 14.886 18.6326 14.886ZM33.4578 7.07551L31.2353 7.3177C31.175 7.09361 31.063 6.88244 30.9079 6.68507C30.7529 6.48769 30.5461 6.32825 30.2877 6.20672C30.0293 6.0852 29.7106 6.02487 29.3315 6.02487C28.8233 6.02487 28.4012 6.13518 28.0566 6.35497C27.7121 6.57475 27.5484 6.86004 27.5484 7.20997C27.5484 7.51076 27.6517 7.75553 27.8757 7.94429C28.1083 8.13218 28.4873 8.28732 29.0128 8.40885L30.7702 8.7855C31.7522 8.99667 32.4757 9.33108 32.9495 9.78874C33.4319 10.2473 33.6732 10.8463 33.6818 11.5866C33.6732 12.2374 33.4836 12.8123 33.1046 13.3104C32.7342 13.8043 32.2173 14.1904 31.554 14.4688C30.8907 14.7472 30.1241 14.886 29.2627 14.886C27.9964 14.886 26.9799 14.6214 26.2132 14.0913C25.4379 13.5578 24.9814 12.8148 24.8263 11.8633L27.2038 11.634C27.3158 12.1012 27.5397 12.4528 27.8929 12.6907C28.2461 12.9295 28.6941 13.0484 29.254 13.0484C29.8398 13.0484 30.305 12.9295 30.6495 12.6907C31.0027 12.4528 31.1836 12.1589 31.1836 11.809C31.1836 11.5125 31.0716 11.2678 30.839 11.0747C30.6151 10.8825 30.2619 10.7342 29.7881 10.6308L28.0308 10.2602C27.0315 10.0542 26.2994 9.706 25.8256 9.21645C25.3518 8.72258 25.1192 8.09858 25.1192 7.34443C25.1192 6.70749 25.2914 6.15502 25.636 5.68787C25.9892 5.21728 26.4803 4.85355 27.1091 4.59757C27.7466 4.33728 28.4701 4.20713 29.297 4.20713C30.5117 4.20713 31.4593 4.46485 32.157 4.98112C32.8548 5.49739 33.2941 6.19552 33.4578 7.07551ZM40.1941 14.886C39.169 14.886 38.2818 14.6593 37.541 14.2059C36.8001 13.7526 36.2402 13.1268 35.8353 12.3279C35.4391 11.5237 35.2409 10.5989 35.2409 9.55344C35.2409 8.5028 35.4476 7.57627 35.8525 6.77213C36.2574 5.96454 36.826 5.33621 37.5582 4.88717C38.299 4.43381 39.1776 4.20713 40.1855 4.20713C41.0211 4.20713 41.762 4.36141 42.408 4.67169C43.0627 4.9768 43.5795 5.41033 43.9672 5.97142C44.3548 6.52734 44.5702 7.17894 44.6218 7.92361H42.296C42.2013 7.42544 41.9773 7.01 41.6241 6.67818C41.2709 6.34118 40.8057 6.17311 40.22 6.17311C39.7203 6.17311 39.281 6.30756 38.902 6.57733C38.5316 6.84193 38.2387 7.22375 38.0233 7.72192C37.8166 8.2201 37.7132 8.81739 37.7132 9.51293C37.7132 10.218 37.8166 10.8239 38.0233 11.3307C38.23 11.834 38.5229 12.2219 38.8933 12.4959C39.2724 12.7648 39.7117 12.9002 40.22 12.9002C40.5732 12.9002 40.9005 12.8329 41.1761 12.6976C41.469 12.5589 41.7102 12.3589 41.8997 12.0986C42.0892 11.8383 42.2271 11.522 42.296 11.1488H44.6218C44.5702 11.8806 44.3548 12.5296 43.9758 13.095C43.6054 13.656 43.0971 14.0965 42.4597 14.4145C41.8136 14.7291 41.0641 14.886 40.1941 14.886ZM46.6289 14.6843V4.34159H48.9892V6.06537H49.0926C49.2821 5.46808 49.6095 5.00784 50.066 4.68463C50.5312 4.35712 51.0567 4.19335 51.6511 4.19335C51.7803 4.19335 51.9354 4.20023 52.0991 4.21402C52.2714 4.22264 52.4092 4.23817 52.5212 4.26058V6.50321C52.4178 6.46701 52.2541 6.43599 52.0301 6.40841C51.8147 6.37739 51.5994 6.36186 51.3926 6.36186C50.9447 6.36186 50.5484 6.45839 50.1952 6.65145C49.8421 6.83934 49.5664 7.10222 49.3683 7.43922C49.1616 7.77536 49.0668 8.16408 49.0668 8.60365V14.6843H46.6289ZM54.1406 14.6843V4.34159H56.5784V14.6843H54.1406ZM55.3638 2.87379C54.9762 2.87379 54.6488 2.74536 54.3731 2.49024C54.0889 2.22909 53.951 1.91709 53.951 1.55423C53.951 1.18621 54.0889 0.874203 54.3731 0.618222C54.6488 0.357931 54.9762 0.227783 55.3638 0.227783C55.7514 0.227783 56.0874 0.357931 56.3631 0.618222C56.6387 0.874203 56.7766 1.18621 56.7766 1.55423C56.7766 1.91709 56.6387 2.22909 56.3631 2.49024C56.0874 2.74536 55.7514 2.87379 55.3638 2.87379ZM59.0852 18.5628V4.34159H61.4799V6.05159H61.6178C61.747 5.80078 61.9193 5.53358 62.1518 5.25088C62.3758 4.96301 62.686 4.71824 63.0822 4.51656C63.4699 4.31057 63.9695 4.20713 64.5725 4.20713C65.3736 4.20713 66.0886 4.4114 66.7347 4.81994C67.3808 5.2233 67.8889 5.82317 68.2679 6.61784C68.647 7.40733 68.8365 8.37695 68.8365 9.52672C68.8365 10.6618 68.6556 11.6271 68.2852 12.4218C67.9062 13.2165 67.3979 13.8224 66.7604 14.2395C66.123 14.6576 65.3909 14.8661 64.5811 14.8661C63.9867 14.8661 63.4956 14.767 63.108 14.5696C62.7118 14.3723 62.4017 14.1344 62.1605 13.856C61.9279 13.5733 61.747 13.3061 61.6178 13.0544H61.5144V18.5628H59.0852ZM61.4713 9.51293C61.4713 10.1818 61.5661 10.7678 61.7556 11.2703C61.9451 11.7728 62.2207 12.1658 62.5826 12.4485C62.9443 12.7269 63.3837 12.8665 63.9006 12.8665C64.4346 12.8665 64.8912 12.7226 65.2529 12.4356C65.6147 12.1434 65.8905 11.7461 66.0714 11.2436C66.2609 10.736 66.3556 10.1594 66.3556 9.51293C66.3556 8.87082 66.2609 8.30111 66.08 7.80294C65.8991 7.3039 65.6234 6.91348 65.2616 6.63078C64.8998 6.34808 64.4433 6.20672 63.9006 6.20672C63.3837 6.20672 62.9357 6.34376 62.5739 6.61784C62.2121 6.89106 61.9365 7.27546 61.747 7.76932C61.5661 8.26232 61.4713 8.84411 61.4713 9.51293ZM76.0898 4.34159V6.22656H70.1459V4.34159H76.0898ZM71.6103 1.86366H74.0482V11.5737C74.0482 11.9012 74.0998 12.1529 74.1945 12.3279C74.2979 12.4985 74.4358 12.6149 74.5995 12.6778C74.7632 12.7407 74.9526 12.7717 75.1507 12.7717C75.3058 12.7717 75.4437 12.7605 75.5729 12.7381C75.7021 12.7157 75.7969 12.6959 75.8658 12.6778L76.2792 14.5834C76.15 14.6282 75.9605 14.6774 75.7193 14.7317C75.4781 14.7851 75.1852 14.817 74.8406 14.8256C74.229 14.8437 73.6864 14.7515 73.1954 14.5498C72.7044 14.343 72.3166 14.0241 72.0324 13.5931C71.7481 13.1622 71.6103 12.6235 71.6103 11.9771V1.86366ZM78.1227 14.6843V4.34159H80.5605V14.6843H78.1227ZM79.3545 2.87379C78.9668 2.87379 78.631 2.74536 78.3553 2.49024C78.0797 2.22909 77.9332 1.91709 77.9332 1.55423C77.9332 1.18621 78.0797 0.874203 78.3553 0.618222C78.631 0.357931 78.9668 0.227783 79.3545 0.227783C79.7421 0.227783 80.0695 0.357931 80.3451 0.618222C80.6208 0.874203 80.7672 1.18621 80.7672 1.55423C80.7672 1.91709 80.6208 2.22909 80.3451 2.49024C80.0695 2.74536 79.7421 2.87379 79.3545 2.87379ZM87.5725 14.886C86.5647 14.886 85.6946 14.6644 84.9538 14.2197C84.2129 13.775 83.6358 13.1536 83.2309 12.3546C82.826 11.5556 82.6193 10.6213 82.6193 9.55344C82.6193 8.4847 82.826 7.54869 83.2309 6.74541C83.6358 5.94212 84.2129 5.31812 84.9538 4.87338C85.6946 4.42951 86.5647 4.20713 87.5725 4.20713C88.589 4.20713 89.4591 4.42951 90.1999 4.87338C90.9407 5.31812 91.5093 5.94212 91.9141 6.74541C92.3276 7.54869 92.5257 8.4847 92.5257 9.55344C92.5257 10.6213 92.3276 11.5556 91.9141 12.3546C91.5093 13.1536 90.9407 13.775 90.1999 14.2197C89.4591 14.6644 88.589 14.886 87.5725 14.886ZM87.5898 12.9338C88.1411 12.9338 88.5976 12.7829 88.9594 12.4822C89.3298 12.177 89.6055 11.7685 89.7864 11.2565C89.9673 10.7454 90.062 10.1749 90.062 9.54655C90.062 8.91392 89.9673 8.34162 89.7864 7.82966C89.6055 7.31339 89.3298 6.90227 88.9594 6.59716C88.5976 6.29205 88.1411 6.13949 87.5898 6.13949C87.0298 6.13949 86.5647 6.29205 86.1856 6.59716C85.8238 6.90227 85.5482 7.31339 85.3587 7.82966C85.1864 8.34162 85.0916 8.91392 85.0916 9.54655C85.0916 10.1749 85.1864 10.7454 85.3587 11.2565C85.5482 11.7685 85.8238 12.177 86.1856 12.4822C86.5647 12.7829 87.0298 12.9338 87.5898 12.9338ZM97.031 8.62432V14.6843H94.5932V4.34159H96.9276V6.09899H97.0482C97.2808 5.5198 97.6599 5.05956 98.1853 4.71825C98.7108 4.3778 99.3568 4.20713 100.132 4.20713C100.838 4.20713 101.467 4.35969 101.993 4.6648C102.527 4.96991 102.94 5.41206 103.233 5.99125C103.526 6.57044 103.673 7.27289 103.673 8.09858V14.6843H101.235V8.47608C101.235 7.78484 101.054 7.24358 100.692 6.85314C100.339 6.46271 99.8478 6.26706 99.219 6.26706C98.7969 6.26706 98.4178 6.36187 98.0819 6.54977C97.7545 6.73421 97.4962 7.00139 97.3067 7.35132C97.1258 7.70124 97.031 8.12615 97.031 8.62432ZM115.353 14.886C114.346 14.886 113.467 14.6644 112.735 14.2197C111.994 13.775 111.417 13.1536 111.012 12.3546C110.607 11.5556 110.4 10.6213 110.4 9.55344C110.4 8.4847 110.607 7.54869 111.012 6.74541C111.417 5.94212 111.994 5.31812 112.735 4.87338C113.467 4.42951 114.346 4.20713 115.353 4.20713C116.361 4.20713 117.24 4.42951 117.981 4.87338C118.722 5.31812 119.29 5.94212 119.695 6.74541C120.109 7.54869 120.307 8.4847 120.307 9.55344C120.307 10.6213 120.109 11.5556 119.695 12.3546C119.29 13.1536 118.722 13.775 117.981 14.2197C117.24 14.6644 116.361 14.886 115.353 14.886ZM115.371 12.9338C115.913 12.9338 116.37 12.7829 116.74 12.4822C117.111 12.177 117.387 11.7685 117.559 11.2565C117.748 10.7454 117.843 10.1749 117.843 9.54655C117.843 8.91392 117.748 8.34162 117.559 7.82966C117.387 7.31339 117.111 6.90227 116.74 6.59716C116.37 6.29205 115.913 6.13949 115.371 6.13949C114.811 6.13949 114.346 6.29205 113.967 6.59716C113.605 6.90227 113.329 7.31339 113.14 7.82966C112.959 8.34162 112.873 8.91392 112.873 9.54655C112.873 10.1749 112.959 10.7454 113.14 11.2565C113.329 11.7685 113.605 12.177 113.967 12.4822C114.346 12.7829 114.811 12.9338 115.371 12.9338ZM127.612 4.34159V6.22656H121.504V4.34159H127.612ZM123.029 14.6843V3.36508C123.029 2.66953 123.175 2.09033 123.46 1.62835C123.752 1.16552 124.14 0.819919 124.631 0.590657C125.122 0.362256 125.665 0.247616 126.259 0.247616C126.681 0.247616 127.052 0.281233 127.388 0.34846C127.715 0.415688 127.956 0.476881 128.111 0.530318L127.629 2.41612C127.525 2.38423 127.396 2.35322 127.233 2.32133C127.078 2.28599 126.905 2.26788 126.707 2.26788C126.259 2.26788 125.94 2.37734 125.751 2.59798C125.561 2.81345 125.475 3.12287 125.475 3.5271V14.6843H123.029ZM139.379 4.34159V6.22656H133.443V4.34159H139.379ZM134.908 1.86366H137.346V11.5737C137.346 11.9012 137.389 12.1529 137.492 12.3279C137.595 12.4985 137.733 12.6149 137.897 12.6778C138.061 12.7407 138.242 12.7717 138.448 12.7717C138.603 12.7717 138.741 12.7605 138.862 12.7381C138.991 12.7157 139.094 12.6959 139.163 12.6778L139.568 14.5834C139.439 14.6282 139.258 14.6774 139.017 14.7317C138.776 14.7851 138.483 14.817 138.138 14.8256C137.527 14.8437 136.975 14.7515 136.493 14.5498C136.002 14.343 135.614 14.0241 135.321 13.5931C135.046 13.1622 134.899 12.6235 134.908 11.9771V1.86366ZM144.082 8.62432V14.6843H141.644V0.894033H144.022V6.09899H144.142C144.392 5.51549 144.763 5.05525 145.271 4.71825C145.779 4.3778 146.434 4.20713 147.218 4.20713C147.941 4.20713 148.561 4.35711 149.096 4.65791C149.63 4.95871 150.043 5.39914 150.336 5.97747C150.637 6.55666 150.784 7.26427 150.784 8.09858V14.6843H148.346V8.47608C148.346 7.78053 148.165 7.23927 147.803 6.85314C147.45 6.46271 146.951 6.26706 146.313 6.26706C145.882 6.26706 145.495 6.36187 145.159 6.54977C144.823 6.73421 144.556 7.00139 144.358 7.35132C144.177 7.70124 144.082 8.12615 144.082 8.62432ZM157.839 14.886C156.805 14.886 155.909 14.6705 155.16 14.2395C154.411 13.8043 153.833 13.1897 153.428 12.3951C153.024 11.5961 152.817 10.6558 152.817 9.57327C152.817 8.5097 153.024 7.57627 153.428 6.77213C153.833 5.96454 154.402 5.33621 155.134 4.88717C155.866 4.43381 156.728 4.20713 157.71 4.20713C158.347 4.20713 158.95 4.31057 159.519 4.51656C160.087 4.71824 160.587 5.03283 161.026 5.45946C161.466 5.8861 161.81 6.4291 162.06 7.08845C162.31 7.74434 162.439 8.52521 162.439 9.43192V10.1792H153.963V8.53642H160.105C160.096 8.07013 160.001 7.6547 159.803 7.29098C159.605 6.92295 159.329 6.63336 158.967 6.4222C158.623 6.21103 158.209 6.10588 157.744 6.10588C157.253 6.10588 156.814 6.22654 156.435 6.46959C156.056 6.70748 155.763 7.02122 155.556 7.41165C155.35 7.79778 155.238 8.22268 155.238 8.68466V10.1188C155.238 10.7204 155.35 11.2367 155.565 11.6677C155.789 12.0943 156.09 12.4218 156.487 12.6511C156.883 12.8752 157.348 12.9872 157.873 12.9872C158.227 12.9872 158.554 12.9381 158.838 12.839C159.123 12.7364 159.372 12.5856 159.588 12.3882C159.794 12.1908 159.958 11.9461 160.062 11.6539L162.336 11.9099C162.189 12.5115 161.922 13.0372 161.517 13.4854C161.112 13.9301 160.604 14.2757 159.984 14.5222C159.355 14.7653 158.64 14.886 157.839 14.886ZM169.201 14.6843V4.34159H171.639V14.6843H169.201ZM170.424 2.87379C170.037 2.87379 169.709 2.74536 169.425 2.49024C169.15 2.22909 169.012 1.91709 169.012 1.55423C169.012 1.18621 169.15 0.874203 169.425 0.618222C169.709 0.357931 170.037 0.227783 170.424 0.227783C170.812 0.227783 171.148 0.357931 171.424 0.618222C171.699 0.874203 171.837 1.18621 171.837 1.55423C171.837 1.91709 171.699 2.22909 171.424 2.49024C171.148 2.74536 170.812 2.87379 170.424 2.87379ZM179.306 4.34159V6.22656H173.362V4.34159H179.306ZM174.826 1.86366H177.264V11.5737C177.264 11.9012 177.316 12.1529 177.411 12.3279C177.514 12.4985 177.652 12.6149 177.815 12.6778C177.979 12.7407 178.169 12.7717 178.367 12.7717C178.522 12.7717 178.66 12.7605 178.789 12.7381C178.918 12.7157 179.013 12.6959 179.082 12.6778L179.495 14.5834C179.357 14.6282 179.177 14.6774 178.935 14.7317C178.694 14.7851 178.401 14.817 178.057 14.8256C177.445 14.8437 176.894 14.7515 176.411 14.5498C175.92 14.343 175.533 14.0241 175.248 13.5931C174.964 13.1622 174.826 12.6235 174.826 11.9771V1.86366ZM185.81 14.886C184.767 14.886 183.871 14.6705 183.122 14.2395C182.372 13.8043 181.795 13.1897 181.39 12.3951C180.986 11.5961 180.787 10.6558 180.787 9.57327C180.787 8.5097 180.986 7.57627 181.39 6.77213C181.795 5.96454 182.372 5.33621 183.096 4.88717C183.828 4.43381 184.69 4.20713 185.68 4.20713C186.318 4.20713 186.912 4.31057 187.481 4.51656C188.049 4.71824 188.557 5.03283 188.988 5.45946C189.427 5.8861 189.772 6.4291 190.022 7.08845C190.28 7.74434 190.401 8.52521 190.401 9.43192V10.1792H181.933V8.53642H188.066C188.066 8.07013 187.963 7.6547 187.765 7.29098C187.567 6.92295 187.291 6.63336 186.938 6.4222C186.585 6.21103 186.18 6.10588 185.715 6.10588C185.215 6.10588 184.776 6.22654 184.397 6.46959C184.026 6.70748 183.725 7.02122 183.518 7.41165C183.311 7.79778 183.208 8.22268 183.199 8.68466V10.1188C183.199 10.7204 183.311 11.2367 183.527 11.6677C183.751 12.0943 184.061 12.4218 184.457 12.6511C184.845 12.8752 185.31 12.9872 185.835 12.9872C186.197 12.9872 186.516 12.9381 186.8 12.839C187.084 12.7364 187.334 12.5856 187.55 12.3882C187.756 12.1908 187.92 11.9461 188.023 11.6539L190.298 11.9099C190.16 12.5115 189.884 13.0372 189.479 13.4854C189.083 13.9301 188.566 14.2757 187.946 14.5222C187.326 14.7653 186.611 14.886 185.81 14.886ZM192.46 14.6843V4.34159H194.794V6.09899H194.915C195.13 5.50687 195.483 5.04403 195.983 4.7122C196.483 4.3752 197.077 4.20713 197.766 4.20713C198.464 4.20713 199.058 4.3778 199.532 4.71825C200.023 5.05525 200.359 5.51549 200.557 6.09899H200.669C200.893 5.52411 201.281 5.06645 201.823 4.72514C202.375 4.37952 203.021 4.20713 203.77 4.20713C204.718 4.20713 205.493 4.50793 206.096 5.10953C206.699 5.71113 207.001 6.58855 207.001 7.74176V14.6843H204.554V8.11925C204.554 7.47714 204.39 7.00828 204.046 6.71179C203.701 6.41099 203.288 6.26101 202.797 6.26101C202.202 6.26101 201.746 6.44461 201.41 6.81263C201.083 7.17635 200.919 7.65038 200.919 8.23388V14.6843H198.533V8.01841C198.533 7.48404 198.369 7.05741 198.05 6.73851C197.732 6.41961 197.31 6.26101 196.801 6.26101C196.448 6.26101 196.129 6.35066 195.845 6.52993C195.552 6.7049 195.328 6.95399 195.156 7.27719C194.984 7.59609 194.898 7.96843 194.898 8.39506V14.6843H192.46Z" fill="#555555"/>
</svg>
