<svg width="72" height="20" viewBox="0 0 72 20" fill="none" xmlns="http://www.w3.org/2000/svg">
<path d="M0.618992 19.1744V16.7137L7.14856 10.3133C7.76879 9.68324 8.29431 9.12303 8.70779 8.63348C9.12128 8.14392 9.43997 7.66902 9.64672 7.2105C9.85346 6.75111 9.95682 6.26154 9.95682 5.74096C9.95682 5.14712 9.81901 4.63946 9.55197 4.21713C9.28493 3.78791 8.91448 3.45781 8.4407 3.2251C7.96692 2.99239 7.43284 2.87606 6.83846 2.87606C6.21823 2.87606 5.67552 3.00448 5.21035 3.26218C4.74518 3.51299 4.38338 3.87065 4.12495 4.33607C3.87513 4.8015 3.75459 5.35567 3.75459 5.99778H0.515625C0.515625 4.80406 0.782625 3.76724 1.33394 2.88553C1.87664 2.00381 2.62606 1.32117 3.58225 0.837645C4.53843 0.354125 5.64112 0.112793 6.88157 0.112793C8.13926 0.112793 9.25048 0.348095 10.2067 0.819549C11.1542 1.291 11.895 1.9366 12.4291 2.75712C12.9546 3.57678 13.2217 4.51361 13.2217 5.56683C13.2217 6.27014 13.0925 6.96227 12.8168 7.64144C12.5498 8.32147 12.076 9.07388 11.3954 9.90043C10.7235 10.727 9.77592 11.7276 8.56131 12.9033L5.32234 16.1991V16.3276H13.5059V19.1744H0.618992ZM23.4209 19.4312C22.0943 19.4312 20.9228 19.2054 19.8977 18.7521C18.8726 18.2987 18.0628 17.6687 17.4684 16.8602C16.8827 16.0526 16.564 15.1192 16.5295 14.0599H19.9752C20.0097 14.5684 20.1733 15.0115 20.4834 15.3916C20.7849 15.7648 21.1984 16.0552 21.7067 16.2638C22.2149 16.4715 22.7834 16.5758 23.4123 16.5758C24.0842 16.5758 24.6786 16.4594 25.1955 16.2267C25.721 15.988 26.1258 15.6579 26.4187 15.2355C26.7115 14.8132 26.858 14.3263 26.8494 13.7755C26.858 13.2058 26.7115 12.7042 26.41 12.2698C26.1085 11.8345 25.6778 11.495 25.1093 11.2502C24.5407 11.0054 23.8688 10.883 23.0677 10.883H21.4052V8.25682H23.0677C23.7224 8.25682 24.2995 8.14393 24.7905 7.91725C25.2816 7.69058 25.6693 7.37251 25.9536 6.96225C26.2292 6.54596 26.367 6.06505 26.367 5.52033C26.367 4.98768 26.255 4.52568 26.0052 4.13438C25.7726 3.73619 25.4281 3.42678 24.9888 3.207C24.558 2.98636 24.0412 2.87606 23.4554 2.87606C22.8782 2.87606 22.3528 2.98035 21.8618 3.18806C21.3708 3.39664 20.9745 3.69313 20.673 4.07925C20.3715 4.45849 20.2164 4.91183 20.1992 5.43758H16.9257C16.943 4.38522 17.2531 3.46037 17.8303 2.66485C18.416 1.86329 19.1999 1.23844 20.1819 0.791984C21.1553 0.33863 22.258 0.112793 23.4726 0.112793C24.7303 0.112793 25.8156 0.348095 26.7374 0.819549C27.6677 1.28497 28.3913 1.91244 28.8996 2.70193C29.4078 3.49143 29.6576 4.36367 29.6576 5.31864C29.6662 6.3779 29.3562 7.26564 28.7273 7.98101C28.0985 8.69724 27.2801 9.16611 26.2637 9.38589V9.5333C27.5816 9.71688 28.598 10.2064 29.3044 11.0019C30.0108 11.7923 30.364 12.7748 30.3554 13.9496C30.3554 15.0028 30.0539 15.9457 29.4595 16.7775C28.8651 17.604 28.0468 18.253 26.9958 18.7245C25.9621 19.1959 24.7647 19.4312 23.4209 19.4312ZM35.0329 19.3761C34.4816 19.3761 33.9993 19.1804 33.603 18.7891C33.2068 18.3969 33.0086 17.9195 33.0172 17.3566C33.0086 16.805 33.2068 16.3344 33.603 15.9423C33.9993 15.5501 34.4816 15.3545 35.0329 15.3545C35.5756 15.3545 36.0408 15.5501 36.437 15.9423C36.8419 16.3344 37.0486 16.805 37.0572 17.3566C37.0486 17.7298 36.9539 18.0694 36.7644 18.3754C36.5749 18.6814 36.3337 18.9261 36.0236 19.1097C35.7307 19.2873 35.3947 19.3761 35.0329 19.3761ZM46.6622 19.532C45.1547 19.532 43.8539 19.1502 42.7685 18.3849C41.6917 17.6135 40.8647 16.5025 40.2876 15.0519C39.7104 13.5945 39.4176 11.8406 39.4176 9.79012C39.4263 7.73968 39.7191 5.9952 40.2962 4.5567C40.8734 3.11217 41.7003 2.00985 42.7771 1.25139C43.8625 0.492063 45.1547 0.112793 46.6622 0.112793C48.1697 0.112793 49.4618 0.492063 50.5472 1.25139C51.624 2.00985 52.4596 3.11217 53.0281 4.5567C53.6139 6.00123 53.9068 7.74571 53.9068 9.79012C53.9068 11.8474 53.6139 13.604 53.0281 15.0606C52.4596 16.512 51.624 17.6195 50.5472 18.3849C49.4704 19.1502 48.1697 19.532 46.6622 19.532ZM46.6622 16.6585C47.8337 16.6585 48.764 16.0802 49.4445 14.9227C50.1251 13.76 50.4697 12.0491 50.4697 9.79012C50.4697 8.29646 50.3146 7.04157 50.0045 6.0254C49.6944 5.00923 49.2465 4.24471 48.678 3.73016C48.1094 3.20958 47.4374 2.94929 46.6622 2.94929C45.4906 2.94929 44.5689 3.53108 43.8884 4.69463C43.2079 5.85129 42.872 7.55006 42.8633 9.79012C42.8547 11.2898 43.0097 12.5507 43.3112 13.5729C43.6213 14.5951 44.0693 15.3665 44.6378 15.8871C45.2064 16.4017 45.8783 16.6585 46.6622 16.6585ZM63.8993 19.532C62.3918 19.532 61.091 19.1502 60.0056 18.3849C58.9289 17.6135 58.1019 16.5025 57.5247 15.0519C56.9476 13.5945 56.6547 11.8406 56.6547 9.79012C56.6633 7.73968 56.9562 5.9952 57.5333 4.5567C58.1105 3.11217 58.9375 2.00985 60.0143 1.25139C61.0997 0.492063 62.3918 0.112793 63.8993 0.112793C65.4068 0.112793 66.6989 0.492063 67.7843 1.25139C68.8611 2.00985 69.6967 3.11217 70.2652 4.5567C70.851 6.00123 71.1439 7.74571 71.1439 9.79012C71.1439 11.8474 70.851 13.604 70.2652 15.0606C69.6967 16.512 68.8611 17.6195 67.7843 18.3849C66.7076 19.1502 65.4068 19.532 63.8993 19.532ZM63.8993 16.6585C65.0708 16.6585 66.0012 16.0802 66.6817 14.9227C67.3622 13.76 67.7068 12.0491 67.7068 9.79012C67.7068 8.29646 67.5517 7.04157 67.2416 6.0254C66.9315 5.00923 66.4835 4.24471 65.915 3.73016C65.3465 3.20958 64.6746 2.94929 63.8993 2.94929C62.7278 2.94929 61.8061 3.53108 61.1255 4.69463C60.445 5.85129 60.109 7.55006 60.1004 9.79012C60.0918 11.2898 60.2468 12.5507 60.5483 13.5729C60.8584 14.5951 61.3064 15.3665 61.875 15.8871C62.4435 16.4017 63.1154 16.6585 63.8993 16.6585Z" fill="#010101"/>
</svg>
