<svg width="96" height="13" viewBox="0 0 96 13" fill="none" xmlns="http://www.w3.org/2000/svg">
<path d="M3.22787 12.7963H0.804688L5.21604 0.26017H8.01826L12.4348 12.7963H10.0125L6.66583 2.83116H6.56761L3.22787 12.7963ZM3.30713 7.88098H9.91426V9.70477H3.30713V7.88098ZM17.189 12.9618C16.4508 12.9618 15.79 12.7722 15.2069 12.3921C14.6237 12.0129 14.1628 11.4621 13.8243 10.7399C13.4857 10.0176 13.316 9.1402 13.316 8.10766C13.316 7.06305 13.4874 6.18136 13.8303 5.46255C14.1766 4.74028 14.6435 4.19552 15.231 3.82835C15.8185 3.45688 16.4732 3.27158 17.195 3.27158C17.7455 3.27158 18.1986 3.36555 18.5535 3.55344C18.9084 3.73702 19.1892 3.95938 19.3977 4.22053C19.6053 4.47737 19.7664 4.72045 19.881 4.94885H19.9723V0.26017H22.1939V12.7963H20.0153V11.3148H19.881C19.7664 11.5432 19.6019 11.7862 19.3856 12.043C19.1694 12.2964 18.8834 12.5128 18.5285 12.6921C18.1736 12.8722 17.7274 12.9618 17.189 12.9618ZM17.8066 11.1432C18.2761 11.1432 18.6758 11.0174 19.0057 10.764C19.3365 10.5072 19.5872 10.1495 19.7586 9.69267C19.9301 9.23587 20.0153 8.70321 20.0153 8.09472C20.0153 7.48709 19.9301 6.95876 19.7586 6.50971C19.5915 6.06067 19.3426 5.71163 19.0118 5.46255C18.6862 5.21432 18.2839 5.08931 17.8066 5.08931C17.313 5.08931 16.9013 5.21773 16.5714 5.47543C16.2406 5.73228 15.9916 6.08742 15.8245 6.53991C15.6574 6.99326 15.5738 7.51122 15.5738 8.09472C15.5738 8.68253 15.6574 9.20741 15.8245 9.66852C15.9959 10.1253 16.2466 10.4865 16.5774 10.7519C16.9116 11.0131 17.3217 11.1432 17.8066 11.1432ZM28.0412 12.9618C27.303 12.9618 26.6423 12.7722 26.0582 12.3921C25.4751 12.0129 25.0142 11.4621 24.6757 10.7399C24.3371 10.0176 24.1683 9.1402 24.1683 8.10766C24.1683 7.06305 24.3397 6.18136 24.6817 5.46255C25.0288 4.74028 25.4957 4.19552 26.0832 3.82835C26.6707 3.45688 27.3254 3.27158 28.0473 3.27158C28.5977 3.27158 29.05 3.36555 29.4049 3.55344C29.7598 3.73702 30.0415 3.95938 30.2499 4.22053C30.4575 4.47737 30.6186 4.72045 30.7332 4.94885H30.8245V0.26017H33.0453V12.7963H30.8676V11.3148H30.7332C30.6186 11.5432 30.4532 11.7862 30.237 12.043C30.0208 12.2964 29.7357 12.5128 29.3808 12.6921C29.0258 12.8722 28.5796 12.9618 28.0412 12.9618ZM28.6589 11.1432C29.1275 11.1432 29.5272 11.0174 29.858 10.764C30.1879 10.5072 30.4395 10.1495 30.6109 9.69267C30.7814 9.23587 30.8676 8.70321 30.8676 8.09472C30.8676 7.48709 30.7814 6.95876 30.6109 6.50971C30.4429 6.06067 30.1948 5.71163 29.864 5.46255C29.5375 5.21432 29.1361 5.08931 28.6589 5.08931C28.1653 5.08931 27.7535 5.21773 27.4227 5.47543C27.0928 5.73228 26.8439 6.08742 26.6767 6.53991C26.5096 6.99326 26.4261 7.51122 26.4261 8.09472C26.4261 8.68253 26.5096 9.20741 26.6767 9.66852C26.8482 10.1253 27.0988 10.4865 27.4288 10.7519C27.7639 11.0131 28.173 11.1432 28.6589 11.1432ZM44.3713 3.39399V5.1083H38.9693V3.39399H44.3713ZM40.3028 1.141H42.5175V9.96848C42.5175 10.2658 42.5623 10.4951 42.6527 10.6537C42.7466 10.8088 42.869 10.9148 43.0197 10.9726C43.1705 11.0294 43.3376 11.0579 43.5211 11.0579C43.6598 11.0579 43.7864 11.0476 43.9001 11.0269C44.019 11.0071 44.1085 10.9881 44.1697 10.9726L44.5427 12.7041C44.4247 12.7455 44.255 12.7903 44.0353 12.8394C43.8191 12.8886 43.5538 12.917 43.2394 12.9248C42.6846 12.9411 42.185 12.8575 41.7405 12.6739C41.296 12.486 40.9437 12.1965 40.6827 11.8043C40.4251 11.413 40.2993 10.9235 40.3028 10.3357V1.141ZM50.2221 12.9799C49.3047 12.9799 48.5087 12.7783 47.8359 12.374C47.1632 11.9698 46.6411 11.4044 46.2699 10.6787C45.9029 9.95213 45.7194 9.10316 45.7194 8.13181C45.7194 7.16046 45.9029 6.30974 46.2699 5.57886C46.6411 4.84884 47.1632 4.28171 47.8359 3.87749C48.5087 3.47326 49.3047 3.27158 50.2221 3.27158C51.1395 3.27158 51.9355 3.47326 52.6083 3.87749C53.281 4.28171 53.8013 4.84884 54.1683 5.57886C54.5395 6.30974 54.7248 7.16046 54.7248 8.13181C54.7248 9.10316 54.5395 9.95213 54.1683 10.6787C53.8013 11.4044 53.281 11.9698 52.6083 12.374C51.9355 12.7783 51.1395 12.9799 50.2221 12.9799ZM50.2342 11.2044C50.7321 11.2044 51.1481 11.0682 51.4824 10.795C51.8166 10.5175 52.0655 10.146 52.2284 9.68062C52.3963 9.2152 52.4799 8.69719 52.4799 8.12576C52.4799 7.55001 52.3963 7.03032 52.2284 6.5649C52.0655 6.09517 51.8166 5.72193 51.4824 5.4444C51.1481 5.16687 50.7321 5.02813 50.2342 5.02813C49.7242 5.02813 49.3004 5.16687 48.9618 5.4444C48.6276 5.72193 48.3761 6.09517 48.2089 6.5649C48.0461 7.03032 47.9643 7.55001 47.9643 8.12576C47.9643 8.69719 48.0461 9.2152 48.2089 9.68062C48.3761 10.146 48.6276 10.5175 48.9618 10.795C49.3004 11.0682 49.7242 11.2044 50.2342 11.2044ZM71.7009 4.48945H69.4129C69.3475 4.11453 69.2277 3.78185 69.052 3.49226C68.8763 3.19835 68.6583 2.94926 68.3973 2.74499C68.1363 2.54073 67.8382 2.38815 67.504 2.28559C67.1741 2.17958 66.8166 2.12698 66.4333 2.12698C65.7519 2.12698 65.1489 2.29851 64.6225 2.64068C64.0962 2.9794 63.6845 3.4776 63.3864 4.13436C63.0892 4.78767 62.9402 5.58576 62.9402 6.52781C62.9402 7.48709 63.0892 8.29467 63.3864 8.9523C63.6888 9.60475 64.1005 10.0986 64.6225 10.4339C65.1489 10.764 65.7502 10.9295 66.4272 10.9295C66.8028 10.9295 67.1534 10.8804 67.4799 10.7821C67.8098 10.6804 68.1053 10.5313 68.3663 10.3357C68.6316 10.14 68.8539 9.89868 69.0339 9.61339C69.2174 9.32724 69.3432 9.00143 69.4129 8.6334L71.7009 8.64634C71.6156 9.24191 71.4295 9.80126 71.1444 10.3236C70.8627 10.8459 70.494 11.307 70.0366 11.7069C69.5801 12.1025 69.046 12.4128 68.4343 12.6369C67.8219 12.8575 67.1431 12.9678 66.3971 12.9678C65.2953 12.9678 64.3124 12.7127 63.4476 12.2025C62.5827 11.6922 61.9022 10.9562 61.4043 9.99262C60.9064 9.02989 60.6582 7.87494 60.6582 6.52781C60.6582 5.17723 60.9089 4.02228 61.4103 3.063C61.9125 2.10026 62.5956 1.36338 63.4596 0.85314C64.3245 0.343763 65.3039 0.088623 66.3971 0.088623C67.094 0.088623 67.7426 0.18602 68.3422 0.38253C68.9417 0.578179 69.4758 0.866083 69.9453 1.24531C70.4139 1.6211 70.7998 2.08219 71.1013 2.62863C71.4071 3.17162 71.607 3.79218 71.7009 4.48945ZM76.3862 12.9859C75.7901 12.9859 75.2543 12.88 74.777 12.6679C74.3041 12.4516 73.9285 12.1335 73.6511 11.7129C73.3781 11.2923 73.2411 10.7744 73.2411 10.1581C73.2411 9.6272 73.3393 9.18846 73.5349 8.84198C73.7304 8.49464 73.9983 8.21797 74.336 8.00939C74.6745 7.80168 75.0561 7.64395 75.4808 7.53794C75.9089 7.42762 76.3517 7.34835 76.8083 7.29922C77.3587 7.24233 77.8049 7.19148 78.1478 7.14666C78.4906 7.09753 78.7396 7.02429 78.8946 6.92603C79.0531 6.82433 79.1333 6.66661 79.1333 6.45458V6.4175C79.1333 5.95638 78.9963 5.59956 78.7232 5.34702C78.4501 5.09363 78.0565 4.96695 77.5422 4.96695C76.9995 4.96695 76.5697 5.08588 76.2518 5.32204C75.9374 5.55906 75.7255 5.83833 75.6152 6.16068L73.5469 5.86677C73.7106 5.29533 73.9794 4.81781 74.3549 4.43427C74.7297 4.04641 75.1888 3.75682 75.7315 3.56548C76.2742 3.36897 76.8737 3.27158 77.5302 3.27158C77.9824 3.27158 78.4338 3.32415 78.8817 3.43102C79.3305 3.53704 79.7406 3.71204 80.1118 3.95682C80.4831 4.19815 80.7812 4.52651 81.0051 4.9428C81.2334 5.3591 81.348 5.87879 81.348 6.50366V12.7963H79.2185V11.5044H79.1453C79.0109 11.7655 78.8206 12.0112 78.5759 12.2396C78.3356 12.4637 78.0315 12.6455 77.6645 12.7843C77.3019 12.9188 76.8755 12.9859 76.3862 12.9859ZM76.9607 11.3578C77.4052 11.3578 77.7912 11.2699 78.1176 11.095C78.4433 10.9148 78.6948 10.6787 78.8697 10.3848C79.0497 10.0909 79.1393 9.77023 79.1393 9.42375V8.3154C79.0695 8.37228 78.9515 8.42572 78.7844 8.47485C78.6207 8.52398 78.4372 8.5662 78.2339 8.60326C78.0298 8.64032 77.8282 8.67222 77.6283 8.70152C77.4285 8.72997 77.2545 8.75407 77.108 8.77475C76.7773 8.81957 76.4818 8.89283 76.2208 8.99454C75.9598 9.0971 75.7539 9.24016 75.6031 9.42375C75.4515 9.60302 75.3766 9.83575 75.3766 10.121C75.3766 10.5296 75.5256 10.8373 75.8228 11.0458C76.1208 11.2536 76.4999 11.3578 76.9607 11.3578ZM83.5748 12.7963V3.39399H85.7223V4.9609H85.8196C85.9911 4.41791 86.2848 3.9999 86.7009 3.70599C87.1213 3.40778 87.6002 3.25953 88.1386 3.25953C88.2609 3.25953 88.3979 3.26556 88.5486 3.27763C88.7037 3.28538 88.832 3.30002 88.9346 3.32071V5.35907C88.8407 5.32632 88.6917 5.2979 88.4875 5.2729C88.2876 5.24446 88.0938 5.23066 87.906 5.23066C87.5029 5.23066 87.1393 5.31771 86.8172 5.49353C86.4993 5.66505 86.2486 5.90379 86.0652 6.20976C85.8808 6.51573 85.7895 6.86911 85.7895 7.26902V12.7963H83.5748ZM95.6029 3.39399V5.1083H90.2009V3.39399H95.6029ZM91.5343 1.141H93.7491V9.96848C93.7491 10.2658 93.7939 10.4951 93.8834 10.6537C93.9773 10.8088 94.0997 10.9148 94.2504 10.9726C94.402 11.0294 94.5691 11.0579 94.7526 11.0579C94.8913 11.0579 95.0179 11.0476 95.1317 11.0269C95.2497 11.0071 95.3401 10.9881 95.4013 10.9726L95.7743 12.7041C95.6563 12.7455 95.4866 12.7903 95.266 12.8394C95.0498 12.8886 94.7854 12.917 94.4709 12.9248C93.9162 12.9411 93.4166 12.8575 92.9721 12.6739C92.5276 12.486 92.1744 12.1965 91.9134 11.8043C91.6567 11.413 91.53 10.9235 91.5343 10.3357V1.141Z" fill="black"/>
</svg>
